<svg width="17" height="17" viewBox="0 0 17 17" fill="none" xmlns="http://www.w3.org/2000/svg">
<path d="M15.2702 5.54284C15.2898 5.39494 15.3 5.24704 15.3 5.09999C15.3 3.07785 13.4784 1.4552 11.4571 1.72975C10.8681 0.681699 9.74609 0 8.49999 0C7.25389 0 6.13189 0.681699 5.54284 1.72975C3.51729 1.4552 1.7 3.07785 1.7 5.09999C1.7 5.24704 1.7102 5.39494 1.72975 5.54284C0.681699 6.13274 0 7.25474 0 8.49999C0 9.74524 0.681699 10.8672 1.72975 11.4571C1.71014 11.6039 1.7002 11.7519 1.7 11.9C1.7 13.9221 3.51729 15.5405 5.54284 15.2702C6.13189 16.3183 7.25389 17 8.49999 17C9.74609 17 10.8681 16.3183 11.4571 15.2702C13.4784 15.5405 15.3 13.9221 15.3 11.9C15.3 11.7529 15.2898 11.605 15.2702 11.4571C16.3183 10.8672 17 9.74524 17 8.49999C17 7.25474 16.3183 6.13274 15.2702 5.54284Z" fill="#458EFF"/>
</svg>
