<svg width="37" height="37" viewBox="0 0 37 37" fill="none" xmlns="http://www.w3.org/2000/svg">
<path d="M11.9392 7.68963C11.8251 7.80825 11.732 7.94542 11.664 8.09527L11.6558 8.08705L0.137735 34.0334L0.149031 34.0447C-0.0645698 34.4586 0.292801 35.3006 1.025 36.0339C1.7572 36.7661 2.59928 37.1234 3.01313 36.9098L3.0234 36.9201L28.9698 25.4011L28.9616 25.3918C29.1125 25.3199 29.2511 25.2326 29.3672 25.1156C30.9713 23.5115 28.37 18.3101 23.5589 13.4979C18.7457 8.68575 13.5443 6.08557 11.9392 7.68963Z" fill="#DD2E44"/>
<path d="M13.3502 12.3231L0.427329 33.3813L0.137735 34.0334L0.149031 34.0447C-0.0645698 34.4586 0.292801 35.3007 1.025 36.0339C1.26325 36.2721 1.51074 36.4529 1.75309 36.6059L17.4579 17.4578L13.3502 12.3231Z" fill="#EA596E"/>
<path d="M23.6318 13.4178C28.4276 18.2156 31.0904 23.3297 29.5767 24.8414C28.0641 26.3551 22.95 23.6933 18.1511 18.8975C13.3543 14.0997 10.6925 8.98355 12.2052 7.47089C13.7189 5.95822 18.833 8.62002 23.6318 13.4178Z" fill="#A0041E"/>
<path d="M19.0904 13.9755C18.9857 14.0604 18.8651 14.1237 18.7357 14.1616C18.6063 14.1995 18.4707 14.2113 18.3367 14.1963C17.4453 14.0998 16.6956 13.7896 16.1709 13.2998C15.6153 12.7812 15.3411 12.0849 15.4161 11.3876C15.5475 10.1635 16.7757 9.04008 18.8696 9.266C19.684 9.35329 20.0475 9.09142 20.0598 8.96614C20.0742 8.84188 19.7754 8.50813 18.961 8.41981C18.0697 8.32328 17.32 8.01315 16.7942 7.52331C16.2386 7.00471 15.9634 6.30845 16.0394 5.61117C16.1729 4.38707 17.4001 3.26361 19.492 3.49056C20.0855 3.55423 20.3987 3.43202 20.5312 3.35295C20.637 3.28825 20.6791 3.22664 20.6832 3.1907C20.6955 3.06644 20.4008 2.73269 19.5844 2.64437C19.4502 2.63005 19.3202 2.58938 19.2018 2.5247C19.0834 2.46002 18.979 2.37261 18.8945 2.26747C18.8099 2.16232 18.747 2.04153 18.7092 1.91201C18.6715 1.78249 18.6597 1.64679 18.6745 1.5127C18.6887 1.37859 18.7293 1.24862 18.7938 1.13023C18.8584 1.01184 18.9457 0.90738 19.0508 0.822837C19.1559 0.738293 19.2766 0.675337 19.406 0.637583C19.5355 0.599829 19.6711 0.588021 19.8052 0.602837C21.897 0.827734 22.8582 2.18636 22.7258 3.41149C22.5923 4.63764 21.3651 5.75904 19.2712 5.53415C18.6776 5.46945 18.3675 5.59268 18.234 5.67175C18.1282 5.73542 18.0851 5.79807 18.081 5.83298C18.0676 5.95827 18.3644 6.29099 19.1808 6.37931C21.2726 6.60523 22.2339 7.96283 22.1014 9.18796C21.9689 10.4121 20.7417 11.5355 18.6488 11.3086C18.0553 11.2449 17.7431 11.3681 17.6096 11.4462C17.5028 11.5119 17.4617 11.5735 17.4576 11.6084C17.4443 11.7327 17.741 12.0664 18.5564 12.1548C18.7583 12.1765 18.9493 12.2577 19.1051 12.388C19.2608 12.5183 19.3745 12.6919 19.4317 12.8867C19.4888 13.0816 19.4869 13.2891 19.4262 13.4829C19.3654 13.6767 19.2486 13.8481 19.0904 13.9755Z" fill="#AA8DD8"/>
<path d="M31.4868 23.4725C33.5129 22.9005 34.9106 23.8042 35.2433 24.9903C35.576 26.1754 34.8551 27.6757 32.83 28.2457C32.0393 28.4675 31.8021 28.8454 31.8339 28.9655C31.8688 29.0867 32.2703 29.2859 33.059 29.0631C35.0841 28.4931 36.4818 29.3968 36.8145 30.5819C37.1493 31.768 36.4263 33.2663 34.4002 33.8373C33.6105 34.0591 33.3722 34.438 33.4072 34.5582C33.441 34.6783 33.8415 34.8776 34.6313 34.6557C34.7623 34.6152 34.9001 34.6014 35.0365 34.615C35.173 34.6286 35.3053 34.6694 35.4258 34.735C35.5462 34.8006 35.6523 34.8897 35.7377 34.9969C35.8232 35.1042 35.8863 35.2274 35.9233 35.3595C35.9604 35.4915 35.9706 35.6296 35.9534 35.7657C35.9362 35.9017 35.8919 36.033 35.8232 36.1516C35.7544 36.2703 35.6626 36.374 35.5531 36.4566C35.4437 36.5392 35.3188 36.599 35.1858 36.6326C33.1617 37.2025 31.763 36.3009 31.4283 35.1137C31.0955 33.9287 31.8175 32.4304 33.8446 31.8594C34.6354 31.6366 34.8726 31.2597 34.8377 31.1385C34.8048 31.0184 34.4043 30.8181 33.6156 31.0399C31.5885 31.6109 30.1918 30.7093 29.8581 29.5211C29.5243 28.336 30.2463 26.8377 32.2724 26.2657C33.0611 26.0449 33.2983 25.665 33.2654 25.5459C33.2305 25.4247 32.8311 25.2255 32.0413 25.4473C31.9093 25.4917 31.7697 25.5089 31.6309 25.4977C31.492 25.4865 31.3569 25.4471 31.2338 25.3821C31.1106 25.317 31.002 25.2276 30.9145 25.1192C30.827 25.0109 30.7625 24.8858 30.7248 24.7517C30.6871 24.6176 30.6772 24.4773 30.6955 24.3392C30.7138 24.2011 30.7599 24.0682 30.8312 23.9485C30.9025 23.8289 30.9974 23.725 31.1101 23.6431C31.2228 23.5613 31.351 23.5032 31.4868 23.4725Z" fill="#77B255"/>
<path d="M23.6205 20.7029C23.4078 20.7026 23.2005 20.6363 23.027 20.5133C22.8536 20.3902 22.7226 20.2164 22.6521 20.0158C22.5816 19.8152 22.575 19.5976 22.6333 19.3931C22.6916 19.1886 22.8119 19.0072 22.9776 18.8739C23.2015 18.6942 28.5415 14.5002 36.0884 15.5795C36.2249 15.595 36.357 15.6376 36.4767 15.705C36.5965 15.7724 36.7015 15.8632 36.7855 15.9719C36.8695 16.0806 36.9309 16.205 36.966 16.3379C37.001 16.4708 37.0091 16.6093 36.9896 16.7453C36.9702 16.8813 36.9236 17.0121 36.8527 17.1298C36.7818 17.2475 36.688 17.3498 36.5769 17.4306C36.4658 17.5114 36.3395 17.569 36.2057 17.6002C36.0719 17.6313 35.9332 17.6353 35.7978 17.6118C29.1299 16.665 24.3095 20.44 24.2623 20.478C24.0801 20.6237 23.8538 20.7031 23.6205 20.7029Z" fill="#AA8DD8"/>
<path d="M5.90892 16.4309C5.74885 16.4309 5.591 16.3935 5.44796 16.3216C5.30492 16.2498 5.18065 16.1455 5.08508 16.0171C4.9895 15.8887 4.92527 15.7398 4.89749 15.5821C4.86972 15.4245 4.87918 15.2626 4.92512 15.1092C6.08863 11.2346 7.14328 5.05149 5.8473 3.43921C5.7025 3.25642 5.48377 3.07671 4.98263 3.1147C4.01937 3.18864 4.11076 5.22093 4.11179 5.24147C4.12483 5.37752 4.11059 5.5148 4.06989 5.64528C4.02919 5.77575 3.96286 5.89678 3.87478 6.00129C3.7867 6.10579 3.67865 6.19167 3.55695 6.25387C3.43525 6.31608 3.30237 6.35337 3.16607 6.36355C3.02978 6.37373 2.89283 6.35661 2.76324 6.31318C2.63365 6.26975 2.51403 6.20089 2.4114 6.11064C2.30877 6.02038 2.22518 5.91055 2.16554 5.78758C2.10591 5.6646 2.07142 5.53096 2.0641 5.39448C1.95832 3.97835 2.39887 1.25083 4.82859 1.06701C5.91302 0.984854 6.81364 1.36174 7.44931 2.15247C9.88415 5.18294 7.41234 13.9683 6.89271 15.6997C6.82912 15.9111 6.69908 16.0965 6.52187 16.2282C6.34465 16.3599 6.12971 16.431 5.90892 16.4309Z" fill="#77B255"/>
<path d="M26.1867 11.2962C27.0374 11.2962 27.7271 10.6066 27.7271 9.75582C27.7271 8.90508 27.0374 8.21543 26.1867 8.21543C25.3359 8.21543 24.6463 8.90508 24.6463 9.75582C24.6463 10.6066 25.3359 11.2962 26.1867 11.2962Z" fill="#5C913B"/>
<path d="M2.05386 20.5386C3.18817 20.5386 4.10771 19.619 4.10771 18.4847C4.10771 17.3504 3.18817 16.4309 2.05386 16.4309C0.919543 16.4309 0 17.3504 0 18.4847C0 19.619 0.919543 20.5386 2.05386 20.5386Z" fill="#9266CC"/>
<path d="M33.3752 21.5655C34.2259 21.5655 34.9156 20.8758 34.9156 20.0251C34.9156 19.1744 34.2259 18.4847 33.3752 18.4847C32.5244 18.4847 31.8348 19.1744 31.8348 20.0251C31.8348 20.8758 32.5244 21.5655 33.3752 21.5655Z" fill="#5C913B"/>
<path d="M24.1328 33.8886C24.9835 33.8886 25.6732 33.199 25.6732 32.3482C25.6732 31.4975 24.9835 30.8078 24.1328 30.8078C23.2821 30.8078 22.5924 31.4975 22.5924 32.3482C22.5924 33.199 23.2821 33.8886 24.1328 33.8886Z" fill="#5C913B"/>
<path d="M28.754 6.16157C29.8883 6.16157 30.8078 5.24203 30.8078 4.10771C30.8078 2.9734 29.8883 2.05386 28.754 2.05386C27.6197 2.05386 26.7001 2.9734 26.7001 4.10771C26.7001 5.24203 27.6197 6.16157 28.754 6.16157Z" fill="#FFCC4D"/>
<path d="M33.3752 10.2693C34.2259 10.2693 34.9156 9.57962 34.9156 8.72889C34.9156 7.87815 34.2259 7.1885 33.3752 7.1885C32.5244 7.1885 31.8348 7.87815 31.8348 8.72889C31.8348 9.57962 32.5244 10.2693 33.3752 10.2693Z" fill="#FFCC4D"/>
<path d="M30.2944 14.377C31.1451 14.377 31.8348 13.6873 31.8348 12.8366C31.8348 11.9859 31.1451 11.2962 30.2944 11.2962C29.4436 11.2962 28.754 11.9859 28.754 12.8366C28.754 13.6873 29.4436 14.377 30.2944 14.377Z" fill="#FFCC4D"/>
<path d="M7.70196 25.6732C8.5527 25.6732 9.24235 24.9835 9.24235 24.1328C9.24235 23.2821 8.5527 22.5924 7.70196 22.5924C6.85123 22.5924 6.16157 23.2821 6.16157 24.1328C6.16157 24.9835 6.85123 25.6732 7.70196 25.6732Z" fill="#FFCC4D"/>
</svg>
