<svg width="21" height="34" viewBox="0 0 21 34" fill="none" xmlns="http://www.w3.org/2000/svg">
<path opacity="0.4" d="M10.1379 33.9999C15.7369 33.9999 20.2758 31.5829 20.2758 28.6013C20.2758 25.6197 15.7369 23.2026 10.1379 23.2026C4.53889 23.2026 0 25.6197 0 28.6013C0 31.5829 4.53889 33.9999 10.1379 33.9999Z" fill="#D6D8E5"/>
<path d="M20.2757 8.95944H1.68957C1.68957 8.95944 1.75305 24.0881 1.7052 26.9587C1.69284 27.0878 1.68925 27.2175 1.69445 27.347C1.69445 27.3742 1.69445 27.3948 1.68957 27.4079H1.69738C1.77063 28.6702 2.67406 29.9194 4.41157 30.8825C8.03992 32.8941 13.9273 32.8941 17.5508 30.8872C19.2883 29.9241 20.1878 28.6749 20.265 27.4126H20.2757V8.95944Z" fill="#37B9C5"/>
<path d="M10.9826 14.0135C16.1151 14.0135 20.2757 11.6993 20.2757 8.84457C20.2757 5.98986 16.1151 3.67566 10.9826 3.67566C5.85022 3.67566 1.68957 5.98986 1.68957 8.84457C1.68957 11.6993 5.85022 14.0135 10.9826 14.0135Z" fill="#8C50FF"/>
<path d="M20.7597 9.70046C20.6618 9.94558 20.5376 10.1804 20.3892 10.4013C20.0927 10.8379 19.7293 11.2297 19.3111 11.5638C19.1876 11.6675 19.0572 11.7675 18.919 11.8656C18.6441 12.0619 18.3567 12.242 18.0585 12.4048C17.9938 12.4403 17.9301 12.4748 17.8625 12.5085C17.7301 12.5786 17.5929 12.6468 17.4528 12.7112C17.1185 12.8673 16.7667 13.0112 16.407 13.1392C16.2727 13.1878 16.1374 13.2327 15.9992 13.2775C15.6532 13.3887 15.2974 13.4859 14.9328 13.5719C14.8103 13.6018 14.6868 13.6298 14.5623 13.655C14.2056 13.731 13.8442 13.7933 13.4783 13.8419C13.3538 13.8597 13.2303 13.8765 13.1059 13.8905C12.7471 13.9323 12.3878 13.9634 12.0277 13.984C11.9042 13.9905 11.7807 13.997 11.6553 13.9998C11.2946 14.0148 10.9329 14.0167 10.5771 14.0092C10.4526 14.0092 10.3291 14.0027 10.2047 13.997C9.84202 13.9812 9.48035 13.9559 9.12064 13.9176C8.99616 13.9045 8.87169 13.8915 8.74819 13.8746C8.38358 13.8298 8.02191 13.7718 7.66514 13.7036C7.54066 13.6803 7.41619 13.6541 7.29367 13.6279C6.92449 13.5476 6.56347 13.4541 6.21062 13.3476C6.08614 13.3102 5.96069 13.271 5.83817 13.2308C5.46474 13.1075 5.10209 12.9692 4.75414 12.8159C4.62868 12.7617 4.50421 12.7047 4.38365 12.6458C4.21834 12.5661 4.05694 12.4829 3.89946 12.3963C3.68776 12.2795 3.48879 12.1599 3.29962 12.0347C3.17025 11.9515 3.04577 11.8646 2.92717 11.7759C2.52311 11.4807 2.159 11.1389 1.84314 10.7583C1.70718 10.5924 1.58371 10.4175 1.47363 10.235C0.320995 8.31842 1.12961 6.12341 3.89946 4.59839C7.8102 2.44917 14.1526 2.44917 18.0653 4.59839C19.166 5.20391 19.955 5.91409 20.4373 6.67193C20.5654 6.87241 20.6743 7.08352 20.7627 7.30268C21.0801 8.07347 21.0791 8.93038 20.7597 9.70046Z" fill="#EF990F"/>
<path d="M0.965573 8.27025C0.965573 8.22553 0.965573 5.74324 0.965573 5.74324L4.1035 7.00674L0.965573 8.27025Z" fill="#EF990F"/>
<path d="M20.9999 5.74324L20.997 8.28881L19.2005 9.64863L18.1033 7.31418L20.9999 5.74324Z" fill="#EF990F"/>
<path d="M1.93095 7.12159V10.7973C1.84214 10.6247 1.76148 10.4428 1.68957 10.253V7.12159H1.93095Z" fill="#DD8910"/>
<path d="M3.37928 8.04052V11.7162C3.29543 11.6339 3.21476 11.548 3.1379 11.4602V8.04052H3.37928Z" fill="#DD8910"/>
<path d="M4.82758 9.4189V12.6351C4.74584 12.5858 4.66474 12.5339 4.5862 12.4803V9.4189H4.82758Z" fill="#DD8910"/>
<path d="M6.27583 9.64863V13.0946C6.11449 13.0592 5.95188 13.0221 5.79307 12.9841V9.65304L6.27583 9.64863Z" fill="#DD8910"/>
<path d="M7.7241 10.1081V13.3243C7.56233 13.3029 7.40056 13.279 7.24134 13.2551V10.1081H7.7241Z" fill="#DD8910"/>
<path d="M8.93105 10.3378V14.0135C8.85038 13.9992 8.76971 13.985 8.68967 13.9667V10.3378H8.93105Z" fill="#DD8910"/>
<path d="M10.3793 10.3378V14.0135C10.2987 14.0135 10.2186 14.0066 10.138 14.0006V10.3378H10.3793Z" fill="#DD8910"/>
<path d="M12.3103 10.3378V13.9966C12.0701 14.0036 11.83 14.0105 11.5861 14.0135V10.3408L12.3103 10.3378Z" fill="#DD8910"/>
<path d="M13.2759 10.3378V13.7356C13.1146 13.7532 12.9545 13.7699 12.7931 13.7838V10.3378H13.2759Z" fill="#DD8910"/>
<path d="M14.9655 10.1081V13.2502C14.8857 13.2768 14.8053 13.3018 14.7242 13.3243V10.1081H14.9655Z" fill="#DD8910"/>
<path d="M16.4137 9.4189V12.9584C16.3342 13.0062 16.2541 13.0504 16.1723 13.0946V9.4189H16.4137Z" fill="#DD8910"/>
<path d="M17.8621 8.7297V12.4344C17.7062 12.5037 17.5445 12.5713 17.3793 12.6351V8.7297H17.8621Z" fill="#DD8910"/>
<path d="M19.3102 7.58106V11.4004C19.1582 11.5089 18.9977 11.6135 18.8275 11.7162V7.58106H19.3102Z" fill="#DD8910"/>
<path d="M20.5172 6.4324V9.60223C20.4534 9.85949 20.3725 10.106 20.2758 10.3378V6.4324H20.5172Z" fill="#DD8910"/>
<path d="M10.9828 11.027C16.5151 11.027 21 8.55852 21 5.5135C21 2.46848 16.5151 0 10.9828 0C5.45043 0 0.965573 2.46848 0.965573 5.5135C0.965573 8.55852 5.45043 11.027 10.9828 11.027Z" fill="#FCA70D"/>
<path d="M17.6548 15.4888C13.9701 17.5087 7.99638 17.5087 4.31176 15.4888L4.13918 15.3947L4.10347 15.4154V22.4882C4.17092 22.5278 4.24035 22.5673 4.31176 22.6059C7.99638 24.6267 13.9701 24.6267 17.6548 22.6059C17.7262 22.5673 17.7936 22.5268 17.8621 22.4863V15.4135L17.8254 15.3918C17.7698 15.4257 17.7133 15.4568 17.6548 15.4888Z" fill="#ECE8F9"/>
<path d="M12.5517 18.5104C9.96854 18.7062 7.23907 18.4342 5.06892 17.6891V18.4144C7.23907 19.1579 9.97154 19.4314 12.5517 19.2364V18.5104Z" fill="#FFC618"/>
<path d="M12.5517 20.1234C9.96854 20.3741 7.23907 20.0254 5.06892 19.0675V20C7.23706 20.9559 9.96854 21.3076 12.5517 21.0568V20.1234Z" fill="#FFC618"/>
<path d="M14.9654 17.9063V20.6756C15.177 20.6106 15.4424 20.5281 15.6896 20.4484V17.6891H15.6795C15.4543 17.7734 15.167 17.854 14.9654 17.9063Z" fill="#FFC618"/>
<path d="M16.4138 18.3783C15.6356 18.6973 14.8268 18.9359 14 19.0906V19.9864C14.8268 19.8317 15.6356 19.5931 16.4138 19.2741V18.3783Z" fill="#FFC618"/>
</svg>
