<svg width="22" height="26" viewBox="0 0 22 26" fill="none" xmlns="http://www.w3.org/2000/svg">
<path d="M17.0219 0.815955L17.0519 17.8568L16.2773 17.8583C15.8513 17.8592 15.5033 18.225 15.5041 18.6713L15.507 20.2942C15.5078 20.7406 15.857 21.105 16.283 21.1042L17.0577 21.1027L17.0648 25.1601C17.0656 25.6064 17.4148 25.9709 17.8409 25.97L19.3901 25.967C19.8162 25.9662 20.1641 25.6004 20.1633 25.1541L20.1562 21.0967L20.9308 21.0952C21.3569 21.0944 21.7048 20.7286 21.704 20.2823L21.7011 18.6593C21.7004 18.213 21.3511 17.8485 20.9251 17.8493L20.1505 17.8508L20.1204 0.809959C20.1196 0.363651 19.7704 -0.000837073 19.3443 -1.26044e-05L17.7951 0.00298547C17.369 0.00380994 17.0211 0.369647 17.0219 0.815955ZM9.27561 0.830945L9.28276 4.8883L8.50813 4.8898C8.08209 4.89062 7.73415 5.25646 7.73494 5.70277L7.7378 7.32571C7.73858 7.77202 8.08781 8.1365 8.51386 8.13568L9.28849 8.13418L9.31854 25.1751C9.31932 25.6214 9.66855 25.9859 10.0946 25.985L11.6439 25.982C12.0699 25.9812 12.4178 25.6154 12.417 25.1691L12.387 8.12818L13.1616 8.12668C13.5877 8.12586 13.9356 7.76002 13.9348 7.31371L13.932 5.69077C13.9312 5.24446 13.5819 4.87998 13.1559 4.8808L12.3813 4.8823L12.3741 0.824949C12.3733 0.378641 12.0241 0.0141533 11.5981 0.0149778L10.0488 0.0179758C9.62276 0.0188003 9.27482 0.384638 9.27561 0.830945ZM1.52932 0.845935L1.54792 11.3951L0.773296 11.3966C0.34725 11.3974 -0.000689064 11.7632 9.7974e-05 12.2095L0.00295993 13.8325C0.00374697 14.2788 0.352974 14.6433 0.779019 14.6424L1.55365 14.6409L1.57225 25.1901C1.57304 25.6364 1.92226 26.0008 2.34831 26L3.89757 25.997C4.32361 25.9962 4.67155 25.6304 4.67076 25.1841L4.65216 14.6349L5.42679 14.6334C5.85284 14.6326 6.20078 14.2668 6.19999 13.8205L6.19713 12.1975C6.19634 11.7512 5.84711 11.3867 5.42107 11.3876L4.64644 11.3891L4.62784 0.839939C4.62705 0.393632 4.27782 0.0291437 3.85178 0.0299681L2.30252 0.0329662C1.87647 0.0337907 1.52853 0.399628 1.52932 0.845935Z" fill="white" fill-opacity="0.9"/>
</svg>
