<svg width="28" height="15" viewBox="0 0 28 15" fill="none" xmlns="http://www.w3.org/2000/svg">
<mask id="path-1-inside-1_0_217" fill="white">
<path fill-rule="evenodd" clip-rule="evenodd" d="M20.6208 14.7584C24.6962 14.7584 28 11.4546 28 7.37921C28 3.30378 24.6962 0 20.6208 0C17.7165 0 15.2041 1.67779 14 4.11699C12.7958 1.67782 10.2835 4.60582e-05 7.37921 4.60582e-05C3.30378 4.60582e-05 0 3.30383 0 7.37925C0 11.4547 3.30378 14.7585 7.37921 14.7585C10.2835 14.7585 12.7959 13.0807 14 10.6415C15.2042 13.0806 17.7165 14.7584 20.6208 14.7584Z"/>
</mask>
<path fill-rule="evenodd" clip-rule="evenodd" d="M20.6208 14.7584C24.6962 14.7584 28 11.4546 28 7.37921C28 3.30378 24.6962 0 20.6208 0C17.7165 0 15.2041 1.67779 14 4.11699C12.7958 1.67782 10.2835 4.60582e-05 7.37921 4.60582e-05C3.30378 4.60582e-05 0 3.30383 0 7.37925C0 11.4547 3.30378 14.7585 7.37921 14.7585C10.2835 14.7585 12.7959 13.0807 14 10.6415C15.2042 13.0806 17.7165 14.7584 20.6208 14.7584Z" fill="black"/>
<path d="M14 4.11699L11.1067 5.5453L14 11.406L16.8932 5.54528L14 4.11699ZM14 10.6415L16.8932 9.21316L14 3.35245L11.1068 9.21319L14 10.6415ZM24.7734 7.37921C24.7734 9.67264 22.9142 11.5318 20.6208 11.5318V17.985C26.4782 17.985 31.2266 13.2366 31.2266 7.37921H24.7734ZM20.6208 3.22658C22.9142 3.22658 24.7734 5.08578 24.7734 7.37921H31.2266C31.2266 1.52179 26.4782 -3.22658 20.6208 -3.22658V3.22658ZM16.8932 5.54528C17.5747 4.16485 18.9912 3.22658 20.6208 3.22658V-3.22658C16.4419 -3.22658 12.8336 -0.80926 11.1067 2.68871L16.8932 5.54528ZM7.37921 3.22663C9.00882 3.22663 10.4253 4.16488 11.1067 5.5453L16.8932 2.68869C15.1664 -0.809244 11.5581 -3.22654 7.37921 -3.22654V3.22663ZM3.22658 7.37925C3.22658 5.08582 5.08578 3.22663 7.37921 3.22663V-3.22654C1.52179 -3.22654 -3.22658 1.52184 -3.22658 7.37925H3.22658ZM7.37921 11.5319C5.08578 11.5319 3.22658 9.67268 3.22658 7.37925H-3.22658C-3.22658 13.2367 1.52179 17.985 7.37921 17.985V11.5319ZM11.1068 9.21319C10.4253 10.5936 9.00883 11.5319 7.37921 11.5319V17.985C11.5581 17.985 15.1664 15.5677 16.8932 12.0697L11.1068 9.21319ZM20.6208 11.5318C18.9912 11.5318 17.5747 10.5936 16.8932 9.21316L11.1068 12.0698C12.8336 15.5677 16.4419 17.985 20.6208 17.985V11.5318Z" fill="white" mask="url(#path-1-inside-1_0_217)"/>
</svg>
