<svg width="27" height="25" viewBox="0 0 27 25" fill="none" xmlns="http://www.w3.org/2000/svg">
<path d="M11.4382 1.10579C12.1806 -0.368552 14.2855 -0.368551 15.028 1.10579L17.5823 6.17795C17.8782 6.7654 18.4428 7.17091 19.0939 7.26363L24.7377 8.06732C26.3987 8.30385 27.0557 10.3512 25.8426 11.5101L21.811 15.3614C21.3257 15.8249 21.1039 16.5001 21.2195 17.1611L22.1783 22.6395C22.4647 24.2758 20.755 25.5333 19.2783 24.7724L14.1535 22.1321C13.576 21.8345 12.8902 21.8345 12.3126 22.1321L7.18786 24.7724C5.71116 25.5333 4.00144 24.2758 4.28782 22.6395L5.24662 17.1611C5.3623 16.5 5.14044 15.8249 4.65521 15.3614L0.623576 11.5101C-0.589592 10.3512 0.0674513 8.30385 1.72844 8.06732L7.37221 7.26364C8.02338 7.17091 8.58797 6.7654 8.88381 6.17795L11.4382 1.10579Z" fill="#FFB800"/>
</svg>
