<svg width="20" height="25" viewBox="0 0 20 25" fill="none" xmlns="http://www.w3.org/2000/svg">
<g clip-path="url(#clip0_0_24)">
<g clip-path="url(#clip1_0_24)">
<path fill-rule="evenodd" clip-rule="evenodd" d="M9.84625 15.57L9.99513 15.57L10.3251 15.5709C13.1275 15.5859 19.6925 15.8407 19.6925 20.1713C19.6925 24.1864 14.3007 24.7229 10.1068 24.7431L9.36741 24.7428C6.56498 24.7278 0 24.4732 0 20.1438C0 16.0438 5.61875 15.57 9.84625 15.57ZM9.84625 17.445C4.5575 17.445 1.875 18.3538 1.875 20.1438C1.875 21.9513 4.5575 22.8688 9.84625 22.8688C15.135 22.8688 17.8175 21.96 17.8175 20.1713C17.8175 18.3612 15.135 17.445 9.84625 17.445ZM9.84625 0C13.5125 0 16.4938 2.9825 16.4938 6.6475C16.4938 10.3125 13.5125 13.295 9.84625 13.295H9.8075C8.03375 13.2888 6.37125 12.5925 5.125 11.3375C3.8775 10.0813 3.19375 8.41375 3.19996 6.64375C3.19996 2.9825 6.18125 0 9.84625 0ZM9.84625 1.875C7.21625 1.875 5.07496 4.01625 5.07496 6.6475C5.07 7.92125 5.56 9.115 6.45375 10.0163C7.34875 10.9163 8.54125 11.415 9.81125 11.42L9.84625 12.3463V11.42C12.4775 11.42 14.6188 9.27875 14.6188 6.6475C14.6188 4.01625 12.4775 1.875 9.84625 1.875Z" fill="#FFB800"/>
</g>
</g>
<defs>
<clipPath id="clip0_0_24">
<rect width="20" height="25" fill="white"/>
</clipPath>
<clipPath id="clip1_0_24">
<rect width="20" height="25" fill="white"/>
</clipPath>
</defs>
</svg>
