<svg width="39" height="39" viewBox="0 0 39 39" fill="none" xmlns="http://www.w3.org/2000/svg">
<path d="M26.632 11.8466C26.632 11.8466 27.1891 17.6088 27.6662 17.2843C29.2623 16.1985 29.6173 13.3772 29.6173 9.47822C29.6174 2.15206 20.5314 0.497021 17.3889 0.0694981C12.2368 -0.631407 12.5664 4.19704 12.1645 4.33251C5.61976 9.74587 10.6407 17.2843 10.6407 17.2843C10.6407 17.2843 11.533 8.19264 14.9203 8.39557C21.2928 12.7263 26.632 11.8466 26.632 11.8466Z" fill="#333333"/>
<path fill-rule="evenodd" clip-rule="evenodd" d="M8.97308 29.7072C8.05859 30.2801 7.44866 31.31 7.44866 32.4853C7.44866 34.2842 8.87784 35.7427 10.6409 35.7427C12.404 35.7427 13.8332 34.2842 13.8332 32.4853C13.8332 30.8304 12.624 29.4638 11.058 29.2553C11.0231 29.1279 10.9867 28.9808 10.9496 28.8158C10.8222 28.2475 10.7005 27.5266 10.61 26.786C10.5192 26.0442 10.4629 25.3086 10.4592 24.7081C10.4578 24.4881 10.4637 24.2964 10.4756 24.1356C10.8849 24.0157 11.2955 23.9077 11.705 23.8125C12.1746 23.7034 12.4526 24.269 12.6777 24.7273C12.7091 24.7911 12.7394 24.8528 12.7691 24.9104H17.0935C18.068 24.9102 18.5497 24.9103 19.037 24.9104C19.513 24.9105 19.995 24.9106 20.9468 24.9104H25.2715C25.5143 24.4396 26.0673 23.6882 26.6023 23.8125C27.173 23.9451 27.7457 24.1026 28.3144 24.2826L28.3108 24.2844C28.3096 24.2819 28.3097 24.2824 28.311 24.2859C28.316 24.3013 28.3394 24.3722 28.3626 24.5261C28.3891 24.7015 28.4075 24.9293 28.415 25.2034C28.4301 25.7511 28.4 26.4167 28.3365 27.0873C28.2729 27.7572 28.1784 28.4058 28.072 28.9176C28.0484 29.031 28.0249 29.1346 28.0018 29.2279H26.6023C26.1993 29.2279 25.8309 29.4602 25.6506 29.8281L24.5865 31.9997C24.5126 32.1504 24.4742 32.3166 24.4742 32.4853V34.6569C24.4742 35.2565 24.9505 35.7427 25.5382 35.7427H27.6664V33.5711H26.6023V32.7415L27.2599 31.3995H30.2011L30.8587 32.7415V33.5711H29.7946V35.7427H31.9228C32.5105 35.7427 32.9869 35.2565 32.9869 34.6569V32.4853C32.9869 32.3166 32.9485 32.1504 32.8745 31.9997L31.8104 29.8281C31.6302 29.4602 31.2618 29.2279 30.8587 29.2279H30.1823C30.2959 28.6494 30.3905 27.9735 30.4547 27.2965C30.5242 26.5647 30.5606 25.8052 30.5424 25.1426L30.5415 25.1128C34.7847 26.942 38.3074 29.9511 38.3074 33.1041V39.0001H0V33.1041C0 29.8116 3.8413 26.6761 8.33292 24.8771C8.34505 25.552 8.40772 26.316 8.49806 27.055C8.59564 27.8526 8.72865 28.6473 8.87518 29.3005C8.90657 29.4405 8.93924 29.5767 8.97308 29.7072ZM10.6409 33.587C11.2138 33.587 11.705 33.1087 11.705 32.4853C11.705 31.8617 11.2138 31.3835 10.6409 31.3835C10.068 31.3835 9.57684 31.8617 9.57684 32.4853C9.57684 33.1087 10.068 33.587 10.6409 33.587Z" fill="#333333"/>
<mask id="mask0_502_3505" style="mask-type:luminance" maskUnits="userSpaceOnUse" x="0" y="23" width="39" height="16">
<path fill-rule="evenodd" clip-rule="evenodd" d="M8.97308 29.7072C8.05859 30.2801 7.44866 31.31 7.44866 32.4853C7.44866 34.2842 8.87784 35.7427 10.6409 35.7427C12.404 35.7427 13.8332 34.2842 13.8332 32.4853C13.8332 30.8304 12.624 29.4638 11.058 29.2553C11.0231 29.1279 10.9867 28.9808 10.9496 28.8158C10.8222 28.2475 10.7005 27.5266 10.61 26.786C10.5192 26.0442 10.4629 25.3086 10.4592 24.7081C10.4578 24.4881 10.4637 24.2964 10.4756 24.1356C10.8849 24.0157 11.2955 23.9077 11.705 23.8125C12.1746 23.7034 12.4526 24.269 12.6777 24.7273C12.7091 24.7911 12.7394 24.8528 12.7691 24.9104H17.0935C18.068 24.9102 18.5497 24.9103 19.037 24.9104C19.513 24.9105 19.995 24.9106 20.9468 24.9104H25.2715C25.5143 24.4396 26.0673 23.6882 26.6023 23.8125C27.173 23.9451 27.7457 24.1026 28.3144 24.2826L28.3108 24.2844C28.3096 24.2819 28.3097 24.2824 28.311 24.2859C28.316 24.3013 28.3394 24.3722 28.3626 24.5261C28.3891 24.7015 28.4075 24.9293 28.415 25.2034C28.4301 25.7511 28.4 26.4167 28.3365 27.0873C28.2729 27.7572 28.1784 28.4058 28.072 28.9176C28.0484 29.031 28.0249 29.1346 28.0018 29.2279H26.6023C26.1993 29.2279 25.8309 29.4602 25.6506 29.8281L24.5865 31.9997C24.5126 32.1504 24.4742 32.3166 24.4742 32.4853V34.6569C24.4742 35.2565 24.9505 35.7427 25.5382 35.7427H27.6664V33.5711H26.6023V32.7415L27.2599 31.3995H30.2011L30.8587 32.7415V33.5711H29.7946V35.7427H31.9228C32.5105 35.7427 32.9869 35.2565 32.9869 34.6569V32.4853C32.9869 32.3166 32.9485 32.1504 32.8745 31.9997L31.8104 29.8281C31.6302 29.4602 31.2618 29.2279 30.8587 29.2279H30.1823C30.2959 28.6494 30.3905 27.9735 30.4547 27.2965C30.5242 26.5647 30.5606 25.8052 30.5424 25.1426L30.5415 25.1128C34.7847 26.942 38.3074 29.9511 38.3074 33.1041V39.0001H0V33.1041C0 29.8116 3.8413 26.6761 8.33292 24.8771C8.34505 25.552 8.40772 26.316 8.49806 27.055C8.59564 27.8526 8.72865 28.6473 8.87518 29.3005C8.90657 29.4405 8.93924 29.5767 8.97308 29.7072ZM10.6409 33.587C11.2138 33.587 11.705 33.1087 11.705 32.4853C11.705 31.8617 11.2138 31.3835 10.6409 31.3835C10.068 31.3835 9.57684 31.8617 9.57684 32.4853C9.57684 33.1087 10.068 33.587 10.6409 33.587Z" fill="white"/>
</mask>
<g mask="url(#mask0_502_3505)">
<path d="M8.97234 29.707L10.0858 31.5576L11.4339 30.7131L11.0299 29.1523L8.97234 29.707ZM11.0572 29.2551L9.00735 29.8388L9.38574 31.2226L10.7819 31.4084L11.0572 29.2551ZM10.4748 24.1353L9.88768 22.048L8.46413 22.4649L8.35261 23.9719L10.4748 24.1353ZM12.7684 24.9101L10.8853 25.9218L11.4837 27.0817H12.7684V24.9101ZM25.2707 24.9101V27.0817H26.5554L27.1539 25.9218L25.2707 24.9101ZM28.3136 24.2823L29.2654 26.2247L34.0007 23.8089L28.9442 22.2082L28.3136 24.2823ZM28.3101 24.2842L26.4073 25.2569L27.3599 27.1968L29.2617 26.2265L28.3101 24.2842ZM28.3102 24.2857L30.3836 23.7963L30.3603 23.6934L30.3273 23.5933L28.3102 24.2857ZM28.3102 24.2857L26.2367 24.7752L26.2604 24.8793L26.2939 24.9806L28.3102 24.2857ZM28.3102 24.2857L30.3273 23.5933L30.3266 23.5909L28.3102 24.2857ZM28.0011 29.2276V31.3992H29.6586L30.0645 29.7593L28.0011 29.2276ZM27.6657 35.7424V37.914H29.7939V35.7424H27.6657ZM27.6657 33.5708H29.7939V31.3992H27.6657V33.5708ZM26.6016 33.5708H24.4734V35.7424H26.6016V33.5708ZM26.6016 32.7412L24.698 31.7701L24.4734 32.2286V32.7412H26.6016ZM27.2592 31.3992V29.2276H25.944L25.3558 30.4279L27.2592 31.3992ZM30.2004 31.3992L32.1038 30.4279L31.5156 29.2276H30.2004V31.3992ZM30.858 32.7412H32.9862V32.2286L32.7615 31.7701L30.858 32.7412ZM30.858 33.5708V35.7424H32.9862V33.5708H30.858ZM29.7939 33.5708V31.3992H27.6657V33.5708H29.7939ZM29.7939 35.7424H27.6657V37.914H29.7939V35.7424ZM30.1815 29.2276L28.095 28.8004L27.5841 31.3992H30.1815V29.2276ZM30.5416 25.1424L32.669 25.0815V25.0786L30.5416 25.1424ZM30.5408 25.1125L31.3691 23.1121L28.3163 21.7959L28.4135 25.1763L30.5408 25.1125ZM38.3066 38.9998V41.1714H40.4348V38.9998H38.3066ZM-0.000732426 38.9998H-2.12892V41.1714H-0.000732426V38.9998ZM8.33218 24.8768L10.4601 24.8372L10.4043 21.7139L7.55454 22.8554L8.33218 24.8768ZM9.57611 32.485C9.57611 32.0957 9.77541 31.7521 10.0858 31.5576L7.85877 27.8563C6.3402 28.8077 5.31974 30.5238 5.31974 32.485H9.57611ZM10.6402 33.5708C10.0525 33.5708 9.57611 33.0847 9.57611 32.485H5.31974C5.31974 35.4833 7.70182 37.914 10.6402 37.914V33.5708ZM11.7043 32.485C11.7043 33.0847 11.2279 33.5708 10.6402 33.5708V37.914C13.5786 37.914 15.9607 35.4833 15.9607 32.485H11.7043ZM10.7819 31.4084C11.3018 31.4777 11.7043 31.935 11.7043 32.485H15.9607C15.9607 29.7252 13.9446 27.4495 11.3325 27.1017L10.7819 31.4084ZM13.1071 28.6714C13.0827 28.5823 13.0544 28.4687 13.0235 28.3309L8.87445 29.3002C8.91754 29.4923 8.96202 29.6729 9.00735 29.8388L13.1071 28.6714ZM13.0235 28.3309C12.915 27.8474 12.8046 27.2003 12.721 26.5169L8.49733 27.0547C8.59491 27.8523 8.72792 28.647 8.87445 29.3002L13.0235 28.3309ZM12.721 26.5169C12.637 25.8294 12.5896 25.1834 12.5866 24.6943L8.33038 24.7215C8.33474 25.4332 8.39997 26.2584 8.49733 27.0547L12.721 26.5169ZM12.5866 24.6943C12.5856 24.5182 12.5905 24.3872 12.597 24.2987L8.35261 23.9719C8.33538 24.205 8.32867 24.4577 8.33038 24.7215L12.5866 24.6943ZM11.2317 21.6949C10.7828 21.7992 10.3341 21.9172 9.88768 22.048L11.062 26.2226C11.4343 26.1135 11.8067 26.0157 12.1769 25.9297L11.2317 21.6949ZM14.5795 23.7536C14.4982 23.5883 14.2565 23.0678 13.8942 22.639C13.4905 22.1611 12.5648 21.3852 11.2317 21.6949L12.1769 25.9297C11.8211 26.0123 11.4489 25.9656 11.1339 25.8179C10.8603 25.6895 10.7126 25.5247 10.6704 25.4747C10.6249 25.421 10.6187 25.4001 10.6499 25.4557C10.6804 25.51 10.7138 25.5768 10.7746 25.7004L14.5795 23.7536ZM14.6515 23.8985C14.6335 23.8635 14.6129 23.8217 14.5795 23.7536L10.7746 25.7004C10.8039 25.76 10.8439 25.8416 10.8853 25.9218L14.6515 23.8985ZM17.0928 22.7385H12.7684V27.0817H17.0928V22.7385ZM19.0371 22.7385C18.5496 22.7384 18.0677 22.7383 17.0928 22.7385V27.0817C18.0668 27.0815 18.5487 27.0816 19.0358 27.0817L19.0371 22.7385ZM20.9461 22.7385C19.9947 22.7387 19.5129 22.7386 19.0371 22.7385L19.0358 27.0817C19.512 27.0818 19.9942 27.0819 20.9465 27.0817L20.9461 22.7385ZM25.2707 22.7385H20.9461L20.9465 27.0817H25.2707V22.7385ZM27.0742 21.6949C25.6961 21.3747 24.6984 22.2322 24.3513 22.573C23.9055 23.0105 23.5803 23.5248 23.3875 23.8985L27.1539 25.9218C27.171 25.8886 27.2007 25.8376 27.2373 25.7853C27.2546 25.7605 27.2704 25.7401 27.2833 25.7245C27.2965 25.7085 27.3032 25.702 27.302 25.7031C27.3015 25.7036 27.2861 25.7188 27.2546 25.742C27.2239 25.7645 27.1653 25.8041 27.0781 25.8442C26.8998 25.9264 26.5556 26.0287 26.129 25.9297L27.0742 21.6949ZM28.9442 22.2082C28.325 22.0122 27.6995 21.8402 27.0742 21.6949L26.129 25.9297C26.6449 26.0496 27.1649 26.1925 27.683 26.3564L28.9442 22.2082ZM29.2617 26.2265L29.2654 26.2247L27.3619 22.3399L27.3584 22.3418L29.2617 26.2265ZM30.3273 23.5933C30.3252 23.5869 30.3296 23.6001 30.3339 23.6138C30.3358 23.6199 30.3435 23.6439 30.3524 23.6749C30.3568 23.6904 30.3653 23.7208 30.3748 23.7595C30.3807 23.784 30.4037 23.8781 30.4195 24.0009C30.4265 24.056 30.4431 24.1966 30.4354 24.377C30.4334 24.4228 30.4309 25.0711 29.9506 25.6649C29.6363 26.0535 29.155 26.3672 28.5595 26.439C28.0315 26.5029 27.6208 26.3513 27.4079 26.2498C27.0202 26.0649 26.7907 25.8053 26.7488 25.7592C26.6086 25.6049 26.5224 25.4624 26.5124 25.4463C26.4838 25.4001 26.463 25.3628 26.4537 25.346C26.4343 25.3107 26.4202 25.2827 26.4171 25.2766C26.4121 25.2665 26.4083 25.2587 26.4073 25.2569L30.2128 23.3114C30.2116 23.309 30.2075 23.3006 30.2023 23.2901C30.199 23.2836 30.1846 23.2551 30.1652 23.2198C30.1558 23.2027 30.1349 23.1652 30.1062 23.1191C30.0961 23.1028 30.01 22.9602 29.8698 22.806C29.8278 22.7599 29.5983 22.5003 29.2107 22.3154C28.9977 22.2138 28.5869 22.0622 28.0589 22.126C27.4635 22.198 26.9822 22.5116 26.6679 22.9003C26.1877 23.494 26.185 24.1424 26.1831 24.1882C26.1753 24.3685 26.1919 24.5092 26.1991 24.5644C26.2148 24.6872 26.2378 24.7813 26.2438 24.806C26.2532 24.8448 26.2617 24.8754 26.2662 24.8909C26.2752 24.9224 26.283 24.9467 26.2851 24.9534C26.2881 24.963 26.2907 24.9706 26.2914 24.973C26.292 24.9746 26.2924 24.976 26.2926 24.9767C26.2929 24.9774 26.2931 24.9781 26.2931 24.9782L30.3273 23.5933ZM30.4652 24.1952C30.4223 23.9109 30.3688 23.719 30.3273 23.5933L26.2931 24.9782C26.2931 24.9782 26.2903 24.9697 26.287 24.959C26.2837 24.9485 26.2804 24.9377 26.2772 24.9268C26.2708 24.905 26.2661 24.8869 26.2627 24.8729C26.256 24.8452 26.2558 24.8382 26.2585 24.8566L30.4652 24.1952ZM30.5416 25.1424C30.5326 24.8115 30.5095 24.488 30.4652 24.1952L26.2585 24.8566C26.2673 24.9144 26.281 25.0465 26.287 25.2641L30.5416 25.1424ZM30.4539 27.2963C30.5234 26.5644 30.5598 25.8049 30.5416 25.1424L26.287 25.2641C26.2989 25.6968 26.2752 26.2684 26.2175 26.8779L30.4539 27.2963ZM30.1531 29.3681C30.2795 28.7603 30.3846 28.0289 30.4539 27.2963L26.2175 26.8779C26.1598 27.4851 26.0758 28.0509 25.9894 28.4668L30.1531 29.3681ZM30.0645 29.7593C30.095 29.636 30.1246 29.5052 30.1531 29.3681L25.9894 28.4668C25.9708 28.5563 25.9534 28.6327 25.9377 28.6958L30.0645 29.7593ZM26.6016 31.3992H28.0011V27.056H26.6016V31.3992ZM27.5533 30.799C27.3731 31.1668 27.0047 31.3992 26.6016 31.3992V27.056C25.3925 27.056 24.2871 27.7531 23.7463 28.8566L27.5533 30.799ZM26.4892 32.9706L27.5533 30.799L23.7463 28.8566L22.6822 31.0282L26.4892 32.9706ZM26.6016 32.485C26.6016 32.6535 26.5632 32.8197 26.4892 32.9706L22.6822 31.0282C22.4606 31.4805 22.3452 31.9792 22.3452 32.485H26.6016ZM26.6016 34.6566V32.485H22.3452V34.6566H26.6016ZM25.5375 33.5708C26.1252 33.5708 26.6016 34.0569 26.6016 34.6566H22.3452C22.3452 36.4555 23.7744 37.914 25.5375 37.914V33.5708ZM27.6657 33.5708H25.5375V37.914H27.6657V33.5708ZM25.5375 33.5708V35.7424H29.7939V33.5708H25.5375ZM26.6016 35.7424H27.6657V31.3992H26.6016V35.7424ZM24.4734 32.7412V33.5708H28.7298V32.7412H24.4734ZM25.3558 30.4279L24.698 31.7701L28.5052 33.7125L29.1628 32.3703L25.3558 30.4279ZM30.2004 29.2276H27.2592V33.5708H30.2004V29.2276ZM32.7615 31.7701L32.1038 30.4279L28.2968 32.3703L28.9544 33.7125L32.7615 31.7701ZM32.9862 33.5708V32.7412H28.7298V33.5708H32.9862ZM29.7939 35.7424H30.858V31.3992H29.7939V35.7424ZM31.9221 35.7424V33.5708H27.6657V35.7424H31.9221ZM31.9221 33.5708H29.7939V37.914H31.9221V33.5708ZM30.858 34.6566C30.858 34.0569 31.3344 33.5708 31.9221 33.5708V37.914C33.6852 37.914 35.1144 36.4555 35.1144 34.6566H30.858ZM30.858 32.485V34.6566H35.1144V32.485H30.858ZM30.9703 32.9706C30.8964 32.8197 30.858 32.6535 30.858 32.485H35.1144C35.1144 31.9792 34.999 31.4805 34.7774 31.0282L30.9703 32.9706ZM29.9063 30.799L30.9703 32.9706L34.7774 31.0282L33.7133 28.8566L29.9063 30.799ZM30.858 31.3992C30.4549 31.3992 30.0865 31.1668 29.9063 30.799L33.7133 28.8566C33.1725 27.7531 32.0671 27.056 30.858 27.056V31.3992ZM30.1815 31.3992H30.858V27.056H30.1815V31.3992ZM28.3358 27.087C28.2771 27.7046 28.192 28.3065 28.095 28.8004L32.2681 29.6546C32.3985 28.9919 32.5024 28.2419 32.5722 27.5054L28.3358 27.087ZM28.4143 25.2032C28.4294 25.7509 28.3993 26.4165 28.3358 27.087L32.5722 27.5054C32.6475 26.7126 32.6904 25.8589 32.669 25.0815L28.4143 25.2032ZM28.4135 25.1763L28.4144 25.2061L32.669 25.0786L32.6681 25.0488L28.4135 25.1763ZM40.4348 33.1038C40.4348 30.685 39.0991 28.6144 37.4847 27.0412C35.8395 25.4381 33.6591 24.0994 31.3691 23.1121L29.7125 27.1129C31.6656 27.9549 33.3681 29.0353 34.5451 30.1822C35.7528 31.3591 36.1784 32.3696 36.1784 33.1038H40.4348ZM40.4348 38.9998V33.1038H36.1784V38.9998H40.4348ZM-0.000732426 41.1714H38.3066V36.8282H-0.000732426V41.1714ZM-2.12892 33.1038V38.9998H2.12745V33.1038H-2.12892ZM7.55454 22.8554C5.13288 23.8253 2.80612 25.1842 1.04502 26.8279C-0.677134 28.4352 -2.12892 30.5803 -2.12892 33.1038H2.12745C2.12745 32.3348 2.59633 31.266 3.91773 30.0326C5.20013 28.8357 7.03995 27.7272 9.10982 26.8982L7.55454 22.8554ZM6.20442 24.9163C6.21815 25.6886 6.28881 26.5322 6.38553 27.3235L10.6092 26.7857C10.5252 26.0991 10.4704 25.4147 10.4601 24.8372L6.20442 24.9163ZM6.38553 27.3235C6.49013 28.1784 6.63432 29.0468 6.79989 29.7849L10.9489 28.8155C10.8214 28.2472 10.6998 27.5264 10.6092 26.7857L6.38553 27.3235ZM6.79989 29.7849C6.83586 29.9448 6.87406 30.1047 6.91471 30.2617L11.0299 29.1523C11.003 29.0482 10.9759 28.9356 10.9489 28.8155L6.79989 29.7849ZM9.57611 32.485C9.57611 31.9001 10.0467 31.4152 10.6402 31.4152V35.7583C12.3796 35.7583 13.8325 34.3168 13.8325 32.485H9.57611ZM10.6402 33.5548C10.0467 33.5548 9.57611 33.0698 9.57611 32.485H13.8325C13.8325 30.653 12.3796 29.2116 10.6402 29.2116V33.5548ZM11.7043 32.485C11.7043 33.0698 11.2338 33.5548 10.6402 33.5548V29.2116C8.90084 29.2116 7.44792 30.653 7.44792 32.485H11.7043ZM10.6402 31.4152C11.2338 31.4152 11.7043 31.9001 11.7043 32.485H7.44792C7.44792 34.3168 8.90084 35.7583 10.6402 35.7583V31.4152Z" fill="#333333"/>
</g>
</svg>
