<svg width="49" height="45" viewBox="0 0 49 45" fill="none" xmlns="http://www.w3.org/2000/svg">
<circle cx="22.5" cy="22.5" r="22.5" fill="#5F6A6E"/>
<path d="M43.3991 21.0107L43.0574 21.5842C42.9323 21.7969 42.6707 21.8822 42.44 21.794C41.9625 21.6094 41.5267 21.3485 41.1448 21.0236C40.9598 20.8673 40.9148 20.5957 41.0399 20.3871L41.3816 19.8136C41.1055 19.4861 40.8912 19.107 40.7505 18.6965L40.0793 18.6871C39.8352 18.6837 39.6261 18.5069 39.5889 18.2637C39.5144 17.7773 39.5175 17.2677 39.6101 16.7634C39.6542 16.5214 39.8683 16.3464 40.1124 16.3498L40.7836 16.3592C40.9359 15.9529 41.1609 15.5799 41.4462 15.2603L41.1208 14.6774C41.0017 14.4654 41.0503 14.1951 41.2437 14.0441C41.6347 13.7301 42.0817 13.4815 42.5602 13.3103C42.7933 13.2286 43.0524 13.3212 43.1714 13.5373L43.4968 14.1202C43.925 14.0493 44.3603 14.0554 44.7864 14.1382L45.1282 13.5647C45.2533 13.352 45.5149 13.2667 45.7456 13.3549C46.2231 13.5395 46.6588 13.8004 47.0408 14.1253C47.2257 14.2816 47.2707 14.5532 47.1457 14.7618L46.8039 15.3353C47.08 15.6628 47.2944 16.0419 47.435 16.4524L48.1063 16.4618C48.3504 16.4652 48.5594 16.642 48.5967 16.8852C48.6712 17.3716 48.668 17.8812 48.5754 18.3855C48.5313 18.6275 48.3172 18.8025 48.0731 18.799L47.4019 18.7896C47.2497 19.196 47.0247 19.569 46.7394 19.8886L47.0648 20.4715C47.1838 20.6835 47.1352 20.9538 46.9419 21.1048C46.5509 21.4188 46.1038 21.6673 45.6253 21.8386C45.3922 21.9203 45.1331 21.8277 45.0141 21.6116L44.6887 21.0287C44.2646 21.0996 43.8252 21.0935 43.3991 21.0107ZM43.0057 18.627C44.555 19.8459 46.366 18.0957 45.1839 16.522C43.6347 15.2991 41.8236 17.0533 43.0057 18.627ZM38.2269 24.7846L39.5883 25.4831C39.9958 25.7234 40.1678 26.2233 39.9988 26.6658C39.6228 27.6393 38.8982 28.5271 38.228 29.3023C37.9219 29.658 37.3999 29.7397 36.9923 29.4994L35.8182 28.8035C35.1594 29.3483 34.3965 29.7785 33.5666 30.054L33.5473 31.4127C33.5407 31.8818 33.1973 32.2815 32.7324 32.3558C31.7292 32.5117 30.6795 32.505 29.6447 32.3126C29.178 32.2252 28.8379 31.82 28.8446 31.3469L28.8638 29.9882C28.0421 29.6855 27.2916 29.2382 26.6486 28.6751L25.4552 29.3338C25.0451 29.5626 24.5215 29.4663 24.2256 29.1022C23.5777 28.3085 22.8948 27.4011 22.5465 26.4215C22.39 25.9784 22.5761 25.4835 22.9903 25.2507L24.3546 24.5903C24.208 23.743 24.2203 22.8736 24.391 22.0266L23.046 21.3243C22.6384 21.084 22.4624 20.584 22.6354 20.1456C23.0114 19.1721 23.7197 18.2841 24.3899 17.5089C24.696 17.1532 25.218 17.0715 25.6256 17.3118L26.7998 18.0077C27.4585 17.4629 28.2214 17.0327 29.0513 16.7572L29.0707 15.3944C29.0772 14.9294 29.4166 14.5297 29.8815 14.4553C30.8846 14.2995 31.9384 14.3062 32.9733 14.4946C33.44 14.582 33.7801 14.9872 33.7734 15.4603L33.7542 16.819C34.5759 17.1217 35.3263 17.569 35.9694 18.1321L37.1628 17.4693C37.573 17.2405 38.0965 17.3368 38.3924 17.7009C39.0404 18.4946 39.7192 19.402 40.0674 20.3856C40.2239 20.8287 40.0582 21.3238 39.6439 21.5567L38.2633 22.2168C38.41 23.0682 38.3976 23.9376 38.2269 24.7846ZM33.4307 25.5708C35.8832 22.4909 32.3577 18.8864 29.1913 21.2364C26.7389 24.3163 30.2644 27.9208 33.4307 25.5708ZM43.2279 33.0973L42.8861 33.6709C42.761 33.8835 42.4994 33.9688 42.2687 33.8807C41.7912 33.696 41.3554 33.4351 40.9735 33.1103C40.7885 32.954 40.7436 32.6824 40.8686 32.4738L41.2104 31.9002C40.9342 31.5728 40.7199 31.1936 40.5792 30.7832L39.908 30.7738C39.6639 30.7704 39.4548 30.5935 39.4176 30.3503C39.3431 29.8639 39.3462 29.3544 39.4388 28.8501C39.483 28.6081 39.697 28.4331 39.9411 28.4365L40.6124 28.4459C40.7646 28.0395 40.9896 27.6666 41.2749 27.347L40.9495 26.7641C40.8304 26.5521 40.879 26.2818 41.0724 26.1308C41.4634 25.8168 41.9104 25.5682 42.3889 25.397C42.622 25.3153 42.8811 25.4079 43.0001 25.6239L43.3255 26.2068C43.7537 26.136 44.189 26.1421 44.6151 26.2249L44.9569 25.6513C45.082 25.4387 45.3436 25.3534 45.5743 25.4416C46.0518 25.6262 46.4875 25.8871 46.8695 26.212C47.0544 26.3683 47.0994 26.6399 46.9744 26.8484L46.6326 27.422C46.9087 27.7494 47.1231 28.1286 47.2637 28.539L47.935 28.5484C48.1791 28.5519 48.3881 28.7287 48.4254 28.9719C48.4999 29.4583 48.4967 29.9679 48.4041 30.4721C48.36 30.7142 48.1459 30.8891 47.9019 30.8857L47.2306 30.8763C47.0784 31.2827 46.8534 31.6557 46.5681 31.9752L46.8935 32.5582C47.0125 32.7701 46.9639 33.0404 46.7706 33.1914C46.3796 33.5055 45.9325 33.754 45.454 33.9253C45.2209 34.0069 44.9619 33.9143 44.8428 33.6983L44.5175 33.1154C44.0933 33.1863 43.6539 33.1801 43.2279 33.0973ZM42.8345 30.7096C44.3837 31.9285 46.1948 30.1783 45.0127 28.6046C43.4634 27.3857 41.6524 29.1359 42.8345 30.7096Z" fill="white"/>
</svg>
