<svg width="25" height="25" viewBox="0 0 25 25" fill="none" xmlns="http://www.w3.org/2000/svg">
<path d="M14.2964 22.7635C14.1135 23.0794 13.8507 23.3418 13.5344 23.5241C13.2181 23.7065 12.8595 23.8025 12.4944 23.8025C12.1293 23.8025 11.7706 23.7065 11.4543 23.5241C11.138 23.3418 10.8752 23.0794 10.6923 22.7635M18.7444 9.63847C18.7444 7.87076 18.086 6.17493 16.9141 4.92493C15.7412 3.67493 14.1506 2.9718 12.4944 2.9718C10.8371 2.9718 9.24747 3.67389 8.07455 4.92493C6.90268 6.17493 6.24434 7.87076 6.24434 9.63847C6.24434 17.4166 -1.71088 17.3538 3.11934 19.6385C6.12158 21.0585 12.4944 21.2469 12.4944 21.2469C12.4944 21.2469 18.8671 21.0585 21.8694 19.6385C26.6996 17.3538 18.7444 17.4166 18.7444 9.63847Z" stroke="black" stroke-width="2" stroke-linecap="round" stroke-linejoin="round"/>
</svg>
