<svg width="14" height="14" viewBox="0 0 14 14" fill="none" xmlns="http://www.w3.org/2000/svg">
<path d="M10.5002 1.74996C10.8096 1.74996 11.1063 1.87288 11.3251 2.09167C11.5439 2.31046 11.6668 2.60721 11.6668 2.91663C11.6668 3.38913 11.3752 3.79163 10.9843 3.97829L9.91683 7.67079V10.5H4.0835V7.67079L3.016 3.97829C2.62516 3.79163 2.3335 3.38913 2.3335 2.91663C2.3335 2.60721 2.45641 2.31046 2.6752 2.09167C2.894 1.87288 3.19074 1.74996 3.50016 1.74996C3.80958 1.74996 4.10633 1.87288 4.32512 2.09167C4.54391 2.31046 4.66683 2.60721 4.66683 2.91663C4.66683 3.20829 4.56183 3.47079 4.37516 3.67496L6.0085 5.45413L6.31766 3.27829C6.026 3.06829 5.8335 2.72413 5.8335 2.33329C5.8335 2.02387 5.95641 1.72713 6.1752 1.50833C6.394 1.28954 6.69074 1.16663 7.00016 1.16663C7.30958 1.16663 7.60633 1.28954 7.82512 1.50833C8.04391 1.72713 8.16683 2.02387 8.16683 2.33329C8.16683 2.72413 7.97433 3.06829 7.68266 3.27829L7.99183 5.45413L9.60766 3.66913C9.43034 3.4585 9.33323 3.19195 9.3335 2.91663C9.3335 2.60721 9.45641 2.31046 9.6752 2.09167C9.894 1.87288 10.1907 1.74996 10.5002 1.74996ZM2.91683 11.6666H11.0835V12.8333H2.91683V11.6666Z" fill="white"/>
</svg>
