<svg width="44" height="42" viewBox="0 0 44 42" fill="none" xmlns="http://www.w3.org/2000/svg">
<path d="M18.2332 2.26169C19.7215 -0.753899 24.0216 -0.753898 25.5099 2.26169L29.1254 9.58751C29.7164 10.785 30.8588 11.615 32.1803 11.807L40.2648 12.9818C43.5927 13.4654 44.9215 17.555 42.5135 19.9023L36.6634 25.6047C35.7072 26.5368 35.2708 27.8798 35.4966 29.196L36.8776 37.2478C37.446 40.5623 33.9672 43.0898 30.9906 41.525L23.7596 37.7234C22.5776 37.102 21.1655 37.102 19.9835 37.7234L12.7525 41.525C9.77591 43.0898 6.29703 40.5623 6.8655 37.2478L8.2465 29.196C8.47225 27.8798 8.03589 26.5368 7.07963 25.6047L1.22962 19.9023C-1.17848 17.555 0.150339 13.4654 3.47824 12.9818L11.5628 11.807C12.8843 11.615 14.0267 10.785 14.6177 9.58751L18.2332 2.26169Z" fill="#FB8A4A"/>
</svg>
