<svg width="22" height="23" viewBox="0 0 22 23" fill="none" xmlns="http://www.w3.org/2000/svg">
<path d="M21.9558 11.5C21.9558 17.8513 17.0408 23 10.9779 23C4.91495 23 0 17.8513 0 11.5C0 5.14871 4.91495 0 10.9779 0C17.0408 0 21.9558 5.14871 21.9558 11.5ZM9.70807 17.5892L17.853 9.0569C18.1295 8.76717 18.1295 8.29739 17.853 8.00766L16.8514 6.95842C16.5748 6.66865 16.1263 6.66865 15.8497 6.95842L9.20725 13.9168L6.10605 10.6681C5.82947 10.3783 5.38102 10.3783 5.1044 10.6681L4.1028 11.7173C3.82623 12.007 3.82623 12.4768 4.1028 12.7665L8.70643 17.5891C8.98305 17.8789 9.43146 17.8789 9.70807 17.5892Z" fill="#43C12F"/>
</svg>
