<svg width="22" height="24" viewBox="0 0 22 24" fill="none" xmlns="http://www.w3.org/2000/svg">
<path d="M17.2857 14.8824C16.1755 14.8824 15.1551 15.246 14.3496 15.8541L9.3168 12.8751C9.46584 12.2367 9.46584 11.5751 9.3168 10.9366L14.3496 7.95759C15.1551 8.56577 16.1755 8.92941 17.2857 8.92941C19.8893 8.92941 22 6.93048 22 4.46471C22 1.99893 19.8893 0 17.2857 0C14.6821 0 12.5714 1.99893 12.5714 4.46471C12.5714 4.79761 12.6102 5.12185 12.6832 5.43397L7.6504 8.41295C6.8449 7.80482 5.8245 7.44118 4.71429 7.44118C2.11067 7.44118 0 9.44011 0 11.9059C0 14.3717 2.11067 16.3706 4.71429 16.3706C5.8245 16.3706 6.8449 16.0069 7.6504 15.3988L12.6832 18.3778C12.6088 18.6961 12.5713 19.0211 12.5714 19.3471C12.5714 21.8128 14.6821 23.8118 17.2857 23.8118C19.8893 23.8118 22 21.8128 22 19.3471C22 16.8813 19.8893 14.8824 17.2857 14.8824Z" fill="white"/>
</svg>
