<svg width="73" height="77" viewBox="0 0 73 77" fill="none" xmlns="http://www.w3.org/2000/svg">
<path d="M29.3345 59.6068C29.4989 59.1825 29.9071 58.9029 30.3622 58.9029H49.7105C50.1543 58.9029 50.5549 59.1692 50.7267 59.5785L52.6644 64.1953C55.103 70.0055 50.836 76.4241 44.5348 76.4241H35.6901C29.4935 76.4241 25.2303 70.2003 27.4689 64.4223L29.3345 59.6068Z" fill="black"/>
<path d="M28.5362 58.0961C28.5362 56.821 29.6947 55.8622 30.9531 56.0681C37.4293 57.1278 41.8941 57.135 48.3665 56.0715C49.6269 55.8645 50.7883 56.8242 50.7883 58.1014C50.7883 59.0759 50.0982 59.917 49.1392 60.0899C42.0726 61.3641 37.4355 61.3684 30.1912 60.0851C29.2295 59.9147 28.5362 59.0728 28.5362 58.0961Z" fill="#D1532A"/>
<path d="M18.1181 0.0233027C11.7897 0.548093 13.1547 16.423 14.6282 24.2948C5.71458 34.3558 10.4193 45.7394 14.6282 49.5756C27.8245 61.6046 50.5491 57.3098 56.74 54.6889C77.4003 45.9424 71.2425 30.7818 65.5811 24.2948C69.1176 9.25086 68.5343 3.68525 63.9525 1.55394C57.9963 -0.37029 49.3724 7.89515 45.8049 12.2684C42.0823 10.869 37.4291 11.6853 35.5678 12.2684C32.3881 7.96804 24.4465 -0.501487 18.1181 0.0233027Z" fill="black"/>
<path d="M38.3904 9.39512C39.2395 9.88917 40.8893 11.6297 40.6952 14.6396" stroke="black" stroke-width="2.74893" stroke-linecap="round"/>
<path d="M42.3026 6.86018C42.5944 7.75782 43.9682 12.4931 41.7107 14.6357" stroke="black" stroke-width="2.74893" stroke-linecap="round"/>
<path d="M14.9551 47.0757C14.2844 48.021 12.7755 50.1482 12.105 51.0935" stroke="black" stroke-width="2.74893" stroke-linecap="round"/>
<path d="M13.985 45.3261C12.7866 45.476 10.0902 45.8133 8.89184 45.9632" stroke="black" stroke-width="2.74893" stroke-linecap="round"/>
<path d="M17.4546 49.0846C17.3497 50.2166 17.1136 52.7634 17.0087 53.8953" stroke="black" stroke-width="2.74893" stroke-linecap="round"/>
<path d="M65.6569 46.5064C66.4183 47.3957 68.1316 49.3966 68.893 50.2858" stroke="black" stroke-width="2.74893" stroke-linecap="round"/>
<path d="M66.4491 44.6804C67.6571 44.731 70.3752 44.8448 71.5832 44.8954" stroke="black" stroke-width="2.74893" stroke-linecap="round"/>
<path d="M63.3501 48.7399C63.5748 49.8577 64.0805 52.3728 64.3052 53.4906" stroke="black" stroke-width="2.74893" stroke-linecap="round"/>
<ellipse cx="28.444" cy="34.4945" rx="9.78259" ry="11.1501" fill="white"/>
<ellipse cx="31.109" cy="37.7158" rx="4.23186" ry="3.97008" fill="#010101"/>
<ellipse cx="52.1716" cy="34.4945" rx="9.78259" ry="11.1501" fill="white"/>
<ellipse cx="50.1524" cy="37.7158" rx="4.23186" ry="3.97008" fill="#010101"/>
<path fill-rule="evenodd" clip-rule="evenodd" d="M39.8729 63.7759C41.2084 63.6751 42.2588 62.6245 42.2588 61.3434C42.2588 59.9955 41.0962 58.9029 39.6621 58.9029C38.228 58.9029 37.0654 59.9955 37.0654 61.3434C37.0654 62.6245 38.1157 63.675 39.4512 63.7759V62.4109C39.2309 62.3312 39.0746 62.1305 39.0746 61.8954C39.0746 61.5905 39.3376 61.3434 39.662 61.3434C39.9865 61.3434 40.2495 61.5905 40.2495 61.8954C40.2495 62.1305 40.0932 62.3312 39.8729 62.4109V63.7759Z" fill="#F7B534"/>
<path d="M53.1891 62.5421C53.755 68.424 51.1592 70.1336 49.7906 70.2531L48.2141 76.2054C57.3003 75.0058 60.4397 66.8723 60.8736 62.9555C61.0719 61.7359 60.6028 59.2627 57.1403 59.1272C53.6778 58.9917 53.0635 61.3473 53.1891 62.5421Z" fill="black"/>
<g clip-path="url(#clip0_436_2988)">
<path d="M1.25139 31.646C0.560268 30.1399 1.24561 28.4159 2.78214 27.7953L6.37325 26.345C7.90978 25.7244 9.71566 26.4423 10.4068 27.9484L23.3823 56.2248L14.2269 59.9224L1.25139 31.646Z" fill="#D9D9D9"/>
<rect width="9.85137" height="6.74006" transform="matrix(0.929352 -0.375334 0.418019 0.910951 0 28.9189)" fill="#FF005B"/>
<rect width="5.23813" height="23.7517" transform="matrix(0.929352 -0.375334 0.418019 0.910951 4.33482 38.3651)" fill="#0ED6E5"/>
<rect width="4.86392" height="23.7517" transform="matrix(0.929352 -0.375334 0.418019 0.910951 9.2026 36.399)" fill="#06BFC4"/>
</g>
<path d="M11.3963 53.7537L19.1053 50.6403L20.5084 60.475C20.5302 60.628 20.4983 60.7831 20.4189 60.9139C20.0335 61.5482 19.2578 61.8625 18.503 61.6841C18.3515 61.6483 18.2147 61.566 18.1132 61.4498L11.3963 53.7537Z" fill="#F9D6A2"/>
<path fill-rule="evenodd" clip-rule="evenodd" d="M17.0706 60.3011L18.0926 61.4721C18.1941 61.5883 18.3309 61.6706 18.4824 61.7064C19.2372 61.8849 20.0129 61.5705 20.3982 60.9363C20.4777 60.8055 20.5096 60.6504 20.4878 60.4974L20.2751 59.0069L17.0706 60.3011Z" fill="#3F060D"/>
<ellipse cx="5.25805" cy="5.03243" rx="5.25805" ry="5.03243" transform="matrix(0.929352 -0.375334 0.418019 0.910951 4.84135 49.2945)" fill="black"/>
<path d="M30.4834 54.7807L29.803 56.358L41.6097 58.7982H45.5319C44.7982 58.4102 42.9865 57.4615 41.6097 56.7707C40.233 56.0798 33.6186 55.1562 30.4834 54.7807Z" fill="#EFEAEA"/>
<path d="M47.9552 56.8139C47.097 57.0475 45.9823 58.037 45.5322 58.5026L46.7503 58.7977L58.235 54.6003L58.8251 52.7224C58.8492 52.6457 58.7367 52.5745 58.6705 52.6201C58.3984 52.8079 58.0957 52.8998 57.8886 52.9825C54.935 54.1623 48.8133 56.5803 47.9552 56.8139Z" fill="#EFEAEA"/>
<path d="M43.5394 58.1758L28.4397 55.1698C27.7985 55.0421 27.277 55.6855 27.0964 56.0231L23.0142 64.922C22.4248 67.104 23.2598 67.8479 23.751 67.9472L37.6619 70.7389C39.6983 71.6268 41.9284 70.9519 42.7888 70.5034L55.8392 66.0636L58.9323 57.9518L58.9517 57.9069C59.3344 57.0215 60.1317 55.1767 60.0581 54.3482C59.9833 53.5055 59.0496 53.5114 58.5921 53.6197C54.9383 54.9876 47.4364 57.814 46.6597 58.1758C45.8829 58.5377 44.2558 58.3266 43.5394 58.1758Z" fill="#06BFC4"/>
<path d="M27.25 56.9832L22.9694 66.2265C22.5982 67.0281 23.2842 67.7204 23.5155 67.8627L37.6098 70.7279L42.8489 59.1661C38.7121 58.3754 30.1629 56.7132 29.0598 56.3898C27.9566 56.0664 27.3936 56.6506 27.25 56.9832Z" fill="#0ED6E5"/>
<path d="M42.3809 70.6185L47.5925 59.2639C50.9393 57.9666 57.8835 55.2729 58.8864 54.8773C59.8893 54.4817 60.0041 55.0422 59.9361 55.3719L55.7187 66.0834L42.3809 70.6185Z" fill="#0ED6E5"/>
<ellipse cx="5.25805" cy="5.03243" rx="5.25805" ry="5.03243" transform="matrix(0.929352 -0.375334 0.418019 0.910951 49.9661 60.6368)" fill="black"/>
<defs>
<clipPath id="clip0_436_2988">
<path d="M1.25139 31.646C0.560268 30.1399 1.24561 28.4159 2.78214 27.7953L4.92684 26.9291C6.46337 26.3086 8.26925 27.0265 8.96037 28.5326L19.1052 50.6403L11.3962 53.7537L1.25139 31.646Z" fill="white"/>
</clipPath>
</defs>
</svg>
