<svg width="20" height="26" viewBox="0 0 20 26" fill="none" xmlns="http://www.w3.org/2000/svg">
<path d="M9.89571 13.7719C10.3453 13.7719 10.6876 13.909 10.9328 14.1832C11.4232 14.7367 11.4335 15.8438 10.9226 16.4227C10.6722 16.707 10.3146 16.8543 9.84462 16.8543H8.47036V13.7719H9.89571ZM19.2601 5.33204L14.2535 0.355469C14.0236 0.126953 13.712 0 13.385 0H13.0785V6.50001H19.6177V6.19024C19.6177 5.87032 19.49 5.56055 19.2601 5.33204ZM11.4437 6.90626V0H1.22611C0.54664 0 0 0.54336 0 1.21875V24.7813C0 25.4567 0.54664 26 1.22611 26H18.3916C19.0711 26 19.6177 25.4567 19.6177 24.7813V8.12501H12.6698C11.9954 8.12501 11.4437 7.57657 11.4437 6.90626ZM14.1513 15.2953C14.1513 19.8809 9.61473 19.236 8.47547 19.236V22.1406C8.47547 22.4758 8.19959 22.75 7.86241 22.75H6.28891C5.95173 22.75 5.67586 22.4758 5.67586 22.1406V11.9945C5.67586 11.6594 5.95173 11.3852 6.28891 11.3852H10.427C12.7004 11.3852 14.1513 13.0508 14.1513 15.2953Z" fill="white"/>
</svg>
