<svg width="25" height="25" viewBox="0 0 25 25" fill="none" xmlns="http://www.w3.org/2000/svg">
<g clip-path="url(#clip0_410_1844)">
<path d="M12.4998 11.8056C13.4612 11.8056 14.4011 11.5205 15.2005 10.9864C15.9999 10.4522 16.6229 9.693 16.9909 8.80475C17.3588 7.9165 17.4551 6.93909 17.2675 5.99613C17.0799 5.05317 16.6169 4.187 15.9371 3.50716C15.2573 2.82732 14.3911 2.36435 13.4481 2.17678C12.5052 1.98921 11.5278 2.08548 10.6395 2.45341C9.75126 2.82133 8.99206 3.44439 8.45792 4.2438C7.92377 5.0432 7.63867 5.98305 7.63867 6.94449C7.63867 8.23373 8.15082 9.47017 9.06246 10.3818C9.97409 11.2934 11.2105 11.8056 12.4998 11.8056ZM12.4998 3.47226C13.1865 3.47226 13.8578 3.67591 14.4288 4.05744C14.9998 4.43897 15.4449 4.98126 15.7077 5.61572C15.9705 6.25019 16.0393 6.94834 15.9053 7.62188C15.7713 8.29543 15.4406 8.91412 14.955 9.39972C14.4694 9.88532 13.8507 10.216 13.1772 10.35C12.5036 10.484 11.8055 10.4152 11.171 10.1524C10.5366 9.8896 9.99427 9.44455 9.61274 8.87355C9.2312 8.30254 9.02756 7.63123 9.02756 6.94449C9.02756 6.0236 9.39338 5.14042 10.0446 4.48925C10.6957 3.83809 11.5789 3.47226 12.4998 3.47226Z" fill="black"/>
<path d="M21.1597 16.9236C20.046 15.7465 18.7039 14.8089 17.2156 14.1681C15.7272 13.5274 14.1238 13.1969 12.5034 13.1969C10.883 13.1969 9.27959 13.5274 7.79123 14.1681C6.30288 14.8089 4.96084 15.7465 3.84717 16.9236C3.60572 17.1815 3.47162 17.5217 3.47217 17.8749V21.5277C3.47217 21.8961 3.6185 22.2493 3.87897 22.5098C4.13943 22.7703 4.4927 22.9166 4.86106 22.9166H20.1388C20.5072 22.9166 20.8604 22.7703 21.1209 22.5098C21.3814 22.2493 21.5277 21.8961 21.5277 21.5277V17.8749C21.5301 17.5226 21.3986 17.1825 21.1597 16.9236ZM20.1388 18.9121C20.1388 20.3567 18.9678 21.5277 17.5232 21.5277H7.47668C6.03211 21.5277 4.86106 20.3567 4.86106 18.9121C4.86106 18.2418 5.10892 17.5858 5.61637 17.1477C6.43114 16.4445 7.35048 15.8688 8.34325 15.4425C9.65649 14.8786 11.0707 14.5878 12.4999 14.5878C13.9291 14.5878 15.3434 14.8786 16.6566 15.4425C17.6494 15.8688 18.5687 16.4445 19.3835 17.1477C19.891 17.5858 20.1388 18.2417 20.1388 18.9121Z" fill="black"/>
</g>
<defs>
<clipPath id="clip0_410_1844">
<rect width="25" height="25" fill="white"/>
</clipPath>
</defs>
</svg>
