<svg width="22" height="25" viewBox="0 0 22 25" fill="none" xmlns="http://www.w3.org/2000/svg">
<path d="M20.723 18.3716L20.7226 18.3712C20.6697 18.3144 20.6118 18.2536 20.5496 18.1885C20.0937 17.7105 19.4111 16.995 18.85 15.8589C18.2095 14.562 17.7461 12.7742 17.7461 10.1562C17.7461 6.86213 15.4445 4.21328 12.2957 3.55918L11.4991 3.39369V2.58008V1.5625C11.4991 1.25138 11.2469 1 10.9375 1C10.6281 1 10.376 1.25138 10.376 1.5625V2.58008V3.39369L9.5794 3.55918C6.4306 4.21328 4.12894 6.86213 4.12894 10.1562C4.12894 12.7742 3.66558 14.562 3.02507 15.8589C2.46402 16.995 1.78141 17.7105 1.32549 18.1885C1.26337 18.2536 1.20545 18.3143 1.15263 18.371L20.723 18.3716ZM20.723 18.3716C20.8361 18.493 20.8759 18.6213 20.8751 18.7434L20.8751 18.7439M20.723 18.3716L20.8751 18.7439M20.8751 18.7439C20.8732 19.0546 20.6334 19.3125 20.3077 19.3125H1.56742C1.24224 19.3125 1.00215 19.0551 1.00001 18.7434L20.8751 18.7439ZM12.8117 22.875C12.4541 23.5446 11.7486 24 10.9375 24C10.1265 24 9.42099 23.5446 9.06339 22.875H12.8117ZM1.00001 18.7433C0.999228 18.6218 1.03867 18.4936 1.15248 18.3712L1.00001 18.7433Z" fill="white" stroke="#9F8F8F" stroke-width="2"/>
</svg>
