<svg width="17" height="14" viewBox="0 0 17 14" fill="none" xmlns="http://www.w3.org/2000/svg">
<path fill-rule="evenodd" clip-rule="evenodd" d="M0 0.772727C0 0.345962 0.345962 0 0.772727 0H16.2273C16.654 0 17 0.345962 17 0.772727C17 1.19949 16.654 1.54545 16.2273 1.54545H0.772727C0.345962 1.54545 0 1.19949 0 0.772727ZM0 6.95455C0 6.52778 0.345962 6.18182 0.772727 6.18182H16.2273C16.654 6.18182 17 6.52778 17 6.95455C17 7.38131 16.654 7.72727 16.2273 7.72727H0.772727C0.345962 7.72727 0 7.38131 0 6.95455ZM0.772727 12.3636C0.345962 12.3636 0 12.7096 0 13.1364C0 13.5631 0.345962 13.9091 0.772727 13.9091H16.2273C16.654 13.9091 17 13.5631 17 13.1364C17 12.7096 16.654 12.3636 16.2273 12.3636H0.772727Z" fill="#1B141F"/>
</svg>
