<svg width="14" height="14" viewBox="0 0 14 14" fill="none" xmlns="http://www.w3.org/2000/svg">
<path d="M2.33333 9.33329C3.622 9.33329 4.66667 8.28862 4.66667 6.99996C4.66667 5.71129 3.622 4.66663 2.33333 4.66663C1.04467 4.66663 0 5.71129 0 6.99996C0 8.28862 1.04467 9.33329 2.33333 9.33329Z" fill="#1D1617"/>
<path d="M11.6668 14C12.9555 14 14.0002 12.9554 14.0002 11.6667C14.0002 10.378 12.9555 9.33337 11.6668 9.33337C10.3782 9.33337 9.3335 10.378 9.3335 11.6667C9.3335 12.9554 10.3782 14 11.6668 14Z" fill="#1D1617"/>
<path d="M4.41748 8.04175L9.56637 10.6162" stroke="#1D1617" stroke-width="1.2" stroke-linecap="round" stroke-linejoin="round"/>
<path d="M11.6668 4.66667C12.9555 4.66667 14.0002 3.622 14.0002 2.33333C14.0002 1.04467 12.9555 0 11.6668 0C10.3782 0 9.3335 1.04467 9.3335 2.33333C9.3335 3.622 10.3782 4.66667 11.6668 4.66667Z" fill="#1D1617"/>
<path d="M4.41748 5.95775L9.56637 3.3833" stroke="#1D1617" stroke-width="1.2" stroke-linecap="round" stroke-linejoin="round"/>
</svg>
