<svg width="30" height="30" viewBox="0 0 30 30" fill="none" xmlns="http://www.w3.org/2000/svg">
<path d="M8.9998 25.2H7.7998L8.5198 24.24C8.9998 23.58 9.2998 22.74 9.4798 21.72C6.4798 20.34 4.7998 17.76 4.7998 14.4C4.7998 9.24 8.6998 6 14.9998 6C21.2998 6 25.1998 9.24 25.1998 14.4C25.1998 19.68 21.3598 22.8 14.9998 22.8H14.5798C13.6198 23.94 11.9398 25.2 8.9998 25.2ZM14.9998 7.2C9.3598 7.2 5.9998 9.9 5.9998 14.4C5.9998 18.24 8.3398 20.04 10.3198 20.82L10.7398 21L10.6798 21.48C10.5598 22.44 10.3798 23.28 10.0198 24C11.9998 23.76 13.1398 22.74 13.7998 21.9L13.9798 21.66H14.9998C23.0998 21.66 23.9998 16.62 23.9998 14.46C23.9998 9.9 20.6398 7.2 14.9998 7.2Z" fill="black"/>
</svg>
