<svg width="36" height="37" viewBox="0 0 36 37" fill="none" xmlns="http://www.w3.org/2000/svg">
<g opacity="0.5">
<path d="M14.0625 11.2302H16.6605V23.1885C16.6605 23.3441 16.7871 23.4713 16.9418 23.4713H19.0512C19.2059 23.4713 19.3324 23.3441 19.3324 23.1885V11.2302H21.9375C22.173 11.2302 22.3031 10.958 22.159 10.7742L18.2215 5.76179C18.1952 5.72799 18.1616 5.70066 18.1232 5.68186C18.0848 5.66306 18.0427 5.65329 18 5.65329C17.9573 5.65329 17.9152 5.66306 17.8768 5.68186C17.8384 5.70066 17.8048 5.72799 17.7785 5.76179L13.841 10.7707C13.6969 10.958 13.827 11.2302 14.0625 11.2302ZM30.8672 22.1281H28.7578C28.6031 22.1281 28.4766 22.2553 28.4766 22.4109V27.8545H7.52344V22.4109C7.52344 22.2553 7.39687 22.1281 7.24219 22.1281H5.13281C4.97812 22.1281 4.85156 22.2553 4.85156 22.4109V29.4098C4.85156 30.0355 5.3543 30.541 5.97656 30.541H30.0234C30.6457 30.541 31.1484 30.0355 31.1484 29.4098V22.4109C31.1484 22.2553 31.0219 22.1281 30.8672 22.1281Z" fill="white"/>
</g>
</svg>
