<svg width="62" height="77" viewBox="0 0 62 77" fill="none" xmlns="http://www.w3.org/2000/svg">
<path d="M20.4684 59.926C20.5948 59.5783 20.9252 59.3468 21.2952 59.3468H39.7742C40.1357 59.3468 40.4603 59.5679 40.5927 59.9042L43.5381 67.3845C45.3562 72.0018 41.9526 77 36.9902 77H24.3081C19.425 77 16.0261 72.1482 17.6942 67.5588L20.4684 59.926Z" fill="#1E1C1C"/>
<path d="M19.6667 58.5586C19.6667 57.2667 20.8496 56.3012 22.1228 56.5204C28.0946 57.5485 32.2703 57.5555 38.2386 56.524C39.5138 56.3036 40.6997 57.2701 40.6997 58.5642C40.6997 59.5343 40.0186 60.3749 39.0658 60.5571C32.4532 61.8218 28.0854 61.826 21.3072 60.5522C20.3514 60.3726 19.6667 59.5311 19.6667 58.5586Z" fill="#D1532A"/>
<path d="M9.81952 0.0234783C3.83785 0.552223 5.12801 16.5468 6.5208 24.4779C-1.90446 34.6147 2.54252 46.0841 6.5208 49.9492C18.9941 62.0689 40.4736 57.7417 46.3253 55.1011C65.8537 46.2887 60.0333 31.0138 54.682 24.4779C58.0247 9.32058 57.4734 3.71302 53.1426 1.56565C47.5128 -0.373081 39.3613 7.95465 35.9893 12.3609C32.4707 10.9509 28.0724 11.7734 26.3131 12.3609C23.3076 8.02809 15.8012 -0.505267 9.81952 0.0234783Z" fill="#1E1C1C"/>
<path d="M28.981 9.46591C29.7836 9.96369 31.3429 11.7174 31.1595 14.7499" stroke="#1E1C1C" stroke-width="2.19914" stroke-linecap="round"/>
<path d="M32.679 6.91188C32.9547 7.81628 34.2533 12.5872 32.1194 14.746" stroke="#1E1C1C" stroke-width="2.19914" stroke-linecap="round"/>
<path d="M6.82969 47.4304C6.1958 48.3829 4.76957 50.5261 4.13574 51.4786" stroke="#1E1C1C" stroke-width="2.19914" stroke-linecap="round"/>
<path d="M5.91275 45.6677C4.78001 45.8187 2.23136 46.1585 1.09867 46.3096" stroke="#1E1C1C" stroke-width="2.19914" stroke-linecap="round"/>
<path d="M9.19231 49.4545C9.09313 50.595 8.86998 53.161 8.77085 54.3015" stroke="#1E1C1C" stroke-width="2.19914" stroke-linecap="round"/>
<path d="M54.7533 46.8713C55.4731 47.7605 57.0925 49.7612 57.8122 50.6503" stroke="#1E1C1C" stroke-width="2.19914" stroke-linecap="round"/>
<path d="M55.5022 45.0306C56.6441 45.0753 59.2132 45.1756 60.355 45.2203" stroke="#1E1C1C" stroke-width="2.19914" stroke-linecap="round"/>
<path d="M52.5892 49.1072C52.7941 50.2335 53.255 52.7675 53.4598 53.8937" stroke="#1E1C1C" stroke-width="2.19914" stroke-linecap="round"/>
<ellipse cx="19.5796" cy="34.7545" rx="9.24661" ry="11.2342" fill="white"/>
<ellipse cx="42.0071" cy="34.7545" rx="9.24661" ry="11.2342" fill="white"/>
<path d="M45.1094 29.0323L37.1733 35.3407L44.333 36.8962" stroke="#1E1C1C" stroke-width="2.19914" stroke-linecap="round" stroke-linejoin="round"/>
<path d="M16.7837 29.0323L24.7197 35.3407L17.5601 36.8962" stroke="#1E1C1C" stroke-width="2.19914" stroke-linecap="round" stroke-linejoin="round"/>
<path fill-rule="evenodd" clip-rule="evenodd" d="M30.3823 64.2565C31.6446 64.1549 32.6374 63.0964 32.6374 61.8057C32.6374 60.4477 31.5385 59.3468 30.183 59.3468C28.8274 59.3468 27.7285 60.4477 27.7285 61.8057C27.7285 63.0964 28.7213 64.1549 29.9837 64.2565V62.8812C29.7755 62.801 29.6277 62.5987 29.6277 62.3619C29.6277 62.0547 29.8763 61.8057 30.183 61.8057C30.4896 61.8057 30.7382 62.0547 30.7382 62.3619C30.7382 62.5987 30.5905 62.801 30.3823 62.8812V64.2565Z" fill="#F7B534"/>
<path d="M42.9688 63.0134C43.5037 68.9396 41.0501 70.6621 39.7565 70.7826L38.2664 76.7797C46.8548 75.571 49.8222 67.3763 50.2323 63.43C50.4197 62.2011 49.9763 59.7093 46.7035 59.5728C43.4308 59.4363 42.8501 61.8096 42.9688 63.0134Z" fill="#1E1C1C"/>
</svg>
