<svg width="22" height="21" viewBox="0 0 22 21" fill="none" xmlns="http://www.w3.org/2000/svg">
<path d="M9.32477 19.0181L10.4111 20.0584C10.871 20.4989 11.6173 20.5015 12.0754 20.0642L21.6509 11.025C22.1139 10.5877 22.1164 9.87802 21.6564 9.44218L12.1439 0.332138C11.6839 -0.108368 10.9377 -0.110958 10.4795 0.326363L9.38604 1.35914C8.9181 1.8011 8.92541 2.52486 9.40012 2.96075L15.2975 8.34152L1.18759 8.29256C0.534625 8.2903 0.00757728 8.78808 0.00542253 9.40908L0.000238148 10.9032C-0.00191661 11.5242 0.521664 12.0257 1.17463 12.0279L15.2845 12.0769L9.34996 17.4166C8.86733 17.8492 8.855 18.5729 9.32477 19.0181Z" fill="#6626EE" fill-opacity="0.9"/>
</svg>
