<svg width="25" height="25" viewBox="0 0 25 25" fill="none" xmlns="http://www.w3.org/2000/svg">
<g clip-path="url(#clip0_0_312)">
<g clip-path="url(#clip1_0_312)">
<g clip-path="url(#clip2_0_312)">
<path fill-rule="evenodd" clip-rule="evenodd" d="M14.1475 17.1585C15.5809 17.1585 16.7475 18.2642 16.7475 19.6233V23.1187C16.7475 23.4108 16.9928 23.6449 17.3071 23.6517H19.5761C21.3642 23.6517 22.8178 22.2812 22.8178 20.5972V10.6835C22.8094 10.104 22.5202 9.55851 22.0237 9.19602L14.1749 3.22101C13.1213 2.42442 11.6475 2.42442 10.5904 3.22329L2.79516 9.19374C2.27968 9.56761 1.9904 10.1131 1.98444 10.7028V20.5972C1.98444 22.2812 3.43802 23.6517 5.22611 23.6517H7.51659C7.83921 23.6517 8.10111 23.4074 8.10111 23.1074C8.10111 23.0415 8.10944 22.9756 8.12373 22.9131V19.6233C8.12373 18.2722 9.28325 17.1676 10.7059 17.1585H14.1475ZM19.5761 25.3562H17.2856C15.9737 25.3267 14.9618 24.3437 14.9618 23.1187V19.6233C14.9618 19.204 14.5963 18.8631 14.1475 18.8631H10.7118C10.2725 18.8653 9.90944 19.2074 9.90944 19.6233V23.1074C9.90944 23.1926 9.89754 23.2744 9.87254 23.3517C9.74397 24.4767 8.73682 25.3562 7.51659 25.3562H5.22611C2.45349 25.3562 0.19873 23.221 0.19873 20.5972V10.6949C0.210635 9.56533 0.755873 8.53124 1.69754 7.85056L9.4773 1.89033C11.1904 0.594878 13.5773 0.594878 15.2868 1.88806L23.1225 7.85397C24.0428 8.52329 24.588 9.55511 24.6035 10.671V20.5972C24.6035 23.221 22.3487 25.3562 19.5761 25.3562Z" fill="black"/>
</g>
</g>
</g>
<defs>
<clipPath id="clip0_0_312">
<rect width="25" height="25" fill="white"/>
</clipPath>
<clipPath id="clip1_0_312">
<rect width="25" height="26" fill="white"/>
</clipPath>
<clipPath id="clip2_0_312">
<rect width="25" height="25" fill="white" transform="translate(0 0.5)"/>
</clipPath>
</defs>
</svg>
