<svg width="77" height="78" viewBox="0 0 77 78" fill="none" xmlns="http://www.w3.org/2000/svg">
<path d="M30.9716 60.5307C31.14 60.1123 31.5457 59.8383 31.9967 59.8383H52.519C52.9585 59.8383 53.3563 60.0987 53.532 60.5016L55.6084 65.2631C58.155 71.1029 53.8757 77.6377 47.5047 77.6377H37.1742C30.9114 77.6377 26.6344 71.3054 28.973 65.4957L30.9716 60.5307Z" fill="black"/>
<path d="M30.1201 59.0045C30.1201 57.7133 31.2884 56.7392 32.5637 56.9415C39.4937 58.0406 44.2332 58.0481 51.1592 56.9448C52.4364 56.7414 53.6074 57.7164 53.6074 59.0097C53.6074 60.0063 52.8983 60.8646 51.9164 61.0355C44.4132 62.3414 39.509 62.3459 31.8168 61.0307C30.8323 60.8623 30.1201 60.0033 30.1201 59.0045Z" fill="#D1532A"/>
<path d="M19.1238 0.0236727C12.4442 0.556797 13.8849 16.6838 15.4402 24.6807C6.03181 34.9014 10.9977 46.4658 15.4402 50.3629C29.369 62.5829 53.3549 58.2199 59.8894 55.5574C81.6964 46.672 75.1969 31.2707 69.2212 24.6807C72.954 9.39777 72.3383 3.74377 67.5022 1.57862C61.2155 -0.376171 52.1128 8.02053 48.3473 12.4632C44.4181 11.0416 39.5066 11.8709 37.542 12.4632C34.1858 8.09458 25.8035 -0.509451 19.1238 0.0236727Z" fill="black"/>
<path d="M40.5212 9.54431C41.4175 10.0462 43.1588 11.8144 42.9539 14.8721" stroke="black" stroke-width="2.74893" stroke-linecap="round"/>
<path d="M44.6507 6.96913C44.9587 7.88102 46.4087 12.6915 44.0259 14.8681" stroke="black" stroke-width="2.74893" stroke-linecap="round"/>
<path d="M15.785 47.8232C15.0771 48.7836 13.4845 50.9445 12.7767 51.9049" stroke="black" stroke-width="2.74893" stroke-linecap="round"/>
<path d="M14.7611 46.0459C13.4961 46.1982 10.6501 46.5408 9.38523 46.6931" stroke="black" stroke-width="2.74893" stroke-linecap="round"/>
<path d="M18.4233 49.8641C18.3125 51.014 18.0634 53.6013 17.9527 54.7512" stroke="black" stroke-width="2.74893" stroke-linecap="round"/>
<path d="M69.3011 47.2394C70.1048 48.1454 71.9132 50.184 72.7168 51.09" stroke="black" stroke-width="2.74893" stroke-linecap="round"/>
<path d="M70.1373 45.3855C71.4124 45.439 74.2813 45.5593 75.5564 45.6129" stroke="black" stroke-width="2.74893" stroke-linecap="round"/>
<path d="M66.8502 49.5139C67.095 50.6495 67.6457 53.2045 67.8905 54.34" stroke="black" stroke-width="2.74893" stroke-linecap="round"/>
<ellipse cx="30.0228" cy="35.0423" rx="10.3256" ry="11.3272" fill="white"/>
<ellipse cx="32.8357" cy="38.3147" rx="4.46675" ry="4.03313" fill="#010101"/>
<ellipse cx="55.0673" cy="35.0423" rx="10.3256" ry="11.3272" fill="white"/>
<ellipse cx="52.9361" cy="38.3147" rx="4.46675" ry="4.03313" fill="#010101"/>
<path fill-rule="evenodd" clip-rule="evenodd" d="M42.086 64.7887C43.4956 64.6863 44.6043 63.619 44.6043 62.3175C44.6043 60.9483 43.3772 59.8383 41.8635 59.8383C40.3497 59.8383 39.1226 60.9483 39.1226 62.3175C39.1226 63.619 40.2312 64.6862 41.6408 64.7887V63.402C41.4084 63.3211 41.2434 63.1171 41.2434 62.8784C41.2434 62.5686 41.521 62.3175 41.8634 62.3175C42.2058 62.3175 42.4834 62.5686 42.4834 62.8784C42.4834 63.1171 42.3185 63.3211 42.086 63.402V64.7887Z" fill="#F7B534"/>
<path d="M56.1411 63.5353C56.7384 69.5106 53.9985 71.2474 52.5539 71.3688L50.8899 77.4156C60.4804 76.1969 63.7941 67.9343 64.2521 63.9553C64.4614 62.7163 63.9662 60.2038 60.3116 60.0661C56.6569 59.9285 56.0085 62.3216 56.1411 63.5353Z" fill="black"/>
<g clip-path="url(#clip0_514_2310)">
<path d="M1.29483 32.0939C0.579714 30.5941 1.25551 28.8901 2.80426 28.2881L6.42392 26.8812C7.97267 26.2792 9.80789 27.007 10.523 28.5069L23.9489 56.6664L14.7207 60.2534L1.29483 32.0939Z" fill="#D9D9D9"/>
<rect width="9.85137" height="6.74006" transform="matrix(0.936741 -0.364115 0.432528 0.907184 0 29.3782)" fill="#FF005B"/>
<rect width="5.23813" height="23.7517" transform="matrix(0.936741 -0.364115 0.432528 0.907184 4.48504 38.7853)" fill="#0ED6E5"/>
<rect width="4.86392" height="23.7517" transform="matrix(0.936741 -0.364115 0.432528 0.907184 9.39187 36.878)" fill="#06BFC4"/>
</g>
<path d="M12.0291 54.6073L20.1659 51.4445L21.6453 61.4245C21.6694 61.5869 21.6349 61.7506 21.5486 61.8874C21.1422 62.5312 20.3338 62.8465 19.5376 62.6653C19.373 62.6279 19.2232 62.5408 19.1114 62.4174L12.0291 54.6073Z" fill="#F9D6A2"/>
<path fill-rule="evenodd" clip-rule="evenodd" d="M18.018 61.2587L19.0892 62.4401C19.2011 62.5634 19.3509 62.6505 19.5154 62.688C20.3117 62.8692 21.12 62.5539 21.5264 61.91C21.6127 61.7733 21.6473 61.6096 21.6232 61.4472L21.4004 59.9439L18.018 61.2587Z" fill="#3F060D"/>
<ellipse cx="5.50612" cy="5.13358" rx="5.50612" ry="5.13358" transform="matrix(0.936741 -0.364115 0.432528 0.907184 5.10999 50.0773)" fill="black"/>
<path d="M32.1754 55.6506L31.4571 57.253L43.9192 59.7319H48.0591C47.2846 59.3378 45.3724 58.3741 43.9192 57.6722C42.4661 56.9704 35.4845 56.0321 32.1754 55.6506Z" fill="#EFEAEA"/>
<path d="M50.6171 57.7161C49.7113 57.9534 48.5347 58.9587 48.0596 59.4316L49.3453 59.7315L61.4675 55.4673L62.094 53.5482C62.119 53.4719 62.0089 53.4003 61.9426 53.4454C61.6514 53.6432 61.3243 53.7384 61.1019 53.8239C57.9844 55.0224 51.5228 57.4788 50.6171 57.7161Z" fill="#EFEAEA"/>
<path d="M45.9562 59.0997L30.0184 56.0459C29.3415 55.9162 28.7911 56.5698 28.6005 56.9128L24.2917 65.953C23.6696 68.1696 24.551 68.9254 25.0694 69.0262L39.7525 71.8622C41.9019 72.7643 44.2557 72.0786 45.164 71.623L58.9387 67.1127L62.2034 58.8721L62.224 58.8264C62.6279 57.927 63.4695 56.0529 63.3918 55.2113C63.3128 54.3552 62.3272 54.3611 61.8444 54.4711C57.9877 55.8608 50.0695 58.7321 49.2497 59.0997C48.4298 59.4673 46.7124 59.2529 45.9562 59.0997Z" fill="#06BFC4"/>
<path d="M28.7625 57.8881L24.2443 67.2782C23.8525 68.0925 24.5765 68.7958 24.8207 68.9404L39.6972 71.851L45.2272 60.1057C40.8608 59.3024 31.837 57.6138 30.6727 57.2853C29.5083 56.9567 28.9141 57.5503 28.7625 57.8881Z" fill="#0ED6E5"/>
<path d="M44.7334 71.7399L50.2343 60.2051C53.7668 58.8871 61.0965 56.1507 62.155 55.7488C63.2136 55.3469 63.3347 55.9163 63.263 56.2512L58.8115 67.1328L44.7334 71.7399Z" fill="#0ED6E5"/>
<ellipse cx="5.50612" cy="5.13358" rx="5.50612" ry="5.13358" transform="matrix(0.936741 -0.364115 0.432528 0.907184 52.7394 61.5997)" fill="black"/>
<defs>
<clipPath id="clip0_514_2310">
<path d="M1.29483 32.0939C0.579715 30.5941 1.25551 28.8901 2.80426 28.2881L5.33261 27.3054C6.88136 26.7034 8.71658 27.4312 9.4317 28.9311L20.1657 51.4445L12.0288 54.6073L1.29483 32.0939Z" fill="white"/>
</clipPath>
</defs>
</svg>
