<svg width="25" height="25" viewBox="0 0 25 25" fill="none" xmlns="http://www.w3.org/2000/svg">
<path d="M11.4266 1.9719C11.7167 1.69762 12.1008 1.5448 12.5 1.5448C12.8992 1.5448 13.2833 1.69762 13.5734 1.9719L21.1422 9.12659C21.6109 9.56877 21.875 10.186 21.875 10.8297V19.5328C21.875 20.1544 21.6281 20.7506 21.1885 21.1901C20.749 21.6297 20.1529 21.8766 19.5312 21.8766H16.4062C16.0983 21.8766 15.7934 21.8159 15.509 21.698C15.2245 21.5801 14.9661 21.4074 14.7484 21.1896C14.5308 20.9718 14.3582 20.7132 14.2405 20.4287C14.1228 20.1441 14.0623 19.8392 14.0625 19.5313V15.625C14.0625 15.4178 13.9802 15.2191 13.8337 15.0726C13.6872 14.9261 13.4885 14.8438 13.2812 14.8438H11.7188C11.5115 14.8438 11.3128 14.9261 11.1663 15.0726C11.0198 15.2191 10.9375 15.4178 10.9375 15.625V19.5313C10.9375 20.1529 10.6906 20.749 10.251 21.1886C9.81149 21.6281 9.21535 21.875 8.59375 21.875H5.46875C4.84715 21.875 4.25101 21.6281 3.81147 21.1886C3.37193 20.749 3.125 20.1529 3.125 19.5313V10.8281C3.125 10.1844 3.39063 9.56721 3.85938 9.12502L11.4266 1.96877V1.9719ZM12.5 3.10627L4.93125 10.2625C4.85441 10.3354 4.79318 10.4231 4.75128 10.5203C4.70938 10.6175 4.68768 10.7223 4.6875 10.8281V19.5313C4.6875 19.7385 4.76981 19.9372 4.91632 20.0837C5.06284 20.2302 5.26155 20.3125 5.46875 20.3125H8.59375C8.80095 20.3125 8.99966 20.2302 9.14618 20.0837C9.29269 19.9372 9.375 19.7385 9.375 19.5313V15.625C9.375 15.0034 9.62193 14.4073 10.0615 13.9677C10.501 13.5282 11.0971 13.2813 11.7188 13.2813H13.2812C13.9029 13.2813 14.499 13.5282 14.9385 13.9677C15.3781 14.4073 15.625 15.0034 15.625 15.625V19.5313C15.625 19.7385 15.7073 19.9372 15.8538 20.0837C16.0003 20.2302 16.199 20.3125 16.4062 20.3125H19.5312C19.7385 20.3125 19.9372 20.2302 20.0837 20.0837C20.2302 19.9372 20.3125 19.7385 20.3125 19.5313V10.8281C20.3125 10.722 20.2909 10.617 20.249 10.5195C20.2071 10.4219 20.1458 10.334 20.0688 10.261L12.5 3.10627Z" fill="black"/>
</svg>
