<svg width="41" height="37" viewBox="0 0 41 37" fill="none" xmlns="http://www.w3.org/2000/svg">
<path d="M17.9682 13.8719L17.0833 11.9171L16.195 13.8719H17.9682ZM9.82292 4.625C8.57695 4.625 7.38202 5.07167 6.50099 5.86675C5.61996 6.66182 5.125 7.74018 5.125 8.86458V28.1354C5.125 29.2598 5.61996 30.3382 6.50099 31.1333C7.38202 31.9283 8.57695 32.375 9.82292 32.375H20.5376C19.3944 30.7646 18.7884 28.8916 18.7917 26.9792C18.7917 25.6132 19.094 24.3121 19.6424 23.125H9.82292C9.48311 23.125 9.15722 23.0032 8.91694 22.7863C8.67665 22.5695 8.54167 22.2754 8.54167 21.9688C8.54167 21.6621 8.67665 21.368 8.91694 21.1512C9.15722 20.9343 9.48311 20.8125 9.82292 20.8125H21.1423C22.18 19.6111 23.5079 18.6393 25.0249 17.9714C26.5419 17.3034 28.2079 16.957 29.8958 16.9583C32.015 16.9554 34.0905 17.5023 35.875 18.5339V8.86458C35.875 7.74018 35.38 6.66182 34.499 5.86675C33.618 5.07167 32.423 4.625 31.1771 4.625H9.82292ZM15.8021 28.5208H9.82292C9.48311 28.5208 9.15722 28.399 8.91694 28.1822C8.67665 27.9653 8.54167 27.6712 8.54167 27.3646C8.54167 27.0579 8.67665 26.7638 8.91694 26.547C9.15722 26.3302 9.48311 26.2083 9.82292 26.2083H15.8021C16.1419 26.2083 16.4678 26.3302 16.7081 26.547C16.9483 26.7638 17.0833 27.0579 17.0833 27.3646C17.0833 27.6712 16.9483 27.9653 16.7081 28.1822C16.4678 28.399 16.1419 28.5208 15.8021 28.5208ZM18.2689 8.42367L22.1092 16.9059C22.2379 17.1899 22.2363 17.5083 22.1048 17.7912C21.9733 18.0741 21.7226 18.2983 21.408 18.4144C21.0933 18.5306 20.7404 18.5291 20.4269 18.4104C20.1135 18.2918 19.865 18.0655 19.7364 17.7816L19.0137 16.1844H15.1495L14.4252 17.7816C14.2921 18.0596 14.0436 18.2794 13.7329 18.3938C13.4222 18.5081 13.0742 18.508 12.7637 18.3933C12.4531 18.2786 12.2048 18.0586 12.0721 17.7804C11.9394 17.5023 11.9329 17.1883 12.054 16.9059L15.8977 8.42367C15.9941 8.21136 16.1584 8.02974 16.3695 7.9019C16.5806 7.77407 16.8291 7.70581 17.0833 7.70581C17.3376 7.70581 17.5861 7.77407 17.7972 7.9019C18.0083 8.02974 18.1725 8.21136 18.2689 8.42367ZM28.1875 8.85996V10.787H30.3229C30.6627 10.787 30.9886 10.9089 31.2289 11.1257C31.4692 11.3425 31.6042 11.6366 31.6042 11.9433C31.6042 12.2499 31.4692 12.544 31.2289 12.7609C30.9886 12.9777 30.6627 13.0995 30.3229 13.0995H28.1875V15.0266C28.1875 15.3333 28.0525 15.6274 27.8122 15.8442C27.5719 16.0611 27.2461 16.1829 26.9062 16.1829C26.5664 16.1829 26.2406 16.0611 26.0003 15.8442C25.76 15.6274 25.625 15.3333 25.625 15.0266V13.0995H23.4896C23.1498 13.0995 22.8239 12.9777 22.5836 12.7609C22.3433 12.544 22.2083 12.2499 22.2083 11.9433C22.2083 11.6366 22.3433 11.3425 22.5836 11.1257C22.8239 10.9089 23.1498 10.787 23.4896 10.787H25.625V8.85996C25.625 8.5533 25.76 8.25921 26.0003 8.04237C26.2406 7.82553 26.5664 7.70371 26.9062 7.70371C27.2461 7.70371 27.5719 7.82553 27.8122 8.04237C28.0525 8.25921 28.1875 8.5533 28.1875 8.85996ZM39.2917 26.9792C39.2917 24.7304 38.3018 22.5736 36.5397 20.9835C34.7776 19.3933 32.3878 18.5 29.8958 18.5C27.4039 18.5 25.014 19.3933 23.252 20.9835C21.4899 22.5736 20.5 24.7304 20.5 26.9792C20.5 29.228 21.4899 31.3847 23.252 32.9748C25.014 34.565 27.4039 35.4583 29.8958 35.4583C32.3878 35.4583 34.7776 34.565 36.5397 32.9748C38.3018 31.3847 39.2917 29.228 39.2917 26.9792ZM30.75 27.75L30.7517 31.6088C30.7517 31.8132 30.6617 32.0093 30.5015 32.1539C30.3413 32.2984 30.1241 32.3796 29.8975 32.3796C29.671 32.3796 29.4537 32.2984 29.2936 32.1539C29.1334 32.0093 29.0434 31.8132 29.0434 31.6088V27.75H24.764C24.5375 27.75 24.3202 27.6688 24.16 27.5242C23.9998 27.3797 23.9098 27.1836 23.9098 26.9792C23.9098 26.7747 23.9998 26.5787 24.16 26.4341C24.3202 26.2895 24.5375 26.2083 24.764 26.2083H29.0417V22.3542C29.0417 22.1497 29.1317 21.9537 29.2918 21.8091C29.452 21.6645 29.6693 21.5833 29.8958 21.5833C30.1224 21.5833 30.3396 21.6645 30.4998 21.8091C30.66 21.9537 30.75 22.1497 30.75 22.3542V26.2083H35.026C35.2525 26.2083 35.4698 26.2895 35.6299 26.4341C35.7901 26.5787 35.8801 26.7747 35.8801 26.9792C35.8801 27.1836 35.7901 27.3797 35.6299 27.5242C35.4698 27.6688 35.2525 27.75 35.026 27.75H30.75Z" fill="black"/>
</svg>
