<svg width="25" height="26" viewBox="0 0 25 26" fill="none" xmlns="http://www.w3.org/2000/svg">
<path d="M12.4098 0C5.55438 0 0 5.81854 0 13C0 20.1814 5.55438 26 12.4098 26C19.2652 26 24.8195 20.1814 24.8195 13C24.8195 5.81854 19.2652 0 12.4098 0ZM18.4946 16.4125C18.7298 16.6589 18.7298 17.0572 18.4946 17.3036L16.513 19.3742C16.2778 19.6206 15.8975 19.6206 15.6623 19.3742L12.4098 15.9355L9.15221 19.3742C8.91702 19.6206 8.53672 19.6206 8.30154 19.3742L6.32498 17.2984C6.0898 17.052 6.0898 16.6536 6.32498 16.4072L9.60757 13L6.32498 9.58749C6.0898 9.34112 6.0898 8.94274 6.32498 8.69637L8.30654 6.62056C8.54173 6.37419 8.92203 6.37419 9.15721 6.62056L12.4098 10.0645L15.6673 6.6258C15.9025 6.37943 16.2828 6.37943 16.518 6.6258L18.4996 8.70161C18.7348 8.94798 18.7348 9.34637 18.4996 9.59274L15.212 13L18.4946 16.4125Z" fill="#FA3939"/>
</svg>
