<svg width="86" height="97" viewBox="0 0 86 97" fill="none" xmlns="http://www.w3.org/2000/svg">
<path d="M34.7382 74.9508C34.8963 74.516 35.3096 74.2265 35.7723 74.2265H58.8845C59.3365 74.2265 59.7425 74.503 59.9082 74.9236L63.592 84.2794C65.8659 90.0544 61.6089 96.3058 55.4024 96.3058H39.5406C33.4332 96.3058 29.1821 90.2376 31.2684 84.4975L34.7382 74.9508Z" fill="black"/>
<path d="M33.7354 73.2406C33.7354 71.6249 35.2148 70.4173 36.8072 70.6914C44.2763 71.9773 49.4989 71.9861 56.9636 70.696C58.5585 70.4203 60.0418 71.6291 60.0418 73.2477C60.0418 74.461 59.1899 75.5124 57.9982 75.7403C49.7277 77.322 44.2648 77.3273 35.7871 75.7341C34.5917 75.5095 33.7354 74.4569 33.7354 73.2406Z" fill="#D1532A"/>
<path d="M21.4191 0.0293648C13.9377 0.690679 15.5513 20.6954 17.2933 30.6151C6.75566 43.2935 12.3176 57.6386 17.2933 62.4727C32.894 77.631 59.759 72.219 67.0778 68.9163C91.5024 57.8944 84.2227 38.7897 77.5297 30.6151C81.7105 11.6575 81.021 4.64396 75.6044 1.9582C68.5631 -0.466621 58.3678 9.94908 54.1503 15.46C49.7495 13.6965 44.2485 14.7252 42.048 15.46C38.289 10.0409 28.9005 -0.631949 21.4191 0.0293648Z" fill="black"/>
<path d="M45.3852 11.8393C46.389 12.4618 48.3393 14.6552 48.1099 18.4481" stroke="black" stroke-width="2.74893" stroke-linecap="round"/>
<path d="M50.0104 8.64485C50.3553 9.77601 51.9795 15.7431 49.3106 18.4432" stroke="black" stroke-width="2.74893" stroke-linecap="round"/>
<path d="M17.6799 59.3224C16.8871 60.5137 15.1033 63.1942 14.3105 64.3855" stroke="black" stroke-width="2.74893" stroke-linecap="round"/>
<path d="M16.5331 57.1177C15.1163 57.3066 11.9287 57.7316 10.512 57.9205" stroke="black" stroke-width="2.74893" stroke-linecap="round"/>
<path d="M20.6348 61.854C20.5107 63.2804 20.2316 66.4898 20.1076 67.9161" stroke="black" stroke-width="2.74893" stroke-linecap="round"/>
<path d="M77.6194 58.6231C78.5196 59.7352 80.5451 62.2375 81.4452 63.3496" stroke="black" stroke-width="2.74893" stroke-linecap="round"/>
<path d="M78.5561 56.3209C79.9843 56.3767 83.1976 56.5022 84.6257 56.5581" stroke="black" stroke-width="2.74893" stroke-linecap="round"/>
<path d="M74.9125 61.4196C75.1687 62.8282 75.7452 65.9976 76.0013 67.4062" stroke="black" stroke-width="2.74893" stroke-linecap="round"/>
<ellipse cx="33.6266" cy="43.4682" rx="11.565" ry="14.0509" fill="white"/>
<circle cx="36.7772" cy="47.5275" r="5.0029" fill="#010101"/>
<ellipse cx="61.677" cy="43.4682" rx="11.565" ry="14.0509" fill="white"/>
<circle cx="59.2902" cy="47.5275" r="5.0029" fill="#010101"/>
<path fill-rule="evenodd" clip-rule="evenodd" d="M47.1374 80.3672C48.7163 80.2401 49.958 78.9163 49.958 77.3018C49.958 75.6034 48.5836 74.2265 46.8882 74.2265C45.1928 74.2265 43.8183 75.6034 43.8183 77.3018C43.8183 78.9162 45.06 80.2401 46.6388 80.3672V78.647C46.3785 78.5467 46.1937 78.2937 46.1937 77.9975C46.1937 77.6133 46.5046 77.3018 46.8881 77.3018C47.2717 77.3018 47.5826 77.6133 47.5826 77.9975C47.5826 78.2937 47.3978 78.5467 47.1374 78.6471V80.3672Z" fill="#F7B534"/>
<path d="M62.8799 78.8124C63.5488 86.2245 60.4801 88.3788 58.8621 88.5295L56.9983 96.0302C67.7401 94.5185 71.4515 84.2691 71.9645 79.3334C72.1988 77.7965 71.6443 74.6798 67.5509 74.5091C63.4576 74.3384 62.7313 77.3068 62.8799 78.8124Z" fill="black"/>
<g clip-path="url(#clip0_410_3919)">
<path d="M1.1844 39.1934C0.530275 37.6739 1.23178 35.9119 2.75126 35.2578L6.3025 33.729C7.82198 33.0748 9.58404 33.7763 10.2382 35.2958L22.5191 63.8232L13.4653 67.7208L1.1844 39.1934Z" fill="#D9D9D9"/>
<rect y="36.4422" width="9.85707" height="6.74397" transform="rotate(-23.2917 0 36.4422)" fill="#FF005B"/>
<rect x="4.10247" y="45.9721" width="5.24116" height="23.7655" transform="rotate(-23.2917 4.10247 45.9721)" fill="#0ED6E5"/>
<rect x="8.91679" y="43.8997" width="4.86674" height="23.7655" transform="rotate(-23.2917 8.91679 43.8997)" fill="#06BFC4"/>
</g>
<path d="M13.4726 67.7377L22.5862 63.8144L24.2478 76.2291C24.2718 76.4081 24.2356 76.5913 24.1462 76.7482C23.6904 77.548 22.7533 77.9527 21.8607 77.7278C21.6902 77.6848 21.5381 77.5882 21.4267 77.4522L13.4726 67.7377Z" fill="#F9D6A2"/>
<path fill-rule="evenodd" clip-rule="evenodd" d="M20.1806 75.9884L21.4021 77.4803C21.5135 77.6163 21.6656 77.7129 21.8361 77.7559C22.7287 77.9808 23.6658 77.5761 24.1216 76.7763C24.211 76.6194 24.2472 76.4362 24.2233 76.2572L23.969 74.3576L20.1806 75.9884Z" fill="#3F060D"/>
<circle cx="13.9874" cy="65.4084" r="6.28947" transform="rotate(-23.2917 13.9874 65.4084)" fill="black"/>
<path d="M36.0377 69.0319L35.2333 71.0196L49.1912 74.0945H53.828C52.9606 73.6056 50.8188 72.4102 49.1912 71.5396C47.5636 70.669 39.7441 69.5051 36.0377 69.0319Z" fill="#EFEAEA"/>
<path d="M56.6925 71.594C55.678 71.8883 54.3602 73.1353 53.828 73.722L55.2681 74.094L68.8453 68.8045L69.5642 66.366C69.587 66.2885 69.4735 66.2215 69.41 66.2714C69.0759 66.5339 68.6933 66.6563 68.4359 66.7659C64.9441 68.2526 57.707 71.2996 56.6925 71.594Z" fill="#EFEAEA"/>
<path d="M51.4723 73.3103L33.6215 69.5222C32.8634 69.3613 32.2468 70.172 32.0334 70.5975L27.2074 81.8114C26.5106 84.5611 27.4978 85.4985 28.0785 85.6236L44.5239 89.1415C46.9314 90.2605 49.5677 89.41 50.585 88.8448L66.0131 83.25L69.6697 73.028L69.6927 72.9712C70.1451 71.8556 71.0877 69.5309 71.0007 68.4869C70.9122 67.4249 69.8084 67.4323 69.2675 67.5688C64.948 69.2926 56.0794 72.8543 55.1611 73.3103C54.2428 73.7662 52.3193 73.5003 51.4723 73.3103Z" fill="#06BFC4"/>
<path d="M32.2151 71.8074L27.1546 83.4554C26.7158 84.4655 27.5267 85.3379 27.8002 85.5172L44.4624 89.1277L50.656 74.5582C45.7656 73.5618 35.6587 71.4671 34.3546 71.0596C33.0505 70.6521 32.3849 71.3883 32.2151 71.8074Z" fill="#0ED6E5"/>
<path d="M50.1027 88.9899L56.2639 74.6814C60.2204 73.0466 68.4299 69.6522 69.6155 69.1537C70.8011 68.6551 70.9368 69.3614 70.8565 69.7768L65.8707 83.275L50.1027 88.9899Z" fill="#0ED6E5"/>
<circle cx="67.3337" cy="79.7013" r="6.28947" transform="rotate(-23.2917 67.3337 79.7013)" fill="black"/>
<defs>
<clipPath id="clip0_410_3919">
<path d="M1.18441 39.1934C0.530276 37.6739 1.23178 35.9119 2.75126 35.2578L6.36228 33.7032C7.88176 33.0491 9.64382 33.7506 10.2979 35.2701L22.5862 63.8144L13.4726 67.7377L1.18441 39.1934Z" fill="white"/>
</clipPath>
</defs>
</svg>
