<svg width="18" height="23" viewBox="0 0 18 23" fill="none" xmlns="http://www.w3.org/2000/svg">
<g clip-path="url(#clip0_502_2065)">
<path fill-rule="evenodd" clip-rule="evenodd" d="M8.4809 14.3244L8.60914 14.3244L8.89334 14.3253C11.3072 14.339 16.9618 14.5734 16.9618 18.5575C16.9618 22.2514 12.3177 22.7451 8.70529 22.7637L8.06846 22.7634C5.65464 22.7496 0 22.5153 0 18.5322C0 14.7602 4.83962 14.3244 8.4809 14.3244ZM8.4809 16.0494C3.92553 16.0494 1.615 16.8854 1.615 18.5322C1.615 20.1951 3.92553 21.0392 8.4809 21.0392C13.0363 21.0392 15.3468 20.2032 15.3468 18.5575C15.3468 16.8923 13.0363 16.0494 8.4809 16.0494ZM8.4809 0C11.6388 0 14.2066 2.7439 14.2066 6.1157C14.2066 9.4875 11.6388 12.2314 8.4809 12.2314H8.44753C6.91974 12.2256 5.48777 11.5851 4.41433 10.4305C3.33982 9.27475 2.75088 7.74065 2.75623 6.11225C2.75623 2.7439 5.32412 0 8.4809 0ZM8.4809 1.725C6.2156 1.725 4.37123 3.69495 4.37123 6.1157C4.36696 7.28755 4.78901 8.3858 5.55883 9.21495C6.32972 10.0429 7.35686 10.5018 8.45076 10.5064L8.4809 11.3586V10.5064C10.7473 10.5064 12.5916 8.53645 12.5916 6.1157C12.5916 3.69495 10.7473 1.725 8.4809 1.725Z" fill="black"/>
</g>
<defs>
<clipPath id="clip0_502_2065">
<rect width="17.2267" height="23" fill="white"/>
</clipPath>
</defs>
</svg>
