<svg width="32" height="32" viewBox="0 0 32 32" fill="none" xmlns="http://www.w3.org/2000/svg">
<path fill-rule="evenodd" clip-rule="evenodd" d="M7.75 10C7.75 9.58579 8.08579 9.25 8.5 9.25H23.5C23.9142 9.25 24.25 9.58579 24.25 10C24.25 10.4142 23.9142 10.75 23.5 10.75H8.5C8.08579 10.75 7.75 10.4142 7.75 10ZM7.75 16C7.75 15.5858 8.08579 15.25 8.5 15.25H23.5C23.9142 15.25 24.25 15.5858 24.25 16C24.25 16.4142 23.9142 16.75 23.5 16.75H8.5C8.08579 16.75 7.75 16.4142 7.75 16ZM8.5 21.25C8.08579 21.25 7.75 21.5858 7.75 22C7.75 22.4142 8.08579 22.75 8.5 22.75H23.5C23.9142 22.75 24.25 22.4142 24.25 22C24.25 21.5858 23.9142 21.25 23.5 21.25H8.5Z" fill="#1B141F"/>
</svg>
