<svg width="25" height="25" viewBox="0 0 25 25" fill="none" xmlns="http://www.w3.org/2000/svg">
<g clip-path="url(#clip0_0_328)">
<path fill-rule="evenodd" clip-rule="evenodd" d="M12.8314 0.0952759C13.7193 0.0952759 14.5824 0.443287 15.2012 1.04816C15.8188 1.65659 16.1598 2.49111 16.1337 3.33746C16.1362 3.52804 16.202 3.74821 16.321 3.94116C16.5182 4.26076 16.8294 4.48566 17.199 4.57799C17.5685 4.66559 17.9554 4.61824 18.284 4.4324C19.8713 3.5671 21.8914 4.08557 22.7979 5.58888L23.5705 6.86611C23.5903 6.90044 23.6077 6.93358 23.6226 6.96791C24.4435 8.44873 23.8954 10.3131 22.3701 11.1642C22.1481 11.2861 21.9683 11.4565 21.8443 11.6625C21.6521 11.9809 21.5988 12.3597 21.6955 12.7077C21.7947 13.0628 22.0316 13.3576 22.3651 13.5399C23.1179 13.953 23.6796 14.649 23.9041 15.4528C24.1285 16.2553 24.0058 17.1265 23.568 17.845L22.7446 19.1542C21.8381 20.641 19.818 21.1559 18.2468 20.2894C18.0373 20.1746 17.7955 20.1118 17.5549 20.1059H17.5474C17.1891 20.1059 16.8208 20.2515 16.5529 20.506C16.2813 20.7653 16.1325 21.1109 16.135 21.4778C16.1263 23.2167 14.6444 24.623 12.8314 24.623H11.2776C9.45592 24.623 7.97402 23.2096 7.97402 21.4707C7.97154 21.2565 7.90706 21.034 7.78677 20.841C7.59208 20.5167 7.2771 20.2847 6.91376 20.1923C6.55289 20.1 6.15731 20.1509 5.83241 20.3308C5.05364 20.7451 4.13722 20.8457 3.29892 20.6208C2.46187 20.3948 1.7389 19.8455 1.3148 19.1175L0.539746 17.8427C-0.366752 16.3417 0.172682 14.4182 1.74262 13.5517C2.18781 13.3067 2.46435 12.8498 2.46435 12.3597C2.46435 11.8697 2.18781 11.4116 1.74262 11.1665C0.171442 10.2953 -0.366752 8.36706 0.538506 6.86611L1.37928 5.54864C2.27338 4.06426 4.29471 3.54106 5.87085 4.40517C6.08538 4.52709 6.31852 4.58865 6.55537 4.59101C7.32794 4.59101 7.97402 3.98259 7.98642 3.23448C7.98146 2.40943 8.32248 1.61753 8.94377 1.01976C9.56752 0.423164 10.3959 0.0952759 11.2776 0.0952759H12.8314ZM12.8314 1.87084H11.2776C10.8932 1.87084 10.5335 2.01407 10.262 2.27212C9.99163 2.53136 9.84406 2.87582 9.84654 3.24277C9.8205 4.97335 8.33861 6.36658 6.54421 6.36658C5.96881 6.36066 5.4145 6.2127 4.93335 5.93808C4.2575 5.57113 3.37457 5.79722 2.97898 6.45418L2.13945 7.77165C1.75502 8.40848 1.99064 9.2501 2.67516 9.63008C3.69079 10.1912 4.32447 11.2376 4.32447 12.3597C4.32447 13.4819 3.69079 14.5271 2.67268 15.0894C1.99188 15.4658 1.75626 16.3027 2.15061 16.9537L2.9331 18.2416C3.12655 18.5742 3.44277 18.8145 3.8086 18.9127C4.17318 19.0098 4.57497 18.9684 4.90979 18.7908C5.4021 18.515 5.97501 18.3718 6.55041 18.3718C6.83439 18.3718 7.11837 18.4061 7.39615 18.4771C8.23444 18.6926 8.96237 19.2276 9.39391 19.9461C9.67417 20.3971 9.82918 20.9239 9.83414 21.4613C9.83414 22.2307 10.4815 22.8474 11.2776 22.8474H12.8314C13.6238 22.8474 14.2711 22.2342 14.2749 21.4778C14.2699 20.6422 14.6122 19.8479 15.2384 19.2501C15.856 18.6606 16.7191 18.3067 17.5822 18.3304C18.1476 18.3434 18.692 18.489 19.1719 18.7494C19.8627 19.127 20.7444 18.9021 21.1437 18.251L21.9671 16.9407C22.1506 16.6388 22.2039 16.26 22.106 15.9109C22.0092 15.5617 21.7662 15.2586 21.4388 15.0799C20.6724 14.6585 20.1256 13.979 19.8986 13.1646C19.6742 12.3656 19.7969 11.4932 20.2347 10.7747C20.5199 10.3012 20.9378 9.90233 21.4388 9.62771C22.1109 9.25247 22.3465 8.41322 21.9559 7.75981C21.9398 7.73377 21.9249 7.70654 21.9125 7.67813L21.1858 6.47548C20.7902 5.81852 19.9098 5.59243 19.2191 5.96767C18.4725 6.38907 17.5846 6.50981 16.7315 6.29556C15.8795 6.08486 15.1652 5.56994 14.7201 4.84314C14.4348 4.3886 14.2798 3.85948 14.2749 3.32089C14.286 2.91606 14.1372 2.55266 13.8669 2.28633C13.5978 2.02118 13.2196 1.87084 12.8314 1.87084ZM12.06 8.3506C14.3752 8.3506 16.2589 10.1498 16.2589 12.3598C16.2589 14.5698 14.3752 16.3667 12.06 16.3667C9.74473 16.3667 7.86105 14.5698 7.86105 12.3598C7.86105 10.1498 9.74473 8.3506 12.06 8.3506ZM12.06 10.1262C10.7703 10.1262 9.72117 11.1288 9.72117 12.3598C9.72117 13.5909 10.7703 14.5911 12.06 14.5911C13.3496 14.5911 14.3988 13.5909 14.3988 12.3598C14.3988 11.1288 13.3496 10.1262 12.06 10.1262Z" fill="black"/>
</g>
<defs>
<clipPath id="clip0_0_328">
<rect width="25" height="25" fill="white"/>
</clipPath>
</defs>
</svg>
