<svg width="25" height="25" viewBox="0 0 25 25" fill="none" xmlns="http://www.w3.org/2000/svg">
<g clip-path="url(#clip0_0_318)">
<path fill-rule="evenodd" clip-rule="evenodd" d="M9.74845 4.83632C10.2666 5.2275 10.5645 5.81083 10.5645 6.43673C10.5645 11.4819 10.7416 12.8395 11.4655 13.3561C11.9406 13.6932 12.5915 13.6898 14.7848 13.6311C15.8043 13.6023 17.1097 13.5655 18.8196 13.5655C19.5017 13.5655 20.1442 13.8463 20.5798 14.3352C20.9842 14.7897 21.1613 15.3834 21.068 15.9679C20.2687 20.944 15.8653 24.5578 10.598 24.5578C4.75397 24.5578 0 19.9867 0 14.3686C0 9.91368 3.50355 5.45876 7.81001 4.43938C8.48248 4.28175 9.2052 4.42902 9.74845 4.83632ZM8.35444 6.10192C8.31615 6.10192 8.27786 6.10652 8.23957 6.11573C4.68576 6.95678 1.79485 10.6592 1.79485 14.3686C1.79485 19.0352 5.74353 22.832 10.598 22.832C14.9739 22.832 18.6306 19.8349 19.2935 15.7044C19.2983 15.6699 19.315 15.5698 19.2169 15.4582C19.1236 15.3535 18.9752 15.2913 18.8196 15.2913C17.1313 15.2913 15.8426 15.3282 14.8363 15.3558C12.4 15.426 11.3925 15.4524 10.397 14.7425C8.97344 13.7285 8.78627 12.0237 8.77082 7.23986L8.76965 6.43673C8.76965 6.34008 8.72658 6.25955 8.64042 6.19511C8.56025 6.13414 8.45855 6.10192 8.35444 6.10192ZM21.5985 3.14536C23.7021 5.16687 25.0375 7.82348 24.9992 9.91403C24.9848 10.7298 24.3686 11.4109 23.5358 11.5317C21.9109 11.7676 20.0083 11.8389 18.3247 11.8389C16.7572 11.8389 15.3776 11.7779 14.5843 11.7342C13.5863 11.6778 12.7918 10.9127 12.7344 9.95315C12.641 8.43212 12.4388 4.56744 12.5824 1.57831C12.6219 0.709651 13.3518 0.0181724 14.2444 0.00321533C16.8015 -0.0681186 19.4399 1.07322 21.5985 3.14536ZM14.3976 1.72789H14.3713C14.2396 4.62611 14.4347 8.36999 14.5256 9.85305C14.5304 9.94164 14.5974 10.0061 14.6884 10.0107C15.9184 10.0786 20.1567 10.2672 23.2044 9.83579C23.2115 8.22042 22.0616 6.02978 20.3302 4.36609C18.5545 2.66098 16.4533 1.72789 14.3976 1.72789Z" fill="black"/>
</g>
<defs>
<clipPath id="clip0_0_318">
<rect width="25" height="25" fill="white"/>
</clipPath>
</defs>
</svg>
