<svg width="25" height="19" viewBox="0 0 25 19" fill="none" xmlns="http://www.w3.org/2000/svg">
<path d="M17.5955 12.5516C21.1197 9.99132 22.8795 8.69584 24 7.85216V16.4062C24 17.1479 23.3979 17.75 22.6562 17.75H2.34375C1.60209 17.75 1 17.1479 1 16.4062V7.85528C2.1223 8.69786 3.88484 9.99107 7.4094 12.5516C7.53027 12.6398 7.6796 12.7549 7.8498 12.8862C8.28919 13.225 8.8677 13.6711 9.45476 14.0385C10.2834 14.5573 11.3472 15.0718 12.4986 15.0674C13.6584 15.075 14.7352 14.5507 15.5669 14.0288C16.1559 13.6592 16.7368 13.2103 17.1685 12.8765C17.336 12.7471 17.4811 12.635 17.5955 12.5516ZM12.5172 11.5001L12.5 11.4999L12.4828 11.5001C12.402 11.5015 12.2388 11.4739 11.978 11.3599C11.7267 11.2501 11.4448 11.0869 11.1444 10.8872C10.7376 10.6167 10.3925 10.3492 10.0668 10.0968C9.8752 9.94825 9.69034 9.80496 9.50361 9.66936L9.50335 9.66917C3.51003 5.31983 2.65114 4.64763 1.38112 3.65365C1.28054 3.57493 1.17738 3.49419 1.06888 3.40945C1.02122 3.37087 1 3.32082 1 3.27148V2.34375C1 1.60209 1.60209 1 2.34375 1H22.6562C23.3979 1 24 1.60209 24 2.34375V3.27148C24 3.32782 23.9737 3.37639 23.9378 3.40424L23.9336 3.40748C23.8486 3.4742 23.7668 3.53841 23.687 3.60108C22.3785 4.62865 21.5997 5.24022 15.4966 9.66917L15.4964 9.66936C15.3097 9.80496 15.1248 9.94825 14.9332 10.0968C14.6075 10.3492 14.2624 10.6167 13.8556 10.8872C13.5552 11.0869 13.2733 11.2501 13.022 11.3599C12.7612 11.4739 12.598 11.5015 12.5172 11.5001Z" fill="white" stroke="#A79B9B" stroke-width="2"/>
</svg>
