<svg width="24" height="24" viewBox="0 0 24 24" fill="none" xmlns="http://www.w3.org/2000/svg">
<path d="M12 1.43994C10.9406 1.43994 10.08 2.30057 10.08 3.35994C10.08 4.25244 10.695 4.99682 11.52 5.21244V6.71994H7.21496C5.08871 6.71994 3.35996 8.44869 3.35996 10.5749V12.4799H0.959961V18.2399H3.35996V22.5599H20.64V18.2399H23.04V12.4799H20.64V10.5749C20.64 8.44869 18.9112 6.71994 16.785 6.71994H12.48V5.21244C13.3068 4.99682 13.92 4.25244 13.92 3.35994C13.92 2.30057 13.0593 1.43994 12 1.43994ZM12 2.39994C12.5287 2.39994 12.96 2.83119 12.96 3.35994C12.96 3.88869 12.5287 4.31994 12 4.31994C11.4712 4.31994 11.04 3.88869 11.04 3.35994C11.04 2.83119 11.4712 2.39994 12 2.39994ZM7.21496 7.67994H16.785C18.3806 7.67994 19.68 8.97932 19.68 10.5749V21.5999H16.8V17.7599H7.19996V21.5999H4.31996V10.5749C4.31996 8.97932 5.61934 7.67994 7.21496 7.67994ZM8.87996 10.5599C7.68934 10.5599 6.71996 11.5293 6.71996 12.7199C6.71996 13.9106 7.68934 14.8799 8.87996 14.8799C10.0706 14.8799 11.04 13.9106 11.04 12.7199C11.04 11.5293 10.0706 10.5599 8.87996 10.5599ZM15.12 10.5599C13.9293 10.5599 12.96 11.5293 12.96 12.7199C12.96 13.9106 13.9293 14.8799 15.12 14.8799C16.3106 14.8799 17.28 13.9106 17.28 12.7199C17.28 11.5293 16.3106 10.5599 15.12 10.5599ZM8.87996 11.5199C9.54184 11.5199 10.08 12.0581 10.08 12.7199C10.08 13.3818 9.54184 13.9199 8.87996 13.9199C8.21809 13.9199 7.67996 13.3818 7.67996 12.7199C7.67996 12.0581 8.21809 11.5199 8.87996 11.5199ZM15.12 11.5199C15.7818 11.5199 16.32 12.0581 16.32 12.7199C16.32 13.3818 15.7818 13.9199 15.12 13.9199C14.4581 13.9199 13.92 13.3818 13.92 12.7199C13.92 12.0581 14.4581 11.5199 15.12 11.5199ZM1.91996 13.4399H3.35996V17.2799H1.91996V13.4399ZM20.64 13.4399H22.08V17.2799H20.64V13.4399ZM8.15996 18.7199H10.08V21.5999H8.15996V18.7199ZM11.04 18.7199H12.96V21.5999H11.04V18.7199ZM13.92 18.7199H15.84V21.5999H13.92V18.7199Z" fill="#0070F0"/>
</svg>
