<svg width="16" height="13" viewBox="0 0 16 13" fill="none" xmlns="http://www.w3.org/2000/svg">
<g clip-path="url(#clip0_451_2499)">
<path fill-rule="evenodd" clip-rule="evenodd" d="M10.038 8.48414C10.1273 8.4086 10.2333 8.34867 10.35 8.30778C10.4667 8.26689 10.5918 8.24585 10.7181 8.24585C10.8444 8.24585 10.9695 8.26689 11.0862 8.30778C11.2029 8.34867 11.309 8.4086 11.3982 8.48414L15.0993 11.6123C15.2797 11.7646 15.381 11.9713 15.3811 12.1868C15.3812 12.4023 15.28 12.6091 15.0998 12.7615C14.9195 12.914 14.675 12.9997 14.42 12.9998C14.165 12.9998 13.9204 12.9143 13.74 12.7619L10.0389 9.63382C9.94956 9.55837 9.87866 9.46876 9.83028 9.37012C9.78191 9.27149 9.757 9.16576 9.757 9.05898C9.757 8.95221 9.78191 8.84648 9.83028 8.74785C9.87866 8.64921 9.94956 8.5596 10.0389 8.48414H10.038Z" fill="#C4C4C4"/>
<path fill-rule="evenodd" clip-rule="evenodd" d="M6.24851 9.74996C6.94284 9.74996 7.63037 9.63438 8.27184 9.4098C8.91331 9.18523 9.49617 8.85606 9.98713 8.4411C10.4781 8.02614 10.8675 7.53351 11.1333 6.99134C11.399 6.44917 11.5357 5.86807 11.5357 5.28123C11.5357 4.69439 11.399 4.11329 11.1333 3.57112C10.8675 3.02895 10.4781 2.53632 9.98713 2.12136C9.49617 1.7064 8.91331 1.37723 8.27184 1.15266C7.63037 0.928084 6.94284 0.812497 6.24851 0.812497C4.84626 0.812497 3.50144 1.28331 2.5099 2.12136C1.51835 2.95941 0.96131 4.09605 0.96131 5.28123C0.96131 6.46641 1.51835 7.60305 2.5099 8.4411C3.50144 9.27915 4.84626 9.74996 6.24851 9.74996ZM12.497 5.28123C12.497 6.6819 11.8387 8.0252 10.6669 9.01562C9.49506 10.006 7.90572 10.5625 6.24851 10.5625C4.5913 10.5625 3.00197 10.006 1.83015 9.01562C0.658324 8.0252 0 6.6819 0 5.28123C0 3.88056 0.658324 2.53726 1.83015 1.54684C3.00197 0.556414 4.5913 0 6.24851 0C7.90572 0 9.49506 0.556414 10.6669 1.54684C11.8387 2.53726 12.497 3.88056 12.497 5.28123Z" fill="#C4C4C4"/>
</g>
<defs>
<clipPath id="clip0_451_2499">
<rect width="15.381" height="13" rx="6.4" fill="white"/>
</clipPath>
</defs>
</svg>
