<svg width="36" height="34" viewBox="0 0 36 34" fill="none" xmlns="http://www.w3.org/2000/svg">
<path d="M14.25 12.75H14.265M21.75 12.75H21.765M27 5.66663C28.1935 5.66663 29.3381 6.11439 30.182 6.91142C31.0259 7.70845 31.5 8.78946 31.5 9.91663V21.25C31.5 22.3771 31.0259 23.4581 30.182 24.2552C29.3381 25.0522 28.1935 25.5 27 25.5H19.5L12 29.75V25.5H9C7.80653 25.5 6.66193 25.0522 5.81802 24.2552C4.97411 23.4581 4.5 22.3771 4.5 21.25V9.91663C4.5 8.78946 4.97411 7.70845 5.81802 6.91142C6.66193 6.11439 7.80653 5.66663 9 5.66663H27Z" stroke="black" stroke-width="2.5" stroke-linecap="round" stroke-linejoin="round"/>
<path d="M14.25 18.4166C14.7388 18.8878 15.3223 19.2621 15.9662 19.5177C16.6101 19.7732 17.3015 19.9048 18 19.9048C18.6985 19.9048 19.3899 19.7732 20.0338 19.5177C20.6777 19.2621 21.2612 18.8878 21.75 18.4166" stroke="black" stroke-width="2.5" stroke-linecap="round" stroke-linejoin="round"/>
</svg>
