<svg width="301" height="322" viewBox="0 0 301 322" fill="none" xmlns="http://www.w3.org/2000/svg">
<path d="M253.795 248.228L188.374 210.429C182.831 207.233 178.338 198.646 178.338 191.26V8.78597C178.338 1.39969 182.831 -1.9963 188.374 1.20563L253.795 38.9739C259.338 42.1758 263.832 50.7628 263.832 58.1491V240.641C263.832 248.027 259.338 251.429 253.795 248.228Z" fill="#B1B4C4"/>
<path d="M254.917 251.52L260.102 248.901L255.13 240.374L254.917 251.52Z" fill="#B1B4C4"/>
<path d="M177.319 3.02486L182.092 0.520315L181.128 7.55487L177.319 3.02486Z" fill="#B1B4C4"/>
<path d="M249.623 250.314L184.202 212.539C178.659 209.343 174.166 200.756 174.166 193.37V10.8721C174.166 3.4858 178.659 0.089813 184.202 3.28568L249.623 41.06C255.166 44.2619 259.66 52.8429 259.66 60.2352V242.727C259.66 250.12 255.166 253.516 249.623 250.314Z" fill="#616E84"/>
<path d="M258.944 60.7022V243.176C258.944 250.574 254.457 253.964 248.914 250.768L223.256 235.953L215.281 231.363L183.505 213.006C177.962 209.804 173.474 201.223 173.474 193.831V11.339C173.474 3.94669 177.962 0.556768 183.505 3.75264L248.932 41.5209C254.475 44.7289 258.944 53.3038 258.944 60.7022Z" fill="#20232D"/>
<path d="M254.244 58.8222V236.566C254.244 241.035 251.109 242.861 247.228 240.617L226.804 228.834L224.984 227.791L224.378 227.433L219.957 224.886L207.161 217.506L201.855 214.443L199.721 213.231L185.221 204.862C181.346 202.624 178.205 197.179 178.205 192.691V14.9351C178.205 10.4537 181.346 8.64044 185.221 10.8782L210.764 25.6264V25.6992C210.764 29.1862 213.189 33.4251 216.221 35.1655C219.254 36.906 221.679 35.493 221.679 32.0121C221.679 32.0121 221.679 31.9575 221.679 31.9333L247.228 46.6937C251.109 48.9193 254.244 54.365 254.244 58.8222Z" fill="white"/>
<path d="M217.693 33.3309C218.502 32.8637 218.501 31.3469 217.691 29.943C216.88 28.5392 215.567 27.7799 214.758 28.2471C213.949 28.7143 213.95 30.2311 214.76 31.6349C215.571 33.0388 216.884 33.7981 217.693 33.3309Z" fill="#2B303F"/>
<path opacity="0.1" d="M216.221 31.7938C215.967 31.6291 215.755 31.4064 215.603 31.1439C215.451 30.8814 215.364 30.5866 215.348 30.2838C215.348 29.7319 215.736 29.5076 216.221 29.7865C216.476 29.9499 216.689 30.1714 216.842 30.4328C216.994 30.6942 217.083 30.9881 217.1 31.2904C217.1 31.8423 216.7 32.0667 216.221 31.7938Z" fill="white"/>
<path d="M261.619 84.7107C261.085 85.0199 260.654 84.7107 260.654 83.9829V76.2025C260.664 75.8454 260.756 75.4954 260.923 75.1798C261.091 74.8642 261.329 74.5916 261.619 74.3832C262.152 74.0739 262.583 74.3832 262.583 75.117V82.8974C262.573 83.2535 262.481 83.6025 262.313 83.9171C262.146 84.2316 261.908 84.5032 261.619 84.7107Z" fill="#757B89"/>
<path d="M261.619 97.4638C261.085 97.767 260.654 97.4638 260.654 96.73V88.9495C260.66 88.5874 260.75 88.2316 260.917 87.9104C261.085 87.5893 261.325 87.3117 261.619 87.1C262.152 86.7967 262.583 87.0999 262.583 87.8337V95.6142C262.577 95.9763 262.487 96.3322 262.32 96.6533C262.153 96.9745 261.912 97.252 261.619 97.4638Z" fill="#757B89"/>
<path d="M241.964 225.468L190.509 195.753C187.841 194.213 185.658 190.071 185.658 186.511V90.9628C185.658 87.397 187.829 85.7597 190.509 87.3242L241.964 117.039C244.639 118.586 246.816 122.721 246.816 126.287V221.86C246.816 225.371 244.621 227.009 241.964 225.468Z" fill="#E9EAF2"/>
<path d="M241.964 164.758L190.509 135.043C187.841 133.503 185.658 129.361 185.658 125.801V30.2529C185.658 26.6871 187.829 25.0497 190.509 26.6143L241.964 56.3292C244.639 57.8756 246.816 62.0115 246.816 65.5772V161.15C246.816 164.661 244.621 166.299 241.964 164.758Z" fill="#E9EAF2"/>
<path d="M233.494 150.717C241.472 146.111 241.472 131.173 233.493 117.353C225.514 103.533 212.578 96.0637 204.599 100.67C196.62 105.277 196.621 120.214 204.6 134.034C212.579 147.855 225.515 155.324 233.494 150.717Z" fill="#CED0DB"/>
<path d="M239.277 74.1957L219.374 62.7039V58.0465L239.277 69.5383V74.1957Z" fill="#CED0DB"/>
<path d="M234.686 79.9204L219.374 71.0848V66.4274L234.686 75.2691V79.9204Z" fill="#CED0DB"/>
<path d="M239.277 101.079L194.164 75.0325V70.3813L239.277 96.4212V101.079Z" fill="#CED0DB"/>
<path d="M228.52 165.341L193.82 145.305V140.647L228.52 160.684V165.341Z" fill="#CED0DB"/>
<path d="M238.774 179.641L193.662 153.595V148.937L238.774 174.983V179.641Z" fill="#CED0DB"/>
<path d="M228.368 182.012L193.662 161.975V157.318L228.368 177.354V182.012Z" fill="#CED0DB"/>
<path d="M238.774 196.402L193.662 170.356V165.699L238.774 191.745V196.402Z" fill="#CED0DB"/>
<path d="M238.374 212.927L193.262 186.881V182.23L238.374 208.27V212.927Z" fill="#CED0DB"/>
<path d="M228.368 198.773L193.662 178.737V174.08L228.368 194.116V198.773Z" fill="#CED0DB"/>
<path d="M208.696 61.5025C209.964 59.4649 219.654 58.1247 222.838 66.3539C224.051 69.4649 223.863 77.4212 224.876 82.4242C225.888 87.4273 228.265 90.2532 229.121 94.3102C229.976 98.3672 228.581 105.159 218.811 106.36C209.042 107.561 201.522 104.134 199.218 101.017C196.913 97.9002 196.859 91.2781 199.26 87.7244C201.662 84.1707 203.475 81.272 203.42 76.645L208.696 61.5025Z" fill="#2B2A30"/>
<path d="M215.093 60.0896C215.093 60.0896 207.816 57.9853 203.377 61.9089C199.332 65.5111 199.672 70.3989 200.26 72.7215C200.849 75.0441 202.025 78.1793 203.856 78.3431C205.688 78.5068 215.093 60.0896 215.093 60.0896Z" fill="#2B2A30"/>
<path d="M217.883 79.9805C217.883 79.9805 217.404 88.1126 217.55 88.7069C217.695 89.3012 220.746 89.8834 221.595 90.5929C222.444 91.3024 217.174 99.5498 214.494 100.775C211.813 102 203.505 98.8767 202.929 94.7106C202.401 90.9083 205.306 87.955 206.428 86.924C207.19 86.8507 207.956 86.8304 208.72 86.8634L208.963 82.9216C212.601 81.7937 217.883 79.9805 217.883 79.9805Z" fill="#FFCEA9"/>
<path d="M198.223 95.3412C198.174 95.1168 197.01 95.7718 196.98 95.79C196.949 95.8081 196.403 116.651 195.373 118.537C192.777 122.97 185.876 130.459 185.706 131.302C185.197 133.831 186.664 131.563 189.035 131.302C190.369 131.139 198.198 123.213 199.951 121.405L200.06 121.472C200.06 121.399 200.06 121.333 200.091 121.266L200.321 121.029C200.385 120.47 200.403 119.906 200.376 119.344C203.632 96.6814 199.63 95.1714 198.223 95.3412Z" fill="#FFCEA9"/>
<path d="M196.446 98.5431L196.033 108.586L195.372 116.499C195.372 116.499 195.5 117.561 194.335 119.416C193.171 121.272 186.949 128.98 186.949 128.98L189.763 131.314L196.173 126.051L200.418 97.6941L198.186 94.9349L196.446 98.5431Z" fill="white"/>
<path d="M218.999 89.5013C221.279 89.853 223.893 91.0719 224.251 92.3212C224.669 93.7826 225.573 100.66 223.596 105.893C221.619 111.126 220.285 114.456 219.151 116.706C219.151 116.706 209.266 120.951 201.297 116.002C201.297 116.002 200.752 110.399 200.691 107.397C193.335 100.981 199.624 93.0671 205.852 86.924C206.597 86.8474 207.348 86.8372 208.095 86.8936C208.095 86.8936 202.541 93.4673 206.404 97.2029C214.705 94.6983 216.349 90.9628 218.999 89.5013Z" fill="#F4F4F4"/>
<path d="M202.692 69.9077C203.517 64.6863 207.289 60.7385 212.674 61.0538C214.841 61.1727 216.915 61.9692 218.604 63.3311C220.293 64.6929 221.512 66.551 222.088 68.643C222.664 70.735 222.567 72.9551 221.813 74.9894C221.059 77.0238 219.684 78.7697 217.883 79.9804C217.695 80.7719 217.416 81.539 217.053 82.2666C215.142 84.4862 210.073 85.9052 208.399 85.9052C206.955 85.9052 205.706 84.5711 204.354 82.3273C201.528 77.6699 202.244 72.491 202.692 69.9077Z" fill="#FFCEA9"/>
<path d="M214.342 61.1509C218.12 61.8907 221.231 62.9702 222.256 66.6633C222.959 69.2163 223.875 74.092 223.002 76.1417L222.456 77.6214L217.884 79.9804C217.884 79.9804 215.749 78.2036 216.41 72.9883C216.389 72.2814 216.166 71.5954 215.767 71.0114C215.492 70.5167 215.288 69.986 215.161 69.4347C214.7 67.9792 213.529 67.009 212.195 66.2267C208.787 64.3164 203.802 65.9659 203.099 66.6572C205.379 61.9392 209.951 60.2897 214.342 61.1509Z" fill="#2B2A30"/>
<path d="M227.75 143.831C227.143 150.429 223.468 178.47 223.468 178.47C224.909 183.19 225.673 188.09 225.736 193.024C225.7 197.106 224.633 204.031 223.426 210.447L221.309 225.699L216.258 222.776L216.458 211.405C216.197 207.597 215.821 201.975 215.579 198.379C215.185 192.533 214.135 183.218 213.832 180.926C213.529 178.634 212.789 174.559 212.431 170.01C212.074 165.462 210.363 142.388 210.363 142.388L210.127 146.712C210.127 146.712 209.903 153.734 208.914 162.382C207.926 171.029 207.544 174.886 207.544 174.886C207.544 174.886 209.296 178.1 209.52 180.471C209.702 182.345 211.837 197.142 210.557 204.674L208.684 218.391L202.619 214.91L201.837 205.117C200.8 197.779 198.611 182.218 198.271 180.192C197.835 177.53 197.471 176.22 196.961 167.852C196.452 159.483 196.64 141.308 197.483 134.716C198.326 128.125 200.758 118.549 200.758 118.549C203.053 119.628 205.538 120.246 208.071 120.368C212.316 120.587 219.138 119.295 219.138 119.295C220.329 121.375 221.631 123.389 223.038 125.329C224.948 127.955 228.623 133.734 227.75 143.831Z" fill="#FFCEA9"/>
<path d="M219.151 116.706L224.827 128.113C224.827 128.113 233.493 140.793 224.512 173.394L226.197 183.449C226.197 183.449 209.217 194.365 197.835 183.449C197.835 183.449 193.887 153.322 195.985 139.428C197.15 131.438 198.92 123.548 201.279 115.826C201.279 115.826 204.063 118.901 218.393 116.869" fill="#AF5F83"/>
<path d="M205.876 86.9239C205.876 86.9239 197.471 88.2944 196.446 98.5431L198.368 96.6207C198.368 96.6207 203.08 89.4891 205.876 86.9239Z" fill="white"/>
<path d="M208.12 86.8937C205.949 91.0841 200.237 97.9307 201.856 105.341C204.002 115.22 199.891 174.413 199.891 174.413C199.891 174.413 195.039 171.339 195.039 168.877C195.039 166.414 196.859 102.521 196.859 99.4953C196.859 96.4692 202.171 91.0963 205.779 86.8998C206.734 86.5568 207.743 86.3904 208.757 86.4086C208.757 86.633 208.757 86.6633 208.727 86.8937C208.545 86.9058 208.441 86.8937 208.12 86.8937Z" fill="white"/>
<path d="M170.661 141.126L190.067 129.847L204.002 137.894L184.591 149.174L170.661 141.126Z" fill="#ADB3BC"/>
<path d="M187.562 130.672C186.349 130.951 185.136 131.042 184.118 131.8C183.741 132.135 183.335 132.435 182.905 132.697C182.711 132.8 182.523 132.922 182.298 133.006C182 133.11 181.733 133.288 181.522 133.522C181.302 133.837 181.181 134.211 181.176 134.595C181.082 135.058 181.059 135.533 181.11 136.002C181.28 136.7 182.001 136.645 182.383 136.16C182.576 135.917 182.688 135.62 182.705 135.311C182.714 135.016 182.793 134.728 182.936 134.47C183.078 134.211 183.279 133.991 183.523 133.825L188.162 130.945C188.104 130.842 188.014 130.76 187.906 130.711C187.799 130.662 187.678 130.648 187.562 130.672Z" fill="#FFCEA9"/>
<path d="M225.27 104.947C225.27 104.947 225.112 122.358 225.749 127.991C226.385 133.625 234.421 150.132 227.344 172.527C226.301 173.74 225.342 176.196 216.428 177.227C211.11 177.227 209.181 176.414 209.181 176.414C209.181 176.414 211.237 138.858 208.253 105.881C208.253 96.7845 216.076 97.8397 217.526 87.7609C224.433 90.9871 224.439 92.0058 224.439 92.0058L225.27 104.947Z" fill="white"/>
<path opacity="0.1" d="M221.764 91.8117C217.962 92.2362 217.465 97.0573 217.465 97.0573L217.289 104.438C217.289 104.438 217.701 113.849 218.793 116.718L202.298 128.052L205.894 132.242C205.894 132.242 223.323 124.195 224.694 122.921C226.064 121.648 224.694 106.881 224.906 102.63C225.821 94.6013 225.591 91.3872 221.764 91.8117Z" fill="black"/>
<path d="M224.493 95.8931C223.85 93.2551 221.783 94.1041 220.006 92.5577C215.876 98.3976 218.617 114.195 219.175 115.881L203.335 125.978C203.08 126.148 202.535 126.481 202.274 126.645C200.837 127.512 198.071 129.016 196.385 129.21C194.797 129.392 193.96 131.636 192.274 131.824C192.145 131.828 192.02 131.87 191.915 131.945C191.81 132.02 191.73 132.124 191.684 132.245C191.638 132.365 191.629 132.497 191.657 132.622C191.685 132.748 191.75 132.863 191.843 132.952C192.522 133.607 194.336 133.067 195.573 131.618C195.57 131.654 195.57 131.691 195.573 131.727C195.568 132.014 195.665 132.294 195.848 132.516C196.03 132.738 196.285 132.888 196.567 132.94C196.568 133.045 196.597 133.147 196.652 133.237C196.739 133.421 196.872 133.581 197.037 133.701C197.203 133.821 197.396 133.897 197.598 133.922C197.683 134.193 197.859 134.426 198.098 134.58C198.336 134.734 198.62 134.799 198.902 134.765C199.263 134.744 199.603 134.589 199.854 134.328C201.205 133.809 202.398 132.948 203.317 131.83C204.133 130.99 204.991 130.193 205.888 129.441C210.188 127.591 223.08 122.085 223.656 121.302C224.493 120.144 225.409 99.659 224.493 95.8931Z" fill="#FFCEA9"/>
<path d="M221.128 90.5383C217.326 90.9628 216.828 95.7839 216.828 95.7839L216.652 103.158C216.652 103.158 217.065 112.576 218.15 115.444L201.662 126.778L205.258 130.969C205.258 130.969 222.686 122.921 224.027 121.648C225.367 120.374 225.706 107.251 225.937 103.006C226.883 94.9894 224.936 90.1138 221.128 90.5383Z" fill="white"/>
<path opacity="0.4" d="M102.972 290.732C119.537 290.732 132.965 282.978 132.965 273.412C132.965 263.847 119.537 256.093 102.972 256.093C86.4064 256.093 72.9777 263.847 72.9777 273.412C72.9777 282.978 86.4064 290.732 102.972 290.732Z" fill="#D6D8E5"/>
<path d="M81.6009 144.996C81.2674 147.912 77.7865 160.496 78.5324 164.807C79.2783 169.119 91.1703 176.33 91.1703 176.33L92.8198 168.949L86.234 162.521L88.0109 150.302L81.6009 144.996Z" fill="#FFCEA9"/>
<path d="M90.8007 132.594C89.1027 131.86 85.9492 131.696 84.1785 134.595C82.4077 137.494 80.6127 147.427 80.449 149.149C80.449 149.149 82.905 152.539 86.586 151.975L90.8007 132.594Z" fill="#9DCEFF"/>
<path d="M104.379 272.891C106.967 273.603 109.731 273.268 112.074 271.957C113.924 272.012 123.984 267.712 125.355 271.32C126.568 274.492 122.195 277.421 119.867 277.991C114.785 279.204 111.025 281.757 108.981 282.187C107.465 282.509 105.494 282.721 104.282 281.526C102.832 280.095 102.954 274.789 104.379 272.891Z" fill="#50555C"/>
<path d="M108.981 281.314C111.025 280.89 114.785 278.355 119.867 277.124C121.819 276.651 125.179 274.516 125.519 271.969C125.967 274.886 122.038 277.476 119.867 277.997C114.785 279.21 111.025 281.763 108.981 282.194C107.465 282.515 105.494 282.727 104.282 281.533C103.969 281.185 103.74 280.77 103.614 280.32C105.385 281.787 107.465 281.636 108.981 281.314Z" fill="#111111"/>
<path d="M88.0596 265.571C90.6467 266.289 93.4128 265.956 95.7551 264.643C97.6108 264.698 107.665 260.399 109.036 264.037C110.249 267.209 105.876 270.138 103.548 270.708C98.4659 271.921 94.706 274.474 92.6684 274.904C91.1463 275.226 89.1754 275.438 87.9686 274.237C86.5132 272.77 86.6405 267.463 88.0596 265.571Z" fill="#50555C"/>
<path d="M92.6685 273.989C94.7061 273.558 98.466 271.029 103.548 269.798C105.501 269.325 108.86 267.184 109.2 264.643C109.655 267.56 105.719 270.15 103.548 270.671C98.466 271.884 94.7061 274.437 92.6685 274.868C91.1464 275.189 89.1755 275.402 87.9687 274.201C87.6513 273.857 87.4224 273.44 87.3017 272.988C89.0664 274.455 91.1464 274.31 92.6685 273.989Z" fill="#111111"/>
<path d="M87.8596 238.24C88.295 234.503 89.0725 230.815 90.1822 227.221C90.1822 227.221 89.4909 217.706 89.1452 208.695C88.7511 198.464 85.2035 189.459 87.9991 181.296L119.57 188.319C119.57 188.319 117.659 229.107 117.235 234.043C117.007 237.885 116.537 241.709 115.828 245.493C114.385 253.413 112.044 272.248 112.044 272.248C108.702 274.189 104.324 273.115 104.324 273.115C104.324 273.115 104.567 249.295 104.779 243.588C105.04 236.621 105.252 237.154 105.252 237.154L104.209 219.804L103.53 211.169C103.53 211.169 102.656 217.506 102.086 223.164C101.589 228.1 100.401 232.564 99.0543 241.745C97.902 249.713 96.0221 265.723 96.0221 265.723C92.6868 267.664 88.1386 266.057 88.1386 266.057C88.1386 266.057 86.956 245.153 87.8596 238.24Z" fill="#ADB3BC"/>
<path d="M92.4681 132.764C94.8939 132.885 96.6646 133.504 96.9678 132.764C97.2246 131.523 97.4069 130.267 97.5136 129.004C97.2347 128.307 96.9982 127.561 96.9982 127.561C93.966 125.699 93.0261 122.437 92.6258 118.64C91.9527 112.145 95.4578 106.457 101.953 105.778C108.059 105.172 112.553 109.417 113.748 115.329C114.397 118.234 115.682 123.734 113.942 128.519C112.971 131.193 111.722 133.316 110.467 133.728C109.259 133.693 108.054 133.588 106.859 133.413C106.859 133.413 106.537 135.232 106.313 136.372C106.088 137.512 106.179 138.143 108.484 139.568C110.788 140.993 104.997 143.904 101.207 143.619C97.4166 143.334 93.1716 141.048 92.0012 138.598C90.7095 135.899 90.8187 132.685 92.4681 132.764Z" fill="#FFCEA9"/>
<path d="M95.949 133.122C95.2819 134.783 96.9738 136.815 101.492 138.234C106.01 139.653 106.41 137.828 106.41 137.828C106.41 137.828 113.032 140.86 115.185 142.345C117.896 144.244 119.096 149.726 119.466 158.98C119.885 169.689 119.921 185.578 119.569 188.319C119.569 188.319 114.506 193.364 108.047 192.83C101.589 192.297 90.6609 186.566 88.0351 182.133C88.1079 172.746 89.2055 171.217 87.6834 165.808C84.2025 153.425 82.3711 148.355 84.0448 140.126C85.4396 133.34 87.3923 132.497 90.0727 132.564C92.0399 132.646 94.0014 132.832 95.949 133.122Z" fill="#FFFAF3"/>
<path d="M129.654 167.834C124.336 169.174 123.087 165.82 122.377 163.043C120.685 156.318 119.776 150.247 118.514 146.433C117.029 141.933 115.482 141.211 113.287 140.338C110.716 139.307 108.508 141.478 109.363 147.203C110.376 153.983 111.704 158.725 114.215 166.76C114.876 168.852 116.355 172.576 118.581 174.371C121.322 176.59 125.458 176.493 131.71 174.941C134.378 174.274 137.301 172.679 142.347 170.326C143.699 169.72 144.773 169.277 147.35 168.064C149.927 166.851 152.656 164.832 154.021 162.861C155.385 160.89 155.561 159.962 155.282 159.513C154.936 158.949 154.318 159.071 153.59 159.901C152.54 161.305 151.243 162.505 149.764 163.443C149.764 163.443 151.443 161.709 152.353 160.581C153.169 159.581 153.847 158.475 154.366 157.294C154.845 156.142 153.857 154.583 153.105 155.402C152.353 156.22 151.995 157.057 150.619 158.707C149.892 159.584 149.063 160.372 148.15 161.054C149.004 159.903 149.764 158.686 150.425 157.415C151.298 155.632 151.286 154.717 151.249 154.116C151.213 153.516 150.364 152.8 149.569 153.934C148.848 154.959 148.357 156.56 146.713 158.301C145.5 159.562 144.463 160.29 144.433 159.938C144.403 159.586 145.167 158.895 145.603 157.427C146.04 155.96 145.603 154.395 144.791 154.237C143.978 154.08 144.136 154.116 143.481 155.487C142.826 156.857 141.831 157.876 141.055 159.883C140.382 161.648 140.079 162.364 138.866 163.649C137.599 165.02 134.712 166.56 129.654 167.834Z" fill="#FFCEA9"/>
<path d="M111.322 139.416C114.876 138.895 117.386 140.496 118.951 145.875C120.516 151.254 121.619 155.675 121.619 155.675C120.213 157.702 118.084 159.114 115.67 159.622C111.425 160.653 109.891 158.622 109.891 158.622C109.891 158.622 108.678 152.982 107.975 149.143C107.271 145.305 106.926 140.083 111.322 139.416Z" fill="#9DCEFF"/>
<path d="M113.542 114.498C113.542 114.498 119.157 105.966 106.998 104.225C98.2294 102.976 92.5896 108.61 91.9408 114.723C91.3343 120.563 94.9183 126.627 97.5138 129.034C98.7813 129.489 101.51 129.75 105.094 128.119C105.238 126.528 105.292 124.931 105.258 123.334C105.258 123.334 100.983 114.341 113.542 114.498Z" fill="#111111"/>
<path opacity="0.4" d="M207.671 303.212C215.692 303.212 222.195 299.457 222.195 294.825C222.195 290.193 215.692 286.438 207.671 286.438C199.65 286.438 193.147 290.193 193.147 294.825C193.147 299.457 199.65 303.212 207.671 303.212Z" fill="#D6D8E5"/>
<path d="M209.83 302.673C217.851 302.673 224.354 298.918 224.354 294.286C224.354 289.654 217.851 285.899 209.83 285.899C201.808 285.899 195.306 289.654 195.306 294.286C195.306 298.918 201.808 302.673 209.83 302.673Z" fill="#D9DCE8"/>
<path d="M195.306 294.152V289.944L199.921 291.49L195.306 294.152Z" fill="#D9DCE8"/>
<path d="M224.342 290.241V294.019L219.023 292.976L224.342 290.241Z" fill="#D9DCE8"/>
<path d="M209.83 298.361C217.851 298.361 224.354 294.606 224.354 289.974C224.354 285.342 217.851 281.587 209.83 281.587C201.808 281.587 195.306 285.342 195.306 289.974C195.306 294.606 201.808 298.361 209.83 298.361Z" fill="#EFF1F9"/>
<path d="M200.309 296.305L198.732 295.395L219.211 283.576L220.782 284.486L200.309 296.305Z" fill="#D3D6E2"/>
<path d="M198.732 295.395V299.701L200.163 300.55L200.363 300.647V296.305L198.732 295.395Z" fill="#C5C8D3"/>
<path opacity="0.4" d="M14.5239 288.021C22.5453 288.021 29.0478 284.266 29.0478 279.634C29.0478 275.002 22.5453 271.247 14.5239 271.247C6.50258 271.247 0 275.002 0 279.634C0 284.266 6.50258 288.021 14.5239 288.021Z" fill="#D6D8E5"/>
<path d="M16.6826 287.482C24.704 287.482 31.2066 283.727 31.2066 279.095C31.2066 274.463 24.704 270.708 16.6826 270.708C8.66129 270.708 2.15871 274.463 2.15871 279.095C2.15871 283.727 8.66129 287.482 16.6826 287.482Z" fill="#D9DCE8"/>
<path d="M2.15871 278.955V274.741L6.77362 276.293L2.15871 278.955Z" fill="#D9DCE8"/>
<path d="M31.1945 275.05V278.828L25.8762 277.779L31.1945 275.05Z" fill="#D9DCE8"/>
<path d="M16.6826 283.17C24.704 283.17 31.2066 279.415 31.2066 274.783C31.2066 270.151 24.704 266.396 16.6826 266.396C8.66129 266.396 2.15871 270.151 2.15871 274.783C2.15871 279.415 8.66129 283.17 16.6826 283.17Z" fill="#EFF1F9"/>
<path d="M7.16186 281.114L5.59121 280.204L26.0642 268.385L27.6409 269.295L7.16186 281.114Z" fill="#D3D6E2"/>
<path d="M5.59121 280.204V284.51L7.01632 285.353L7.21644 285.456V281.114L5.59121 280.204Z" fill="#C5C8D3"/>
<path opacity="0.4" d="M284.329 279.653C292.351 279.653 298.853 275.898 298.853 271.266C298.853 266.634 292.351 262.879 284.329 262.879C276.308 262.879 269.805 266.634 269.805 271.266C269.805 275.898 276.308 279.653 284.329 279.653Z" fill="#D6D8E5"/>
<path d="M147.631 321.326C155.652 321.326 162.155 317.571 162.155 312.939C162.155 308.307 155.652 304.552 147.631 304.552C139.609 304.552 133.107 308.307 133.107 312.939C133.107 317.571 139.609 321.326 147.631 321.326Z" fill="#D9DCE8"/>
<path d="M271.964 270.592C271.964 270.556 271.964 266.378 271.964 266.378L276.585 267.93L271.964 270.592Z" fill="#D9DCE8"/>
<path d="M301 266.681V270.459L295.682 269.41L301 266.681Z" fill="#D9DCE8"/>
<path d="M147.631 317.014C155.652 317.014 162.155 313.26 162.155 308.628C162.155 303.996 155.652 300.241 147.631 300.241C139.609 300.241 133.107 303.996 133.107 308.628C133.107 313.26 139.609 317.014 147.631 317.014Z" fill="#EFF1F9"/>
<path d="M138.116 314.959L136.539 314.049L157.012 302.23L158.589 303.139L138.116 314.959Z" fill="#D3D6E2"/>
<path d="M136.539 314.049V318.355L137.97 319.198L138.17 319.301V314.959L136.539 314.049Z" fill="#C5C8D3"/>
</svg>
