<svg width="19" height="16" viewBox="0 0 19 16" fill="none" xmlns="http://www.w3.org/2000/svg">
<path d="M14.1899 11.6489C14.1899 12.6355 14.1899 15.5954 14.1899 14.6088C14.1899 9.86731 9.11726 8.26685 11.0186 9.11188C13.5988 10.2586 16.7113 11.6489 11.6528 11.6489C5.8302 11.6489 12.2859 10.3804 8.48156 10.3804C8.04048 10.3804 4.77946 10.3804 6.57879 10.3804C8.08221 10.3804 11.0891 10.3804 11.0891 10.3804C11.0891 10.3804 3.70671 10.4138 4.11223 12.847C4.51569 15.2677 6.00134 12.9038 5.02838 11.9308C4.082 10.9844 1.37587 12.571 1.50473 10.3804C1.78731 5.57651 10.2922 9.11188 6.08547 9.11188C3.0673 9.11188 16.1631 14.476 16.1631 11.6489C16.1631 11.2854 8.58606 8.78274 16.0926 10.4509C20.2742 11.3801 13.0307 13.3719 14.4718 11.9308C16.4752 9.92736 20.5201 11.9118 13.6966 9.18236C13.5938 9.14125 12.7611 8.69373 13.2032 8.12526C14.5007 6.45715 13.1965 6.6957 13.908 8.82999C14.9644 11.9994 19.8191 10.2061 14.8241 7.20911C11.0644 4.95328 20.8684 7.99279 15.4584 1.5008" stroke="#F2F2F2" stroke-width="3" stroke-linecap="round"/>
</svg>
