<svg width="22" height="21" viewBox="0 0 22 21" fill="none" xmlns="http://www.w3.org/2000/svg">
<path d="M12.6462 19.0273L11.5561 20.0641C11.0946 20.503 10.3482 20.503 9.89156 20.0641L0.346168 10.9905C-0.115389 10.5516 -0.115389 9.84173 0.346168 9.40744L9.89156 0.329225C10.3531 -0.109742 11.0995 -0.109742 11.5561 0.329225L12.6462 1.36593C13.1126 1.80957 13.1028 2.5334 12.6265 2.9677L6.70976 8.3287H20.8216C21.4747 8.3287 22.0001 8.82837 22.0001 9.44946V10.9438C22.0001 11.5649 21.4747 12.0646 20.8216 12.0646H6.70976L12.6265 17.4256C13.1077 17.8599 13.1176 18.5837 12.6462 19.0273Z" fill="white" fill-opacity="0.9"/>
</svg>
