<svg width="39" height="38" viewBox="0 0 39 38" fill="none" xmlns="http://www.w3.org/2000/svg">
<path d="M19.5 33.25L19.3374 33.0124C18.2086 31.3626 17.6442 30.5377 16.8985 29.9405C16.2384 29.4119 15.4777 29.0152 14.6601 28.7733C13.7365 28.5 12.7191 28.5 10.6841 28.5H8.45C6.62983 28.5 5.71974 28.5 5.02453 28.1549C4.413 27.8513 3.91582 27.3668 3.60423 26.771C3.25 26.0936 3.25 25.2068 3.25 23.4333V9.81667C3.25 8.04317 3.25 7.15642 3.60423 6.47903C3.91582 5.88318 4.413 5.39875 5.02453 5.09515C5.71974 4.75 6.62983 4.75 8.45 4.75H9.1C12.7403 4.75 14.5605 4.75 15.9509 5.44029C17.174 6.04749 18.1684 7.01637 18.7915 8.20806C19.5 9.56283 19.5 11.3363 19.5 14.8833M19.5 33.25V14.8833M19.5 33.25L19.6626 33.0124C20.7914 31.3626 21.3558 30.5377 22.1015 29.9405C22.7616 29.4119 23.5223 29.0152 24.3399 28.7733C25.2635 28.5 26.2809 28.5 28.3159 28.5H30.55C32.3702 28.5 33.2803 28.5 33.9755 28.1549C34.587 27.8513 35.0842 27.3668 35.3958 26.771C35.75 26.0936 35.75 25.2068 35.75 23.4333V9.81667C35.75 8.04317 35.75 7.15642 35.3958 6.47903C35.0842 5.88318 34.587 5.39875 33.9755 5.09515C33.2803 4.75 32.3702 4.75 30.55 4.75H29.9C26.2597 4.75 24.4395 4.75 23.0491 5.44029C21.826 6.04749 20.8316 7.01637 20.2085 8.20806C19.5 9.56283 19.5 11.3363 19.5 14.8833" stroke="black" stroke-width="2" stroke-linecap="round" stroke-linejoin="round"/>
</svg>
