<svg width="84" height="105" viewBox="0 0 84 105" fill="none" xmlns="http://www.w3.org/2000/svg">
<path d="M27.9115 81.7172C28.0839 81.2431 28.5344 80.9274 29.0389 80.9274H54.2376C54.7305 80.9274 55.1732 81.2289 55.3537 81.6875L59.3702 91.888C61.8494 98.1843 57.208 105 50.4412 105H33.1475C26.4886 105 21.8538 98.384 24.1285 92.1257L27.9115 81.7172Z" fill="black"/>
<path d="M26.8182 79.8526C26.8182 78.091 28.4312 76.7744 30.1673 77.0733C38.3108 78.4752 44.0049 78.4848 52.1435 77.0783C53.8824 76.7777 55.4995 78.0957 55.4995 79.8603C55.4995 81.1832 54.5708 82.3295 53.2715 82.578C44.2543 84.3025 38.2982 84.3083 29.0552 82.5712C27.7519 82.3263 26.8182 81.1788 26.8182 79.8526Z" fill="#D1532A"/>
<path d="M13.3905 0.0320158C5.23367 0.753032 6.99298 22.5638 8.89223 33.379C-2.59676 47.2019 3.46731 62.842 8.89223 68.1125C25.9013 84.6393 55.1915 78.7387 63.1711 75.1378C89.8007 63.1209 81.8638 42.2916 74.5666 33.379C79.1248 12.7099 78.373 5.06321 72.4674 2.13498C64.7904 -0.508747 53.6748 10.8473 49.0766 16.8557C44.2784 14.933 38.2808 16.0546 35.8817 16.8557C31.7833 10.9474 21.5473 -0.689 13.3905 0.0320158Z" fill="black"/>
<path d="M39.5196 12.9081C40.6141 13.5869 42.7405 15.9783 42.4904 20.1136" stroke="black" stroke-width="2.99883" stroke-linecap="round"/>
<path d="M44.5623 9.42527C44.9384 10.6585 46.7091 17.1644 43.7993 20.1082" stroke="black" stroke-width="2.99883" stroke-linecap="round"/>
<path d="M9.31327 64.6779C8.44888 65.9768 6.50402 68.8992 5.63971 70.1981" stroke="black" stroke-width="2.99883" stroke-linecap="round"/>
<path d="M8.06291 62.2741C6.51826 62.4801 3.04283 62.9435 1.49825 63.1495" stroke="black" stroke-width="2.99883" stroke-linecap="round"/>
<path d="M12.5351 67.4379C12.3999 68.9931 12.0956 72.4923 11.9604 74.0474" stroke="black" stroke-width="2.99883" stroke-linecap="round"/>
<path d="M74.6637 63.9156C75.6452 65.1281 77.8535 67.8563 78.8348 69.0688" stroke="black" stroke-width="2.99883" stroke-linecap="round"/>
<path d="M75.685 61.4055C77.2421 61.4663 80.7455 61.6032 82.3025 61.6641" stroke="black" stroke-width="2.99883" stroke-linecap="round"/>
<path d="M71.7126 66.9644C71.9919 68.5002 72.6204 71.9557 72.8997 73.4914" stroke="black" stroke-width="2.99883" stroke-linecap="round"/>
<ellipse cx="26.6997" cy="47.3924" rx="12.609" ry="15.3193" fill="white"/>
<ellipse cx="29.722" cy="47.3924" rx="5.1989" ry="10.2237" fill="#010101"/>
<ellipse cx="57.2826" cy="47.3924" rx="12.609" ry="15.3193" fill="white"/>
<ellipse cx="53.8633" cy="47.3924" rx="5.1989" ry="10.2237" fill="#010101"/>
<path fill-rule="evenodd" clip-rule="evenodd" d="M41.4307 87.6226C43.152 87.484 44.5058 86.0406 44.5058 84.2805C44.5058 82.4286 43.0073 80.9274 41.1589 80.9274C39.3104 80.9274 37.8119 82.4286 37.8119 84.2805C37.8119 86.0406 39.1657 87.484 40.8871 87.6226V85.7471C40.6032 85.6377 40.4017 85.3619 40.4017 85.0389C40.4017 84.62 40.7407 84.2804 41.1589 84.2804C41.577 84.2804 41.916 84.62 41.916 85.0389C41.916 85.3618 41.7146 85.6376 41.4307 85.747V87.6226ZM41.1783 87.6334H41.1394C41.1459 87.6334 41.1524 87.6335 41.1589 87.6335C41.1653 87.6335 41.1718 87.6334 41.1783 87.6334Z" fill="#F7B534"/>
<path d="M58.5938 85.9274C59.3232 94.0086 55.9774 96.3575 54.2133 96.5217L52.1813 104.7C63.8928 103.051 67.9392 91.8768 68.4985 86.4954C68.7541 84.8197 68.1494 81.4218 63.6866 81.2356C59.2237 81.0495 58.4319 84.2859 58.5938 85.9274Z" fill="black"/>
</svg>
