<svg width="164" height="190" viewBox="0 0 164 190" fill="none" xmlns="http://www.w3.org/2000/svg">
<g clip-path="url(#clip0_408_1118)">
<path d="M63.6267 112.788C37.4835 105.502 21.2675 74.6254 27.4785 43.9582C33.6894 13.291 60.0113 -5.73106 86.1545 1.55467C93.7489 3.68077 100.798 7.9117 106.711 13.8927C112.624 19.8737 117.228 27.4305 120.138 35.9295L119.614 36.1763C116.738 27.7756 112.187 20.3061 106.343 14.3942C100.498 8.48236 93.5305 4.30032 86.0241 2.19879C60.1838 -5.00248 34.1666 13.7995 28.0276 44.1112C21.8886 74.423 37.9169 104.942 63.7572 112.144C70.9499 114.177 78.4465 114.227 85.6583 112.289C92.8702 110.351 99.6007 106.478 105.321 100.974L105.677 101.487C99.8898 107.055 93.0805 110.974 85.7843 112.935C78.488 114.896 70.9036 114.845 63.6267 112.788Z" fill="#E6E6E6"/>
<path d="M151.647 80.3579H112.587C110.469 80.3579 108.747 77.55 108.747 74.099V27.0246C108.747 23.5736 110.469 20.7657 112.587 20.7657H160.159C162.277 20.7657 164 23.5736 164 27.0246V60.226C164 71.3268 158.458 80.3579 151.647 80.3579Z" fill="#F2F2F2"/>
<path d="M80.8987 182.676H84.0136L87.0409 155.193H79.9857L80.8987 182.676Z" fill="#A0616A"/>
<path d="M79.8823 180.173L84.8586 179.825V182.326L89.5898 186.159C89.8235 186.348 89.9995 186.62 90.0921 186.935C90.1848 187.25 90.1891 187.591 90.1046 187.909C90.0201 188.227 89.8511 188.505 89.6224 188.703C89.3936 188.9 89.1171 189.007 88.8331 189.007H82.9085L81.8873 186.533L81.4886 189.007H79.2548L79.8823 180.173Z" fill="#2F2E41"/>
<path d="M34.6465 173.96L37.4883 175.456L49.8423 151.836L43.4058 148.448L34.6465 173.96Z" fill="#A0616A"/>
<path d="M34.5925 171.188L39.2543 173.26L38.3814 175.542L41.36 181.311C41.5072 181.596 41.5728 181.929 41.5474 182.261C41.522 182.593 41.4068 182.906 41.2187 183.156C41.0306 183.405 40.7794 183.578 40.5018 183.648C40.2242 183.718 39.9347 183.683 39.6756 183.546L34.2704 180.701L34.2022 177.953L32.9749 180.019L30.937 178.946L34.5925 171.188Z" fill="#2F2E41"/>
<path d="M57.0579 95.229L71.4662 92.9374C71.4662 92.9374 89.9892 143.189 89.2137 168.886L77.4593 170.587C77.4593 170.587 77.5488 160.05 78.2009 159.243C78.8529 158.437 79.6573 159.463 78.8529 157.157C78.0485 154.852 77.4031 154.269 78.3693 153.145C79.3356 152.021 67.9046 132.36 67.9046 132.36C67.9046 132.36 49.9179 158.898 48.9526 159.653C47.9873 160.408 46.8906 160.574 47.5194 162.473C48.1482 164.371 47.0215 168.008 47.0215 168.008C47.0215 168.008 39.9331 166.747 37.0373 158.444C37.0373 158.444 48.747 133.42 49.81 133.004C50.8729 132.589 51.3555 134.665 50.8729 132.589C50.3903 130.513 49.425 131.268 50.3903 130.513C51.0404 130.026 51.744 129.645 52.4817 129.381L56.2272 117.765C53.3397 109.996 53.5245 102.477 57.0579 95.229Z" fill="#2F2E41"/>
<path d="M56.9198 81.9316L57.4486 87.6854L57.1373 95.2308L71.3844 93.2452L72.7232 81.9316L71.0176 81.9512L56.9198 81.9316Z" fill="#FFB6B6"/>
<path d="M69.0384 63.3464L63.6765 58.3808L60.8619 58.1888L56.6854 61.3273L55.6628 67.4474L53.2442 74.339L56.7916 92.9373C56.7916 92.9373 57.1243 94.2719 56.2524 94.4322C55.3806 94.5925 55.4851 96.5598 55.4851 96.5598C55.4851 96.5598 55.6627 98.2647 54.8161 98.4149C53.9694 98.565 51.7119 98.565 53.6874 101.544C55.6628 104.524 71.6621 93.2319 71.6621 93.2319L73.5566 79.2874C73.5566 79.2874 77.9576 72.3534 73.218 68.3822L69.0384 63.3464Z" fill="#6BA0E6"/>
<path d="M45.6312 105.573C45.395 105.227 45.2262 104.825 45.1369 104.394C45.0476 103.964 45.0398 103.515 45.1141 103.081C45.1885 102.646 45.3432 102.236 45.5672 101.879C45.7913 101.523 46.0794 101.228 46.4111 101.016L53.1555 74.4648L57.3727 76.9554L50.0279 102.404C50.2947 103.081 50.3405 103.85 50.1565 104.564C49.9725 105.279 49.5715 105.889 49.0295 106.279C48.4876 106.67 47.8423 106.814 47.216 106.684C46.5897 106.554 46.0258 106.158 45.6313 105.573H45.6312Z" fill="#A0616A"/>
<path d="M57.654 61.0817C57.654 61.0817 56.4484 60.3301 55.6239 63.5823C54.9637 66.186 49.6071 81.6944 49.5388 85.465C49.0979 85.5745 48.7007 85.8531 48.4097 86.2566C48.1186 86.6602 47.9503 87.1659 47.9313 87.694L54.5543 88.7351C55.7116 87.5901 56.0152 86.0436 55.5674 85.5846L57.0054 80.9775L63.0046 66.3193L58.5336 61.6068L57.654 61.0817Z" fill="#6BA0E6"/>
<path d="M93.0428 96.8459C93.1283 96.4143 93.1321 95.9658 93.0539 95.5322C92.9757 95.0987 92.8175 94.6905 92.5902 94.3364C92.363 93.9823 92.0724 93.691 91.7388 93.4829C91.4052 93.2749 91.0368 93.1552 90.6595 93.1322L75.1879 72.4048L71.906 76.9985L87.9102 96.2189C87.9193 96.9649 88.1614 97.6812 88.5907 98.2318C89.0199 98.7825 89.6064 99.1293 90.239 99.2066C90.8717 99.2839 91.5065 99.0863 92.0233 98.6512C92.54 98.2161 92.9028 97.5738 93.0428 96.8459Z" fill="#A0616A"/>
<path d="M65.8005 62.8285C65.8005 62.8285 66.6104 61.5393 68.5529 64.0534C70.1079 66.0662 80.655 77.3323 82.1066 80.6973C82.5444 80.5725 83.0053 80.6221 83.4165 80.8384C83.8277 81.0546 84.1658 81.4252 84.3777 81.8917L78.7898 86.1901C77.3242 85.7448 76.4803 84.5044 76.7148 83.8634L73.7198 80.4388L62.9069 70.2653L65.2009 63.7482L65.8005 62.8285Z" fill="#6BA0E6"/>
<path d="M68.5454 58.6285C69.1663 57.5824 63.8016 55.1095 62.7631 55.5796C60.6324 56.5496 58.1152 58.6219 56.1567 58.9165C56.1942 58.0049 56.1249 57.0915 55.9507 56.202C55.739 57.1057 55.5302 58.0128 55.3185 58.9198C53.4701 58.6119 50.3912 54.9771 51.1475 46.5919C51.4608 43.1392 53.6197 39.468 60.6748 38.1074C67.188 36.8561 68.7769 42.5268 69.3864 46.2311C70.7748 54.6428 70.0891 58.4994 68.5454 58.6285Z" fill="#2F2E41"/>
<path d="M62.4821 55.592C65.7054 55.592 68.3184 52.5269 68.3184 48.7458C68.3184 44.9648 65.7054 41.8997 62.4821 41.8997C59.2588 41.8997 56.6459 44.9648 56.6459 48.7458C56.6459 52.5269 59.2588 55.592 62.4821 55.592Z" fill="#A0616A"/>
<path d="M70.3374 46.3028L67.5418 46.804C66.3088 45.8981 65.8393 44.554 65.7807 42.974L66.0618 47.0693L64.7256 47.3088C63.8535 46.6263 63.4637 45.8871 63.6983 45.0747L63.8622 47.4636C60.3006 48.9689 56.8483 50.0791 53.9336 49.2435C53.7834 48.0908 53.8283 46.9148 54.0656 45.7825C54.3029 44.6501 54.7279 43.5837 55.3166 42.6441C55.9052 41.7045 56.6458 40.9102 57.4962 40.3063C58.3465 39.7025 59.2899 39.301 60.2726 39.1249L61.7115 38.8669C62.6941 38.6908 63.6967 38.7434 64.6619 39.0217C65.6272 39.3001 66.5363 39.7987 67.3373 40.4892C68.1383 41.1797 68.8155 42.0485 69.3303 43.046C69.845 44.0435 70.1873 45.1502 70.3374 46.3028Z" fill="#2F2E41"/>
<path d="M19.04 182.683C18.8777 182.692 18.7171 182.642 18.5798 182.54C18.4426 182.438 18.3354 182.289 18.2727 182.113C18.21 181.937 18.1949 181.743 18.2295 181.557C18.264 181.371 18.3465 181.202 18.4658 181.072L18.5201 180.819C18.513 180.799 18.5058 180.779 18.4985 180.758C18.3351 180.305 18.0611 179.919 17.7111 179.648C17.3612 179.377 16.9507 179.234 16.5314 179.236C16.1121 179.237 15.7026 179.385 15.3543 179.658C15.0061 179.932 14.7346 180.321 14.574 180.775C13.9321 182.589 13.1149 184.405 12.9137 186.323C12.8251 187.17 12.8624 188.03 13.0242 188.862C11.5166 185.004 10.7337 180.812 10.7287 176.568C10.7284 175.503 10.7788 174.439 10.8798 173.38C10.9632 172.513 11.0789 171.651 11.227 170.796C12.0351 166.156 13.77 161.806 16.2893 158.105C17.5086 157.325 18.4947 156.124 19.1146 154.666C19.3392 154.142 19.498 153.583 19.5859 153.005C19.4484 153.026 19.0673 150.569 19.171 150.418C18.9793 150.077 18.6362 149.908 18.4269 149.575C17.3857 147.919 15.9513 148.208 15.2024 150.458C13.6027 151.405 13.5872 152.976 14.5688 154.487C15.1933 155.448 15.2791 156.748 15.827 157.777C15.7706 157.862 15.712 157.944 15.6556 158.028C14.6251 159.583 13.727 161.252 12.9741 163.012C13.1572 161.04 12.9386 159.046 12.3364 157.192C11.7261 155.465 10.5821 154.011 9.57476 152.518C8.36473 150.724 5.88344 151.507 5.67025 153.78C5.66819 153.802 5.66618 153.824 5.66421 153.846C5.81384 153.945 5.96031 154.051 6.10362 154.162C6.28366 154.303 6.42316 154.504 6.50385 154.74C6.58455 154.976 6.60266 155.235 6.55583 155.483C6.50899 155.731 6.3994 155.956 6.24139 156.13C6.08338 156.304 5.88434 156.417 5.67034 156.456L5.64843 156.46C5.70174 157.092 5.79595 157.719 5.93028 158.335C4.63793 164.198 7.42803 166.333 11.4119 166.429C11.4999 166.482 11.5856 166.535 11.6735 166.585C10.917 169.1 10.4425 171.719 10.2619 174.378C10.1597 175.946 10.1657 177.521 10.28 179.089L10.2732 179.033C9.98455 177.29 9.19207 175.718 8.02957 174.581C6.30298 172.918 3.86364 172.305 2.00096 170.968C1.803 170.818 1.57283 170.739 1.33758 170.738C1.10233 170.738 0.871827 170.816 0.673251 170.964C0.474676 171.112 0.316306 171.323 0.216831 171.573C0.117355 171.823 0.0809238 172.102 0.111822 172.375C0.114319 172.395 0.116852 172.414 0.119436 172.433C0.397107 172.566 0.667469 172.719 0.928939 172.891C1.07857 172.99 1.22504 173.095 1.36835 173.206C1.54838 173.347 1.68788 173.549 1.76857 173.785C1.84926 174.02 1.86738 174.279 1.82054 174.527C1.77371 174.775 1.66411 175.001 1.5061 175.174C1.3481 175.348 1.14906 175.462 0.935071 175.5L0.913135 175.504C0.897357 175.507 0.88382 175.51 0.868059 175.512C1.3425 176.841 2.00839 178.064 2.83657 179.128C3.64464 184.246 7.11535 184.732 10.8279 183.241H10.8302C11.2375 185.318 11.8277 187.339 12.5912 189.272H18.8824C18.9049 189.19 18.9252 189.105 18.9455 189.023C18.3632 189.066 17.7786 189.026 17.2047 188.902C17.6715 188.23 18.1383 187.553 18.605 186.881C18.6154 186.868 18.6252 186.855 18.6343 186.841C18.8711 186.497 19.1101 186.156 19.3469 185.812L19.347 185.812C19.3596 184.758 19.2565 183.706 19.0402 182.683L19.04 182.683Z" fill="#F2F2F2"/>
<path d="M0.336078 189.898L163.097 190C163.187 190 163.272 189.959 163.335 189.885C163.398 189.811 163.434 189.71 163.434 189.606C163.434 189.501 163.398 189.401 163.335 189.327C163.272 189.253 163.187 189.212 163.097 189.212L0.336078 189.11C0.247129 189.11 0.16191 189.152 0.0991047 189.226C0.0362996 189.3 0.0010376 189.4 0.0010376 189.504C0.0010376 189.608 0.0362996 189.709 0.0991047 189.782C0.16191 189.856 0.247129 189.898 0.336078 189.898Z" fill="#CACACA"/>
<path d="M145.909 98.1513H93.1551C92.1369 98.1499 91.1607 97.6748 90.4407 96.8302C89.7207 95.9856 89.3157 94.8406 89.3145 93.6462V36.1372C89.3157 34.9428 89.7207 33.7977 90.4407 32.9531C91.1607 32.1086 92.1369 31.6335 93.1551 31.6321H145.909C146.927 31.6335 147.904 32.1086 148.623 32.9531C149.343 33.7977 149.748 34.9428 149.75 36.1372V93.6461C149.748 94.8406 149.343 95.9856 148.623 96.8302C147.904 97.6748 146.927 98.1499 145.909 98.1513Z" fill="#E6E6E6"/>
<path d="M134.806 95.1125H95.7462C94.728 95.1111 93.7518 94.636 93.0318 93.7914C92.3119 92.9468 91.9069 91.8018 91.9057 90.6074V39.1783C91.9069 37.9839 92.3119 36.8388 93.0318 35.9943C93.7518 35.1497 94.728 34.6746 95.7462 34.6732H143.319C144.337 34.6746 145.313 35.1497 146.033 35.9943C146.753 36.8388 147.158 37.9839 147.159 39.1783V80.6216C147.155 84.4635 145.853 88.1468 143.537 90.8634C141.221 93.58 138.081 95.1081 134.806 95.1125Z" fill="white"/>
<path d="M114.047 51.8331C114.048 53.1429 113.717 54.4233 113.097 55.5126C112.477 56.6018 111.595 57.4509 110.564 57.9524C109.532 58.4539 108.397 58.5854 107.302 58.3302C106.207 58.075 105.201 57.4446 104.411 56.5186C103.621 55.5927 103.083 54.4129 102.865 53.1283C102.647 51.8437 102.759 50.5122 103.186 49.3019C103.613 48.0917 104.336 47.0572 105.264 46.3293C106.193 45.6013 107.284 45.2126 108.401 45.2123C109.142 45.2111 109.877 45.3816 110.562 45.7138C111.247 46.0461 111.87 46.5337 112.395 47.1487C112.919 47.7637 113.335 48.494 113.619 49.2978C113.902 50.1016 114.048 50.9631 114.047 51.8331Z" fill="#57ABFF"/>
<path d="M117.925 63.78H104.208C103.418 63.78 102.777 64.5314 102.777 65.4582V66.2603C102.777 67.1872 103.418 67.9385 104.208 67.9385H117.925C118.715 67.9385 119.355 67.1872 119.355 66.2603V65.4582C119.355 64.5314 118.715 63.78 117.925 63.78Z" fill="#3F3D56"/>
<path d="M134.81 72.097H104.254C103.464 72.097 102.824 72.8484 102.824 73.7752V74.5773C102.824 75.5042 103.464 76.2555 104.254 76.2555H134.81C135.6 76.2555 136.241 75.5042 136.241 74.5773V73.7752C136.241 72.8484 135.6 72.097 134.81 72.097Z" fill="#3F3D56"/>
<path d="M134.81 80.4141H104.254C103.464 80.4141 102.824 81.1654 102.824 82.0923V82.8944C102.824 83.8212 103.464 84.5726 104.254 84.5726H134.81C135.6 84.5726 136.241 83.8212 136.241 82.8944V82.0923C136.241 81.1654 135.6 80.4141 134.81 80.4141Z" fill="#3F3D56"/>
<path d="M108.526 52.7929C109.617 52.7929 110.502 51.7554 110.502 50.4756C110.502 49.1958 109.617 48.1583 108.526 48.1583C107.435 48.1583 106.551 49.1958 106.551 50.4756C106.551 51.7554 107.435 52.7929 108.526 52.7929Z" fill="white"/>
<path d="M110.644 53.6207H106.411C106.149 53.6211 105.898 53.7433 105.713 53.9605C105.528 54.1777 105.424 54.4722 105.423 54.7794C105.484 55.7717 105.616 56.7563 105.818 57.7223C106.667 58.2355 107.613 58.4874 108.568 58.4544C109.523 58.4214 110.454 58.1045 111.276 57.5336C111.457 56.6282 111.576 55.7071 111.632 54.7794C111.631 54.4722 111.527 54.1777 111.342 53.9605C111.157 53.7433 110.906 53.6211 110.644 53.6207Z" fill="white"/>
<path d="M140.795 45.8653C140.057 45.8653 139.336 45.6086 138.722 45.1278C138.109 44.647 137.631 43.9636 137.349 43.1641C137.066 42.3645 136.992 41.4847 137.136 40.6359C137.28 39.7871 137.635 39.0074 138.157 38.3955C138.679 37.7835 139.344 37.3668 140.067 37.198C140.791 37.0291 141.541 37.1158 142.222 37.447C142.904 37.7782 143.486 38.339 143.896 39.0586C144.306 39.7782 144.525 40.6242 144.525 41.4896C144.525 42.6501 144.132 43.7631 143.432 44.5837C142.733 45.4043 141.784 45.8653 140.795 45.8653Z" fill="#E6E6E6"/>
<path d="M142.096 42.4053L141.315 41.4897L142.096 40.574C142.165 40.4931 142.204 40.3833 142.204 40.2688C142.204 40.1543 142.165 40.0445 142.096 39.9636C142.027 39.8826 141.933 39.8372 141.836 39.8372C141.738 39.8372 141.644 39.8826 141.575 39.9636L140.795 40.8792L140.014 39.9636C139.945 39.8826 139.852 39.8372 139.754 39.8372C139.656 39.8372 139.563 39.8826 139.494 39.9636C139.425 40.0445 139.386 40.1543 139.386 40.2688C139.386 40.3833 139.425 40.4931 139.494 40.574L140.274 41.4897L139.494 42.4053C139.425 42.4863 139.386 42.596 139.386 42.7105C139.386 42.825 139.425 42.9348 139.494 43.0157C139.563 43.0967 139.656 43.1422 139.754 43.1422C139.852 43.1422 139.945 43.0967 140.014 43.0157L140.795 42.1001L141.575 43.0157C141.61 43.0558 141.65 43.0876 141.695 43.1093C141.739 43.131 141.787 43.1421 141.836 43.1421C141.884 43.1421 141.932 43.131 141.976 43.1093C142.021 43.0876 142.062 43.0558 142.096 43.0157C142.13 42.9756 142.157 42.9281 142.175 42.8757C142.194 42.8233 142.204 42.7672 142.204 42.7105C142.204 42.6538 142.194 42.5977 142.175 42.5453C142.157 42.493 142.13 42.4454 142.096 42.4053V42.4053Z" fill="white"/>
</g>
<defs>
<clipPath id="clip0_408_1118">
<rect width="164" height="190" fill="white"/>
</clipPath>
</defs>
</svg>
