<svg width="23" height="16" viewBox="0 0 23 16" fill="none" xmlns="http://www.w3.org/2000/svg">
<path d="M22.8609 7.20117C20.6955 2.90604 16.4086 0 11.4999 0C6.59129 0 2.30317 2.90807 0.138936 7.20158C0.047592 7.38526 0 7.58821 0 7.79403C0 7.99985 0.047592 8.2028 0.138936 8.38648C2.30436 12.6816 6.59129 15.5877 11.4999 15.5877C16.4086 15.5877 20.6967 12.6796 22.8609 8.38608C22.9523 8.20239 22.9999 7.99945 22.9999 7.79362C22.9999 7.5878 22.9523 7.38486 22.8609 7.20117ZM11.4999 13.6392C10.3627 13.6392 9.251 13.2964 8.30542 12.6541C7.35984 12.0118 6.62285 11.0989 6.18765 10.0308C5.75245 8.96265 5.63858 7.78734 5.86044 6.65345C6.08231 5.51956 6.62994 4.47802 7.43409 3.66053C8.23824 2.84304 9.26279 2.28632 10.3782 2.06077C11.4936 1.83523 12.6497 1.95099 13.7004 2.39341C14.751 2.83583 15.6491 3.58505 16.2809 4.54631C16.9127 5.50758 17.2499 6.63772 17.2499 7.79383C17.2503 8.56156 17.1018 9.32183 16.813 10.0312C16.5241 10.7406 16.1006 11.3851 15.5666 11.928C15.0326 12.4708 14.3986 12.9014 13.7008 13.195C13.003 13.4886 12.2551 13.6396 11.4999 13.6392ZM11.4999 3.89691C11.1578 3.90177 10.8178 3.95352 10.4893 4.05076C10.7601 4.42489 10.8901 4.8853 10.8556 5.34849C10.8211 5.81168 10.6245 6.24697 10.3014 6.57543C9.97833 6.90389 9.55014 7.10376 9.09451 7.1388C8.63888 7.17384 8.18598 7.04173 7.81796 6.76642C7.60839 7.55132 7.64622 8.38327 7.92612 9.14516C8.20602 9.90706 8.71391 10.5605 9.37828 11.0136C10.0427 11.4667 10.8301 11.6966 11.6297 11.6709C12.4293 11.6453 13.2009 11.3653 13.8358 10.8705C14.4707 10.3757 14.937 9.6909 15.1691 8.91256C15.4011 8.13422 15.3872 7.30151 15.1293 6.53162C14.8715 5.76174 14.3826 5.09344 13.7315 4.62081C13.0804 4.14818 12.3 3.895 11.4999 3.89691Z" fill="white"/>
</svg>
