<svg width="22" height="22" viewBox="0 0 22 22" fill="none" xmlns="http://www.w3.org/2000/svg">
<path d="M10.9799 1.77768e-05C8.04057 0.00526429 5.37184 1.15659 3.40153 3.02823L1.8174 1.45361C1.14676 0.78704 0.000157314 1.25914 0.000157314 2.20184V8.11228C0.000157314 8.69667 0.476745 9.1704 1.06466 9.1704H7.01079C7.95918 9.1704 8.43412 8.03067 7.76353 7.36406L5.91173 5.52337C7.28069 4.24926 9.05207 3.54349 10.934 3.52735C15.0323 3.49217 18.4868 6.78888 18.4514 10.9978C18.4178 14.9905 15.1612 18.3408 11.0001 18.3408C9.17591 18.3408 7.45185 17.6937 6.09318 16.5086C5.88281 16.3252 5.5651 16.3363 5.36718 16.533L3.608 18.2817C3.3919 18.4965 3.40259 18.8467 3.62937 19.0503C5.57987 20.8015 8.16467 21.8679 11.0001 21.8679C17.0751 21.8679 22 16.9726 22 10.934C22 4.90234 17.048 -0.0107839 10.9799 1.77768e-05Z" fill="white"/>
</svg>
