<svg width="27" height="21" viewBox="0 0 27 21" fill="none" xmlns="http://www.w3.org/2000/svg">
<path d="M13.1421 5.41426L4.50036 12.489V20.1247C4.50036 20.3224 4.57938 20.512 4.72002 20.6518C4.86066 20.7916 5.05141 20.8701 5.25031 20.8701L10.5027 20.8566C10.701 20.8556 10.8908 20.7766 11.0306 20.637C11.1704 20.4973 11.2489 20.3082 11.2489 20.1112V15.652C11.2489 15.4543 11.3279 15.2647 11.4686 15.1249C11.6092 14.9851 11.8 14.9066 11.9989 14.9066H14.9986C15.1975 14.9066 15.3883 14.9851 15.5289 15.1249C15.6696 15.2647 15.7486 15.4543 15.7486 15.652V20.1079C15.7483 20.206 15.7674 20.3032 15.805 20.3939C15.8425 20.4846 15.8977 20.567 15.9674 20.6365C16.0371 20.706 16.1199 20.7611 16.211 20.7987C16.3021 20.8363 16.3998 20.8557 16.4985 20.8557L21.7491 20.8701C21.948 20.8701 22.1387 20.7916 22.2794 20.6518C22.42 20.512 22.499 20.3224 22.499 20.1247V12.4839L13.8592 5.41426C13.7576 5.33287 13.6311 5.2885 13.5006 5.2885C13.3702 5.2885 13.2436 5.33287 13.1421 5.41426ZM26.7924 10.2228L22.874 7.0123V0.559083C22.874 0.410805 22.8147 0.2686 22.7092 0.163752C22.6038 0.0589034 22.4607 0 22.3115 0H19.6867C19.5376 0 19.3945 0.0589034 19.289 0.163752C19.1835 0.2686 19.1243 0.410805 19.1243 0.559083V3.942L14.9279 0.510164C14.5252 0.180761 14.0198 0.000658481 13.4983 0.000658481C12.9767 0.000658481 12.4714 0.180761 12.0687 0.510164L0.204125 10.2228C0.14717 10.2696 0.100049 10.3271 0.0654541 10.392C0.0308592 10.4569 0.0094684 10.528 0.00250395 10.6011C-0.0044605 10.6742 0.00313789 10.748 0.024865 10.8182C0.046592 10.8884 0.082022 10.9536 0.12913 11.0102L1.32435 12.4545C1.37133 12.5113 1.42912 12.5583 1.4944 12.5929C1.55969 12.6274 1.63118 12.6488 1.70481 12.6559C1.77843 12.6629 1.85272 12.6555 1.92345 12.634C1.99417 12.6125 2.05992 12.5773 2.11695 12.5305L13.1421 3.50405C13.2436 3.42267 13.3702 3.37829 13.5006 3.37829C13.6311 3.37829 13.7576 3.42267 13.8592 3.50405L24.8848 12.5305C24.9417 12.5773 25.0074 12.6125 25.078 12.6341C25.1486 12.6557 25.2228 12.6632 25.2964 12.6563C25.3699 12.6494 25.4414 12.6281 25.5067 12.5937C25.572 12.5594 25.6298 12.5125 25.6769 12.4559L26.8721 11.0116C26.9192 10.9547 26.9545 10.8891 26.9759 10.8186C26.9974 10.7481 27.0046 10.6741 26.9972 10.6008C26.9898 10.5275 26.9679 10.4563 26.9328 10.3915C26.8976 10.3266 26.8499 10.2693 26.7924 10.2228Z" fill="white"/>
</svg>
