<svg width="62" height="77" viewBox="0 0 62 77" fill="none" xmlns="http://www.w3.org/2000/svg">
<path d="M20.4684 59.926C20.5948 59.5783 20.9252 59.3468 21.2952 59.3468H39.7742C40.1357 59.3468 40.4603 59.5679 40.5927 59.9042L43.5381 67.3845C45.3562 72.0018 41.9526 77 36.9902 77H24.3081C19.425 77 16.0261 72.1482 17.6942 67.5588L20.4684 59.926Z" fill="black"/>
<path d="M19.6666 58.5586C19.6666 57.2667 20.8495 56.3012 22.1226 56.5204C28.0945 57.5485 32.2702 57.5555 38.2385 56.524C39.5137 56.3036 40.6996 57.2701 40.6996 58.5642C40.6996 59.5343 40.0185 60.3749 39.0657 60.5571C32.4531 61.8218 28.0853 61.826 21.3071 60.5522C20.3513 60.3726 19.6666 59.5311 19.6666 58.5586Z" fill="#D1532A"/>
<path d="M9.81964 0.0234783C3.83797 0.552223 5.12814 16.5468 6.52092 24.4779C-1.90434 34.6147 2.54265 46.0841 6.52092 49.9492C18.9942 62.0689 40.4738 57.7417 46.3254 55.1011C65.8538 46.2887 60.0334 31.0138 54.6821 24.4779C58.0248 9.32058 57.4735 3.71302 53.1427 1.56565C47.5129 -0.373081 39.3615 7.95465 35.9894 12.3609C32.4708 10.9509 28.0725 11.7734 26.3132 12.3609C23.3077 8.02809 15.8013 -0.505267 9.81964 0.0234783Z" fill="black"/>
<path d="M28.981 9.46591C29.7836 9.96369 31.3429 11.7174 31.1595 14.7499" stroke="black" stroke-width="2.19914" stroke-linecap="round"/>
<path d="M32.679 6.91188C32.9547 7.81628 34.2533 12.5872 32.1194 14.746" stroke="black" stroke-width="2.19914" stroke-linecap="round"/>
<path d="M6.82969 47.4304C6.1958 48.3829 4.76957 50.5261 4.13574 51.4786" stroke="black" stroke-width="2.19914" stroke-linecap="round"/>
<path d="M5.91275 45.6677C4.78001 45.8187 2.23136 46.1585 1.09867 46.3096" stroke="black" stroke-width="2.19914" stroke-linecap="round"/>
<path d="M9.19231 49.4545C9.09313 50.595 8.86998 53.161 8.77085 54.3015" stroke="black" stroke-width="2.19914" stroke-linecap="round"/>
<path d="M54.7533 46.8713C55.4731 47.7605 57.0925 49.7612 57.8122 50.6503" stroke="black" stroke-width="2.19914" stroke-linecap="round"/>
<path d="M55.5023 45.0306C56.6442 45.0753 59.2133 45.1756 60.3552 45.2203" stroke="black" stroke-width="2.19914" stroke-linecap="round"/>
<path d="M52.5892 49.1072C52.7941 50.2335 53.255 52.7675 53.4598 53.8937" stroke="black" stroke-width="2.19914" stroke-linecap="round"/>
<path fill-rule="evenodd" clip-rule="evenodd" d="M30.3824 64.2565C31.6448 64.1549 32.6375 63.0964 32.6375 61.8057C32.6375 60.4477 31.5386 59.3468 30.1831 59.3468C28.8275 59.3468 27.7286 60.4477 27.7286 61.8057C27.7286 63.0964 28.7215 64.1549 29.9838 64.2565V62.8812C29.7756 62.801 29.6279 62.5987 29.6279 62.3619C29.6279 62.0547 29.8764 61.8057 30.1831 61.8057C30.4897 61.8057 30.7383 62.0547 30.7383 62.3619C30.7383 62.5987 30.5906 62.8009 30.3824 62.8812V64.2565Z" fill="#F7B534"/>
<path d="M42.9687 63.0134C43.5036 68.9396 41.05 70.6621 39.7564 70.7826L38.2662 76.7797C46.8546 75.571 49.822 67.3763 50.2322 63.43C50.4196 62.2011 49.9762 59.7093 46.7034 59.5728C43.4307 59.4363 42.85 61.8096 42.9687 63.0134Z" fill="black"/>
<ellipse cx="19.9352" cy="33.8475" rx="9.77415" ry="9.79177" fill="white"/>
<ellipse cx="42.4137" cy="33.8475" rx="9.77415" ry="9.79177" fill="white"/>
<ellipse cx="42.4137" cy="33.8475" rx="7.84808" ry="7.86222" fill="black"/>
<ellipse cx="19.8805" cy="33.8475" rx="7.84808" ry="7.86222" fill="black"/>
<ellipse cx="23.4053" cy="27.0364" rx="1.99235" ry="1.99594" fill="white"/>
<ellipse cx="45.3318" cy="27.0364" rx="1.99235" ry="1.99594" fill="white"/>
<ellipse cx="37.8457" cy="40.6895" rx="1.01843" ry="1.02027" fill="white"/>
<ellipse cx="15.2811" cy="40.301" rx="1.01843" ry="1.02027" fill="white"/>
</svg>
