<svg width="39" height="38" viewBox="0 0 39 38" fill="none" xmlns="http://www.w3.org/2000/svg">
<g clip-path="url(#clip0_568_2445)">
<path fill-rule="evenodd" clip-rule="evenodd" d="M33 16C33 19.4478 31.6304 22.7544 29.1924 25.1924C26.7544 27.6304 23.4478 29 20 29C16.5522 29 13.2456 27.6304 10.8076 25.1924C8.36964 22.7544 7 19.4478 7 16C7 12.5522 8.36964 9.24558 10.8076 6.80761C13.2456 4.36964 16.5522 3 20 3C23.4478 3 26.7544 4.36964 29.1924 6.80761C31.6304 9.24558 33 12.5522 33 16ZM36 16C36 20.2435 34.3143 24.3131 31.3137 27.3137C28.3131 30.3143 24.2435 32 20 32C15.7565 32 11.6869 30.3143 8.68629 27.3137C5.68571 24.3131 4 20.2435 4 16C4 11.7565 5.68571 7.68687 8.68629 4.68629C11.6869 1.68571 15.7565 0 20 0C24.2435 0 28.3131 1.68571 31.3137 4.68629C34.3143 7.68687 36 11.7565 36 16ZM14.504 9.4C15.1929 9.00363 16.011 8.89684 16.7786 9.10308C17.5461 9.30931 18.2005 9.81173 18.598 10.5C18.7285 10.7296 18.7629 11.0014 18.6937 11.2563C18.6246 11.5111 18.4574 11.7282 18.2287 11.8603C18 11.9923 17.7284 12.0285 17.4731 11.961C17.2178 11.8935 16.9996 11.7278 16.866 11.5C16.7783 11.3484 16.6522 11.2224 16.5005 11.1348C16.3488 11.0472 16.1768 11.001 16.0016 11.0008C15.8264 11.0006 15.6542 11.0464 15.5023 11.1337C15.3504 11.2209 15.2241 11.3466 15.136 11.498C15.0029 11.7274 14.784 11.8945 14.5277 11.9626C14.2713 12.0307 13.9984 11.9941 13.769 11.861C13.5396 11.7279 13.3725 11.509 13.3044 11.2527C13.2363 10.9963 13.2729 10.7234 13.406 10.494C13.6704 10.0392 14.0478 9.66191 14.504 9.4ZM20 24C22.1217 24 24.1566 23.1571 25.6569 21.6569C27.1571 20.1566 28 18.1217 28 16H12C12 18.1217 12.8429 20.1566 14.3431 21.6569C15.8434 23.1571 17.8783 24 20 24ZM22.504 9.4C23.1929 9.00363 24.011 8.89684 24.7786 9.10308C25.5461 9.30931 26.2005 9.81173 26.598 10.5C26.6647 10.6138 26.7082 10.7396 26.7261 10.8703C26.744 11.0009 26.7358 11.1338 26.7021 11.2613C26.6684 11.3888 26.6098 11.5084 26.5297 11.6132C26.4496 11.7179 26.3495 11.8058 26.2353 11.8718C26.1211 11.9377 25.995 11.9804 25.8642 11.9974C25.7334 12.0144 25.6006 12.0054 25.4733 11.9708C25.346 11.9363 25.2269 11.8769 25.1226 11.7961C25.0184 11.7153 24.9312 11.6146 24.866 11.5C24.7783 11.3484 24.6522 11.2224 24.5005 11.1348C24.3488 11.0472 24.1768 11.001 24.0016 11.0008C23.8264 11.0006 23.6542 11.0464 23.5023 11.1337C23.3504 11.2209 23.2241 11.3466 23.136 11.498C23.0029 11.7274 22.784 11.8945 22.5277 11.9626C22.2713 12.0307 21.9984 11.9941 21.769 11.861C21.5396 11.7279 21.3725 11.509 21.3044 11.2527C21.2363 10.9963 21.2729 10.7234 21.406 10.494C21.6704 10.0392 22.0498 9.66191 22.506 9.4H22.504Z" fill="black"/>
</g>
<defs>
<clipPath id="clip0_568_2445">
<rect width="32" height="32" fill="white" transform="translate(4)"/>
</clipPath>
</defs>
</svg>
