<svg width="25" height="25" viewBox="0 0 25 25" fill="none" xmlns="http://www.w3.org/2000/svg">
<g clip-path="url(#clip0_0_34)">
<g clip-path="url(#clip1_0_34)">
<g clip-path="url(#clip2_0_34)">
<path fill-rule="evenodd" clip-rule="evenodd" d="M14.147 17.1585C15.5804 17.1585 16.747 18.2642 16.747 19.6233V23.1187C16.747 23.4108 16.9923 23.6449 17.3066 23.6517H19.5756C21.3637 23.6517 22.8173 22.2812 22.8173 20.5972V10.6835C22.809 10.104 22.5197 9.55851 22.0232 9.19602L14.1744 3.22101C13.1209 2.42442 11.6471 2.42442 10.5899 3.22329L2.79467 9.19374C2.27919 9.56761 1.98991 10.1131 1.98396 10.7028V20.5972C1.98396 22.2812 3.43753 23.6517 5.22562 23.6517H7.5161C7.83872 23.6517 8.10062 23.4074 8.10062 23.1074C8.10062 23.0415 8.10895 22.9756 8.12324 22.9131V19.6233C8.12324 18.2722 9.28277 17.1676 10.7054 17.1585H14.147ZM19.5756 25.3562H17.2851C15.9732 25.3267 14.9613 24.3437 14.9613 23.1187V19.6233C14.9613 19.204 14.5959 18.8631 14.147 18.8631H10.7113C10.2721 18.8653 9.90896 19.2074 9.90896 19.6233V23.1074C9.90896 23.1926 9.89705 23.2744 9.87205 23.3517C9.74348 24.4767 8.73634 25.3562 7.5161 25.3562H5.22562C2.453 25.3562 0.198242 23.221 0.198242 20.5972V10.6949C0.210147 9.56533 0.755385 8.53124 1.69705 7.85056L9.47681 1.89033C11.1899 0.594878 13.5768 0.594878 15.2863 1.88806L23.122 7.85397C24.0423 8.52329 24.5875 9.55511 24.603 10.671V20.5972C24.603 23.221 22.3482 25.3562 19.5756 25.3562Z" fill="#FFB800"/>
</g>
</g>
</g>
<defs>
<clipPath id="clip0_0_34">
<rect width="25" height="25" fill="white"/>
</clipPath>
<clipPath id="clip1_0_34">
<rect width="25" height="26" fill="white"/>
</clipPath>
<clipPath id="clip2_0_34">
<rect width="25" height="25" fill="white" transform="translate(0 0.5)"/>
</clipPath>
</defs>
</svg>
